<svg xmlns="http://www.w3.org/2000/svg" width="1380" height="268" viewBox="0 0 1380 268"><defs><marker id="arrowhead" markerWidth="10" markerHeight="7" refX="10" refY="3.5" orient="auto"><polygon points="0 0, 10 3.5, 0 7" fill="#6b7280"/></marker><marker id="arrowhead-purple" markerWidth="10" markerHeight="7" refX="10" refY="3.5" orient="auto"><polygon points="0 0, 10 3.5, 0 7" fill="#7c3aed"/></marker></defs><style>.lgdl-anchors,.lgdl-edge-anchors{opacity:0;pointer-events:none;transition:opacity .12s ease}.lgdl-node:hover + .lgdl-anchors,.lgdl-class:hover + .lgdl-anchors,.lgdl-group:hover + .lgdl-anchors,.lgdl-lane:hover + .lgdl-anchors{opacity:1}.lgdl-edge:hover + .lgdl-edge-anchors,.lgdl-aggregate-edge:hover + .lgdl-edge-anchors{opacity:1}.lgdl-node.lgdl-hovered + .lgdl-anchors,.lgdl-class.lgdl-hovered + .lgdl-anchors,.lgdl-group.lgdl-hovered + .lgdl-anchors,.lgdl-lane.lgdl-hovered + .lgdl-anchors{opacity:1}.lgdl-edge.lgdl-hovered + .lgdl-edge-anchors,.lgdl-aggregate-edge.lgdl-hovered + .lgdl-edge-anchors{opacity:1}.lgdl-hovered{filter:drop-shadow(0 0 3px rgba(79,70,229,.65))}</style><rect x="0" y="0" width="1380" height="268" fill="#ffffff"/><g class="lgdl-lane" data-lgdl-loc="groups[0]"><rect x="40" y="40" width="260" height="228" fill="#eff6ff" stroke="#e2e8f0"/><rect x="40" y="40" width="260" height="36" fill="#eef2ff" stroke="#e2e8f0"/><text x="170" y="58" font-family="'Segoe UI', 'PingFang SC', 'Microsoft YaHei', sans-serif" font-size="13" fill="#4338ca" text-anchor="middle" dominant-baseline="middle">数据源层</text></g><g class="lgdl-anchors"><circle cx="300.0" cy="154.0" r="3" fill="#64748b"/><circle cx="300.0" cy="188.8" r="3" fill="#64748b"/><circle cx="300.0" cy="229.1" r="3" fill="#64748b"/><circle cx="284.0" cy="268.0" r="3" fill="#64748b"/><circle cx="235.8" cy="268.0" r="3" fill="#64748b"/><circle cx="200.5" cy="268.0" r="3" fill="#64748b"/><circle cx="170.0" cy="268.0" r="3" fill="#64748b"/><circle cx="139.5" cy="268.0" r="3" fill="#64748b"/><circle cx="104.2" cy="268.0" r="3" fill="#64748b"/><circle cx="56.0" cy="268.0" r="3" fill="#64748b"/><circle cx="40.0" cy="229.1" r="3" fill="#64748b"/><circle cx="40.0" cy="188.8" r="3" fill="#64748b"/><circle cx="40.0" cy="154.0" r="3" fill="#64748b"/><circle cx="40.0" cy="119.2" r="3" fill="#64748b"/><circle cx="40.0" cy="78.9" r="3" fill="#64748b"/><circle cx="56.0" cy="40.0" r="3" fill="#64748b"/><circle cx="104.2" cy="40.0" r="3" fill="#64748b"/><circle cx="139.5" cy="40.0" r="3" fill="#64748b"/><circle cx="170.0" cy="40.0" r="3" fill="#64748b"/><circle cx="200.5" cy="40.0" r="3" fill="#64748b"/><circle cx="235.8" cy="40.0" r="3" fill="#64748b"/><circle cx="284.0" cy="40.0" r="3" fill="#64748b"/><circle cx="300.0" cy="78.9" r="3" fill="#64748b"/><circle cx="300.0" cy="119.2" r="3" fill="#64748b"/></g><g class="lgdl-lane" data-lgdl-loc="groups[1]"><rect x="300" y="40" width="260" height="228" fill="#ecfdf5" stroke="#e2e8f0"/><rect x="300" y="40" width="260" height="36" fill="#eef2ff" stroke="#e2e8f0"/><text x="430" y="58" font-family="'Segoe UI', 'PingFang SC', 'Microsoft YaHei', sans-serif" font-size="13" fill="#4338ca" text-anchor="middle" dominant-baseline="middle">传输层</text></g><g class="lgdl-anchors"><circle cx="560.0" cy="154.0" r="3" fill="#64748b"/><circle cx="560.0" cy="188.8" r="3" fill="#64748b"/><circle cx="560.0" cy="229.1" r="3" fill="#64748b"/><circle cx="544.0" cy="268.0" r="3" fill="#64748b"/><circle cx="495.8" cy="268.0" r="3" fill="#64748b"/><circle cx="460.5" cy="268.0" r="3" fill="#64748b"/><circle cx="430.0" cy="268.0" r="3" fill="#64748b"/><circle cx="399.5" cy="268.0" r="3" fill="#64748b"/><circle cx="364.2" cy="268.0" r="3" fill="#64748b"/><circle cx="316.0" cy="268.0" r="3" fill="#64748b"/><circle cx="300.0" cy="229.1" r="3" fill="#64748b"/><circle cx="300.0" cy="188.8" r="3" fill="#64748b"/><circle cx="300.0" cy="154.0" r="3" fill="#64748b"/><circle cx="300.0" cy="119.2" r="3" fill="#64748b"/><circle cx="300.0" cy="78.9" r="3" fill="#64748b"/><circle cx="316.0" cy="40.0" r="3" fill="#64748b"/><circle cx="364.2" cy="40.0" r="3" fill="#64748b"/><circle cx="399.5" cy="40.0" r="3" fill="#64748b"/><circle cx="430.0" cy="40.0" r="3" fill="#64748b"/><circle cx="460.5" cy="40.0" r="3" fill="#64748b"/><circle cx="495.8" cy="40.0" r="3" fill="#64748b"/><circle cx="544.0" cy="40.0" r="3" fill="#64748b"/><circle cx="560.0" cy="78.9" r="3" fill="#64748b"/><circle cx="560.0" cy="119.2" r="3" fill="#64748b"/></g><g class="lgdl-lane" data-lgdl-loc="groups[2]"><rect x="560" y="40" width="260" height="228" fill="#fffbeb" stroke="#e2e8f0"/><rect x="560" y="40" width="260" height="36" fill="#eef2ff" stroke="#e2e8f0"/><text x="690" y="58" font-family="'Segoe UI', 'PingFang SC', 'Microsoft YaHei', sans-serif" font-size="13" fill="#4338ca" text-anchor="middle" dominant-baseline="middle">计算层</text></g><g class="lgdl-anchors"><circle cx="820.0" cy="154.0" r="3" fill="#64748b"/><circle cx="820.0" cy="188.8" r="3" fill="#64748b"/><circle cx="820.0" cy="229.1" r="3" fill="#64748b"/><circle cx="804.0" cy="268.0" r="3" fill="#64748b"/><circle cx="755.8" cy="268.0" r="3" fill="#64748b"/><circle cx="720.5" cy="268.0" r="3" fill="#64748b"/><circle cx="690.0" cy="268.0" r="3" fill="#64748b"/><circle cx="659.5" cy="268.0" r="3" fill="#64748b"/><circle cx="624.2" cy="268.0" r="3" fill="#64748b"/><circle cx="576.0" cy="268.0" r="3" fill="#64748b"/><circle cx="560.0" cy="229.1" r="3" fill="#64748b"/><circle cx="560.0" cy="188.8" r="3" fill="#64748b"/><circle cx="560.0" cy="154.0" r="3" fill="#64748b"/><circle cx="560.0" cy="119.2" r="3" fill="#64748b"/><circle cx="560.0" cy="78.9" r="3" fill="#64748b"/><circle cx="576.0" cy="40.0" r="3" fill="#64748b"/><circle cx="624.2" cy="40.0" r="3" fill="#64748b"/><circle cx="659.5" cy="40.0" r="3" fill="#64748b"/><circle cx="690.0" cy="40.0" r="3" fill="#64748b"/><circle cx="720.5" cy="40.0" r="3" fill="#64748b"/><circle cx="755.8" cy="40.0" r="3" fill="#64748b"/><circle cx="804.0" cy="40.0" r="3" fill="#64748b"/><circle cx="820.0" cy="78.9" r="3" fill="#64748b"/><circle cx="820.0" cy="119.2" r="3" fill="#64748b"/></g><g class="lgdl-lane" data-lgdl-loc="groups[3]"><rect x="820" y="40" width="260" height="228" fill="#faf5ff" stroke="#e2e8f0"/><rect x="820" y="40" width="260" height="36" fill="#eef2ff" stroke="#e2e8f0"/><text x="950" y="58" font-family="'Segoe UI', 'PingFang SC', 'Microsoft YaHei', sans-serif" font-size="13" fill="#4338ca" text-anchor="middle" dominant-baseline="middle">存储层</text></g><g class="lgdl-anchors"><circle cx="1080.0" cy="154.0" r="3" fill="#64748b"/><circle cx="1080.0" cy="188.8" r="3" fill="#64748b"/><circle cx="1080.0" cy="229.1" r="3" fill="#64748b"/><circle cx="1064.0" cy="268.0" r="3" fill="#64748b"/><circle cx="1015.8" cy="268.0" r="3" fill="#64748b"/><circle cx="980.5" cy="268.0" r="3" fill="#64748b"/><circle cx="950.0" cy="268.0" r="3" fill="#64748b"/><circle cx="919.5" cy="268.0" r="3" fill="#64748b"/><circle cx="884.2" cy="268.0" r="3" fill="#64748b"/><circle cx="836.0" cy="268.0" r="3" fill="#64748b"/><circle cx="820.0" cy="229.1" r="3" fill="#64748b"/><circle cx="820.0" cy="188.8" r="3" fill="#64748b"/><circle cx="820.0" cy="154.0" r="3" fill="#64748b"/><circle cx="820.0" cy="119.2" r="3" fill="#64748b"/><circle cx="820.0" cy="78.9" r="3" fill="#64748b"/><circle cx="836.0" cy="40.0" r="3" fill="#64748b"/><circle cx="884.2" cy="40.0" r="3" fill="#64748b"/><circle cx="919.5" cy="40.0" r="3" fill="#64748b"/><circle cx="950.0" cy="40.0" r="3" fill="#64748b"/><circle cx="980.5" cy="40.0" r="3" fill="#64748b"/><circle cx="1015.8" cy="40.0" r="3" fill="#64748b"/><circle cx="1064.0" cy="40.0" r="3" fill="#64748b"/><circle cx="1080.0" cy="78.9" r="3" fill="#64748b"/><circle cx="1080.0" cy="119.2" r="3" fill="#64748b"/></g><g class="lgdl-lane" data-lgdl-loc="groups[4]"><rect x="1080" y="40" width="260" height="228" fill="#f8fafc" stroke="#e2e8f0"/><rect x="1080" y="40" width="260" height="36" fill="#eef2ff" stroke="#e2e8f0"/><text x="1210" y="58" font-family="'Segoe UI', 'PingFang SC', 'Microsoft YaHei', sans-serif" font-size="13" fill="#4338ca" text-anchor="middle" dominant-baseline="middle">应用层</text></g><g class="lgdl-anchors"><circle cx="1340.0" cy="154.0" r="3" fill="#64748b"/><circle cx="1340.0" cy="188.8" r="3" fill="#64748b"/><circle cx="1340.0" cy="229.1" r="3" fill="#64748b"/><circle cx="1324.0" cy="268.0" r="3" fill="#64748b"/><circle cx="1275.8" cy="268.0" r="3" fill="#64748b"/><circle cx="1240.5" cy="268.0" r="3" fill="#64748b"/><circle cx="1210.0" cy="268.0" r="3" fill="#64748b"/><circle cx="1179.5" cy="268.0" r="3" fill="#64748b"/><circle cx="1144.2" cy="268.0" r="3" fill="#64748b"/><circle cx="1096.0" cy="268.0" r="3" fill="#64748b"/><circle cx="1080.0" cy="229.1" r="3" fill="#64748b"/><circle cx="1080.0" cy="188.8" r="3" fill="#64748b"/><circle cx="1080.0" cy="154.0" r="3" fill="#64748b"/><circle cx="1080.0" cy="119.2" r="3" fill="#64748b"/><circle cx="1080.0" cy="78.9" r="3" fill="#64748b"/><circle cx="1096.0" cy="40.0" r="3" fill="#64748b"/><circle cx="1144.2" cy="40.0" r="3" fill="#64748b"/><circle cx="1179.5" cy="40.0" r="3" fill="#64748b"/><circle cx="1210.0" cy="40.0" r="3" fill="#64748b"/><circle cx="1240.5" cy="40.0" r="3" fill="#64748b"/><circle cx="1275.8" cy="40.0" r="3" fill="#64748b"/><circle cx="1324.0" cy="40.0" r="3" fill="#64748b"/><circle cx="1340.0" cy="78.9" r="3" fill="#64748b"/><circle cx="1340.0" cy="119.2" r="3" fill="#64748b"/></g><g class="lgdl-node" data-lgdl-loc="nodes[0]"><rect x="90" y="76" width="160" height="56" rx="6" ry="6" fill="#ffffff" stroke="#6b7280" stroke-width="1.5"/><text x="170" y="104" font-family="'Segoe UI', 'PingFang SC', 'Microsoft YaHei', sans-serif" font-size="13" fill="#1f2937" text-anchor="middle" dominant-baseline="middle">App客户端</text></g><g class="lgdl-anchors"><circle cx="250.0" cy="104.0" r="3" fill="#6b7280"/><circle cx="250.0" cy="125.4" r="3" fill="#6b7280"/><circle cx="218.5" cy="132.0" r="3" fill="#6b7280"/><circle cx="198.0" cy="132.0" r="3" fill="#6b7280"/><circle cx="186.2" cy="132.0" r="3" fill="#6b7280"/><circle cx="177.5" cy="132.0" r="3" fill="#6b7280"/><circle cx="170.0" cy="132.0" r="3" fill="#6b7280"/><circle cx="162.5" cy="132.0" r="3" fill="#6b7280"/><circle cx="153.8" cy="132.0" r="3" fill="#6b7280"/><circle cx="142.0" cy="132.0" r="3" fill="#6b7280"/><circle cx="121.5" cy="132.0" r="3" fill="#6b7280"/><circle cx="90.0" cy="125.4" r="3" fill="#6b7280"/><circle cx="90.0" cy="104.0" r="3" fill="#6b7280"/><circle cx="90.0" cy="82.6" r="3" fill="#6b7280"/><circle cx="121.5" cy="76.0" r="3" fill="#6b7280"/><circle cx="142.0" cy="76.0" r="3" fill="#6b7280"/><circle cx="153.8" cy="76.0" r="3" fill="#6b7280"/><circle cx="162.5" cy="76.0" r="3" fill="#6b7280"/><circle cx="170.0" cy="76.0" r="3" fill="#6b7280"/><circle cx="177.5" cy="76.0" r="3" fill="#6b7280"/><circle cx="186.2" cy="76.0" r="3" fill="#6b7280"/><circle cx="198.0" cy="76.0" r="3" fill="#6b7280"/><circle cx="218.5" cy="76.0" r="3" fill="#6b7280"/><circle cx="250.0" cy="82.6" r="3" fill="#6b7280"/></g><g class="lgdl-node" data-lgdl-loc="nodes[1]"><rect x="90" y="172" width="160" height="56" rx="6" ry="6" fill="#ffffff" stroke="#6b7280" stroke-width="1.5"/><text x="170" y="200" font-family="'Segoe UI', 'PingFang SC', 'Microsoft YaHei', sans-serif" font-size="13" fill="#1f2937" text-anchor="middle" dominant-baseline="middle">日志采集SDK</text></g><g class="lgdl-anchors"><circle cx="250.0" cy="200.0" r="3" fill="#6b7280"/><circle cx="250.0" cy="221.4" r="3" fill="#6b7280"/><circle cx="218.5" cy="228.0" r="3" fill="#6b7280"/><circle cx="198.0" cy="228.0" r="3" fill="#6b7280"/><circle cx="186.2" cy="228.0" r="3" fill="#6b7280"/><circle cx="177.5" cy="228.0" r="3" fill="#6b7280"/><circle cx="170.0" cy="228.0" r="3" fill="#6b7280"/><circle cx="162.5" cy="228.0" r="3" fill="#6b7280"/><circle cx="153.8" cy="228.0" r="3" fill="#6b7280"/><circle cx="142.0" cy="228.0" r="3" fill="#6b7280"/><circle cx="121.5" cy="228.0" r="3" fill="#6b7280"/><circle cx="90.0" cy="221.4" r="3" fill="#6b7280"/><circle cx="90.0" cy="200.0" r="3" fill="#6b7280"/><circle cx="90.0" cy="178.6" r="3" fill="#6b7280"/><circle cx="121.5" cy="172.0" r="3" fill="#6b7280"/><circle cx="142.0" cy="172.0" r="3" fill="#6b7280"/><circle cx="153.8" cy="172.0" r="3" fill="#6b7280"/><circle cx="162.5" cy="172.0" r="3" fill="#6b7280"/><circle cx="170.0" cy="172.0" r="3" fill="#6b7280"/><circle cx="177.5" cy="172.0" r="3" fill="#6b7280"/><circle cx="186.2" cy="172.0" r="3" fill="#6b7280"/><circle cx="198.0" cy="172.0" r="3" fill="#6b7280"/><circle cx="218.5" cy="172.0" r="3" fill="#6b7280"/><circle cx="250.0" cy="178.6" r="3" fill="#6b7280"/></g><g class="lgdl-node" data-lgdl-loc="nodes[2]"><rect x="350" y="124" width="160" height="56" rx="6" ry="6" fill="#ffffff" stroke="#6b7280" stroke-width="1.5"/><text x="430" y="152" font-family="'Segoe UI', 'PingFang SC', 'Microsoft YaHei', sans-serif" font-size="13" fill="#1f2937" text-anchor="middle" dominant-baseline="middle">Kafka集群</text></g><g class="lgdl-anchors"><circle cx="510.0" cy="152.0" r="3" fill="#6b7280"/><circle cx="510.0" cy="173.4" r="3" fill="#6b7280"/><circle cx="478.5" cy="180.0" r="3" fill="#6b7280"/><circle cx="458.0" cy="180.0" r="3" fill="#6b7280"/><circle cx="446.2" cy="180.0" r="3" fill="#6b7280"/><circle cx="437.5" cy="180.0" r="3" fill="#6b7280"/><circle cx="430.0" cy="180.0" r="3" fill="#6b7280"/><circle cx="422.5" cy="180.0" r="3" fill="#6b7280"/><circle cx="413.8" cy="180.0" r="3" fill="#6b7280"/><circle cx="402.0" cy="180.0" r="3" fill="#6b7280"/><circle cx="381.5" cy="180.0" r="3" fill="#6b7280"/><circle cx="350.0" cy="173.4" r="3" fill="#6b7280"/><circle cx="350.0" cy="152.0" r="3" fill="#6b7280"/><circle cx="350.0" cy="130.6" r="3" fill="#6b7280"/><circle cx="381.5" cy="124.0" r="3" fill="#6b7280"/><circle cx="402.0" cy="124.0" r="3" fill="#6b7280"/><circle cx="413.8" cy="124.0" r="3" fill="#6b7280"/><circle cx="422.5" cy="124.0" r="3" fill="#6b7280"/><circle cx="430.0" cy="124.0" r="3" fill="#6b7280"/><circle cx="437.5" cy="124.0" r="3" fill="#6b7280"/><circle cx="446.2" cy="124.0" r="3" fill="#6b7280"/><circle cx="458.0" cy="124.0" r="3" fill="#6b7280"/><circle cx="478.5" cy="124.0" r="3" fill="#6b7280"/><circle cx="510.0" cy="130.6" r="3" fill="#6b7280"/></g><g class="lgdl-node" data-lgdl-loc="nodes[3]"><rect x="610" y="124" width="160" height="56" rx="6" ry="6" fill="#ffffff" stroke="#6b7280" stroke-width="1.5"/><text x="690" y="152" font-family="'Segoe UI', 'PingFang SC', 'Microsoft YaHei', sans-serif" font-size="13" fill="#1f2937" text-anchor="middle" dominant-baseline="middle">Flink作业</text></g><g class="lgdl-anchors"><circle cx="770.0" cy="152.0" r="3" fill="#6b7280"/><circle cx="770.0" cy="173.4" r="3" fill="#6b7280"/><circle cx="738.5" cy="180.0" r="3" fill="#6b7280"/><circle cx="718.0" cy="180.0" r="3" fill="#6b7280"/><circle cx="706.2" cy="180.0" r="3" fill="#6b7280"/><circle cx="697.5" cy="180.0" r="3" fill="#6b7280"/><circle cx="690.0" cy="180.0" r="3" fill="#6b7280"/><circle cx="682.5" cy="180.0" r="3" fill="#6b7280"/><circle cx="673.8" cy="180.0" r="3" fill="#6b7280"/><circle cx="662.0" cy="180.0" r="3" fill="#6b7280"/><circle cx="641.5" cy="180.0" r="3" fill="#6b7280"/><circle cx="610.0" cy="173.4" r="3" fill="#6b7280"/><circle cx="610.0" cy="152.0" r="3" fill="#6b7280"/><circle cx="610.0" cy="130.6" r="3" fill="#6b7280"/><circle cx="641.5" cy="124.0" r="3" fill="#6b7280"/><circle cx="662.0" cy="124.0" r="3" fill="#6b7280"/><circle cx="673.8" cy="124.0" r="3" fill="#6b7280"/><circle cx="682.5" cy="124.0" r="3" fill="#6b7280"/><circle cx="690.0" cy="124.0" r="3" fill="#6b7280"/><circle cx="697.5" cy="124.0" r="3" fill="#6b7280"/><circle cx="706.2" cy="124.0" r="3" fill="#6b7280"/><circle cx="718.0" cy="124.0" r="3" fill="#6b7280"/><circle cx="738.5" cy="124.0" r="3" fill="#6b7280"/><circle cx="770.0" cy="130.6" r="3" fill="#6b7280"/></g><g class="lgdl-node" data-lgdl-loc="nodes[4]"><rect x="870" y="76" width="160" height="56" rx="6" ry="6" fill="#ffffff" stroke="#6b7280" stroke-width="1.5"/><text x="950" y="104" font-family="'Segoe UI', 'PingFang SC', 'Microsoft YaHei', sans-serif" font-size="13" fill="#1f2937" text-anchor="middle" dominant-baseline="middle">ClickHouse</text></g><g class="lgdl-anchors"><circle cx="1030.0" cy="104.0" r="3" fill="#6b7280"/><circle cx="1030.0" cy="125.4" r="3" fill="#6b7280"/><circle cx="998.5" cy="132.0" r="3" fill="#6b7280"/><circle cx="978.0" cy="132.0" r="3" fill="#6b7280"/><circle cx="966.2" cy="132.0" r="3" fill="#6b7280"/><circle cx="957.5" cy="132.0" r="3" fill="#6b7280"/><circle cx="950.0" cy="132.0" r="3" fill="#6b7280"/><circle cx="942.5" cy="132.0" r="3" fill="#6b7280"/><circle cx="933.8" cy="132.0" r="3" fill="#6b7280"/><circle cx="922.0" cy="132.0" r="3" fill="#6b7280"/><circle cx="901.5" cy="132.0" r="3" fill="#6b7280"/><circle cx="870.0" cy="125.4" r="3" fill="#6b7280"/><circle cx="870.0" cy="104.0" r="3" fill="#6b7280"/><circle cx="870.0" cy="82.6" r="3" fill="#6b7280"/><circle cx="901.5" cy="76.0" r="3" fill="#6b7280"/><circle cx="922.0" cy="76.0" r="3" fill="#6b7280"/><circle cx="933.8" cy="76.0" r="3" fill="#6b7280"/><circle cx="942.5" cy="76.0" r="3" fill="#6b7280"/><circle cx="950.0" cy="76.0" r="3" fill="#6b7280"/><circle cx="957.5" cy="76.0" r="3" fill="#6b7280"/><circle cx="966.2" cy="76.0" r="3" fill="#6b7280"/><circle cx="978.0" cy="76.0" r="3" fill="#6b7280"/><circle cx="998.5" cy="76.0" r="3" fill="#6b7280"/><circle cx="1030.0" cy="82.6" r="3" fill="#6b7280"/></g><g class="lgdl-node" data-lgdl-loc="nodes[5]"><rect x="1130" y="76" width="160" height="56" rx="6" ry="6" fill="#ffffff" stroke="#6b7280" stroke-width="1.5"/><text x="1210" y="104" font-family="'Segoe UI', 'PingFang SC', 'Microsoft YaHei', sans-serif" font-size="13" fill="#1f2937" text-anchor="middle" dominant-baseline="middle">实时大屏</text></g><g class="lgdl-anchors"><circle cx="1290.0" cy="104.0" r="3" fill="#6b7280"/><circle cx="1290.0" cy="125.4" r="3" fill="#6b7280"/><circle cx="1258.5" cy="132.0" r="3" fill="#6b7280"/><circle cx="1238.0" cy="132.0" r="3" fill="#6b7280"/><circle cx="1226.2" cy="132.0" r="3" fill="#6b7280"/><circle cx="1217.5" cy="132.0" r="3" fill="#6b7280"/><circle cx="1210.0" cy="132.0" r="3" fill="#6b7280"/><circle cx="1202.5" cy="132.0" r="3" fill="#6b7280"/><circle cx="1193.8" cy="132.0" r="3" fill="#6b7280"/><circle cx="1182.0" cy="132.0" r="3" fill="#6b7280"/><circle cx="1161.5" cy="132.0" r="3" fill="#6b7280"/><circle cx="1130.0" cy="125.4" r="3" fill="#6b7280"/><circle cx="1130.0" cy="104.0" r="3" fill="#6b7280"/><circle cx="1130.0" cy="82.6" r="3" fill="#6b7280"/><circle cx="1161.5" cy="76.0" r="3" fill="#6b7280"/><circle cx="1182.0" cy="76.0" r="3" fill="#6b7280"/><circle cx="1193.8" cy="76.0" r="3" fill="#6b7280"/><circle cx="1202.5" cy="76.0" r="3" fill="#6b7280"/><circle cx="1210.0" cy="76.0" r="3" fill="#6b7280"/><circle cx="1217.5" cy="76.0" r="3" fill="#6b7280"/><circle cx="1226.2" cy="76.0" r="3" fill="#6b7280"/><circle cx="1238.0" cy="76.0" r="3" fill="#6b7280"/><circle cx="1258.5" cy="76.0" r="3" fill="#6b7280"/><circle cx="1290.0" cy="82.6" r="3" fill="#6b7280"/></g><g class="lgdl-node" data-lgdl-loc="nodes[6]"><rect x="1130" y="172" width="160" height="56" rx="6" ry="6" fill="#ffffff" stroke="#6b7280" stroke-width="1.5"/><text x="1210" y="200" font-family="'Segoe UI', 'PingFang SC', 'Microsoft YaHei', sans-serif" font-size="13" fill="#1f2937" text-anchor="middle" dominant-baseline="middle">告警服务</text></g><g class="lgdl-anchors"><circle cx="1290.0" cy="200.0" r="3" fill="#6b7280"/><circle cx="1290.0" cy="221.4" r="3" fill="#6b7280"/><circle cx="1258.5" cy="228.0" r="3" fill="#6b7280"/><circle cx="1238.0" cy="228.0" r="3" fill="#6b7280"/><circle cx="1226.2" cy="228.0" r="3" fill="#6b7280"/><circle cx="1217.5" cy="228.0" r="3" fill="#6b7280"/><circle cx="1210.0" cy="228.0" r="3" fill="#6b7280"/><circle cx="1202.5" cy="228.0" r="3" fill="#6b7280"/><circle cx="1193.8" cy="228.0" r="3" fill="#6b7280"/><circle cx="1182.0" cy="228.0" r="3" fill="#6b7280"/><circle cx="1161.5" cy="228.0" r="3" fill="#6b7280"/><circle cx="1130.0" cy="221.4" r="3" fill="#6b7280"/><circle cx="1130.0" cy="200.0" r="3" fill="#6b7280"/><circle cx="1130.0" cy="178.6" r="3" fill="#6b7280"/><circle cx="1161.5" cy="172.0" r="3" fill="#6b7280"/><circle cx="1182.0" cy="172.0" r="3" fill="#6b7280"/><circle cx="1193.8" cy="172.0" r="3" fill="#6b7280"/><circle cx="1202.5" cy="172.0" r="3" fill="#6b7280"/><circle cx="1210.0" cy="172.0" r="3" fill="#6b7280"/><circle cx="1217.5" cy="172.0" r="3" fill="#6b7280"/><circle cx="1226.2" cy="172.0" r="3" fill="#6b7280"/><circle cx="1238.0" cy="172.0" r="3" fill="#6b7280"/><circle cx="1258.5" cy="172.0" r="3" fill="#6b7280"/><circle cx="1290.0" cy="178.6" r="3" fill="#6b7280"/></g><g class="lgdl-node" data-lgdl-loc="nodes[7]"><rect x="870" y="172" width="160" height="56" rx="6" ry="6" fill="#ffffff" stroke="#6b7280" stroke-width="1.5"/><text x="950" y="200" font-family="'Segoe UI', 'PingFang SC', 'Microsoft YaHei', sans-serif" font-size="13" fill="#1f2937" text-anchor="middle" dominant-baseline="middle">Redis缓存</text></g><g class="lgdl-anchors"><circle cx="1030.0" cy="200.0" r="3" fill="#6b7280"/><circle cx="1030.0" cy="221.4" r="3" fill="#6b7280"/><circle cx="998.5" cy="228.0" r="3" fill="#6b7280"/><circle cx="978.0" cy="228.0" r="3" fill="#6b7280"/><circle cx="966.2" cy="228.0" r="3" fill="#6b7280"/><circle cx="957.5" cy="228.0" r="3" fill="#6b7280"/><circle cx="950.0" cy="228.0" r="3" fill="#6b7280"/><circle cx="942.5" cy="228.0" r="3" fill="#6b7280"/><circle cx="933.8" cy="228.0" r="3" fill="#6b7280"/><circle cx="922.0" cy="228.0" r="3" fill="#6b7280"/><circle cx="901.5" cy="228.0" r="3" fill="#6b7280"/><circle cx="870.0" cy="221.4" r="3" fill="#6b7280"/><circle cx="870.0" cy="200.0" r="3" fill="#6b7280"/><circle cx="870.0" cy="178.6" r="3" fill="#6b7280"/><circle cx="901.5" cy="172.0" r="3" fill="#6b7280"/><circle cx="922.0" cy="172.0" r="3" fill="#6b7280"/><circle cx="933.8" cy="172.0" r="3" fill="#6b7280"/><circle cx="942.5" cy="172.0" r="3" fill="#6b7280"/><circle cx="950.0" cy="172.0" r="3" fill="#6b7280"/><circle cx="957.5" cy="172.0" r="3" fill="#6b7280"/><circle cx="966.2" cy="172.0" r="3" fill="#6b7280"/><circle cx="978.0" cy="172.0" r="3" fill="#6b7280"/><circle cx="998.5" cy="172.0" r="3" fill="#6b7280"/><circle cx="1030.0" cy="178.6" r="3" fill="#6b7280"/></g><g class="lgdl-edge" data-lgdl-loc="edges[1]"><path d="M 170,172 L 170,154 L 329,154 L 329,173 L 350,173" fill="none" stroke="#6b7280" stroke-width="1.5" marker-end="url(#arrowhead)"/><text x="249.5" y="150" font-family="'Segoe UI', 'PingFang SC', 'Microsoft YaHei', sans-serif" font-size="12" fill="#6b7280" text-anchor="middle" dominant-baseline="middle">原始日志</text></g><g class="lgdl-edge-anchors"><circle cx="170.0" cy="172.0" r="3.5" fill="#6b7280"/><circle cx="350.0" cy="173.4" r="3.5" fill="#6b7280"/></g><g class="lgdl-edge" data-lgdl-loc="edges[2]"><path d="M 510,152 L 610,152" fill="none" stroke="#6b7280" stroke-width="1.5" marker-end="url(#arrowhead)"/><text x="560" y="148" font-family="'Segoe UI', 'PingFang SC', 'Microsoft YaHei', sans-serif" font-size="12" fill="#6b7280" text-anchor="middle" dominant-baseline="middle">日志流</text></g><g class="lgdl-edge-anchors"><circle cx="510.0" cy="152.0" r="3.5" fill="#6b7280"/><circle cx="610.0" cy="152.0" r="3.5" fill="#6b7280"/></g><g class="lgdl-edge" data-lgdl-loc="edges[3]"><path d="M 690,124 L 690,105 L 847,105 L 847,125 L 870,125" fill="none" stroke="#6b7280" stroke-width="1.5" marker-end="url(#arrowhead)"/><text x="768.5" y="31" font-family="'Segoe UI', 'PingFang SC', 'Microsoft YaHei', sans-serif" font-size="12" fill="#6b7280" text-anchor="middle" dominant-baseline="middle">聚合指标</text></g><g class="lgdl-edge-anchors"><circle cx="690.0" cy="124.0" r="3.5" fill="#6b7280"/><circle cx="870.0" cy="125.4" r="3.5" fill="#6b7280"/></g><g class="lgdl-edge" data-lgdl-loc="edges[4]"><path d="M 690,124 L 690,105 L 847,105 L 847,179 L 870,179" fill="none" stroke="#6b7280" stroke-width="1.5" marker-end="url(#arrowhead)"/><text x="768.5" y="101" font-family="'Segoe UI', 'PingFang SC', 'Microsoft YaHei', sans-serif" font-size="12" fill="#6b7280" text-anchor="middle" dominant-baseline="middle">实时指标缓存</text></g><g class="lgdl-edge-anchors"><circle cx="690.0" cy="124.0" r="3.5" fill="#6b7280"/><circle cx="870.0" cy="178.6" r="3.5" fill="#6b7280"/></g><g class="lgdl-edge" data-lgdl-loc="edges[5]"><path d="M 690,124 L 690,21 L 1106,21 L 1106,200 L 1130,200" fill="none" stroke="#6b7280" stroke-width="1.5" marker-end="url(#arrowhead)"/><text x="898" y="17" font-family="'Segoe UI', 'PingFang SC', 'Microsoft YaHei', sans-serif" font-size="12" fill="#6b7280" text-anchor="middle" dominant-baseline="middle">告警事件</text></g><g class="lgdl-edge-anchors"><circle cx="690.0" cy="124.0" r="3.5" fill="#6b7280"/><circle cx="1130.0" cy="200.0" r="3.5" fill="#6b7280"/></g><g class="lgdl-edge" data-lgdl-loc="edges[6]"><path d="M 1030,104 L 1130,104" fill="none" stroke="#6b7280" stroke-width="1.5" marker-end="url(#arrowhead)"/><text x="1080" y="30" font-family="'Segoe UI', 'PingFang SC', 'Microsoft YaHei', sans-serif" font-size="12" fill="#6b7280" text-anchor="middle" dominant-baseline="middle">指标查询</text></g><g class="lgdl-edge-anchors"><circle cx="1030.0" cy="104.0" r="3.5" fill="#6b7280"/><circle cx="1130.0" cy="104.0" r="3.5" fill="#6b7280"/></g><g class="lgdl-edge" data-lgdl-loc="edges[7]"><path d="M 1030,200 L 1106,200 L 1106,104 L 1130,104" fill="none" stroke="#6b7280" stroke-width="1.5" marker-end="url(#arrowhead)"/><text x="1106" y="148" font-family="'Segoe UI', 'PingFang SC', 'Microsoft YaHei', sans-serif" font-size="12" fill="#6b7280" text-anchor="middle" dominant-baseline="middle">缓存指标</text></g><g class="lgdl-edge-anchors"><circle cx="1030.0" cy="200.0" r="3.5" fill="#6b7280"/><circle cx="1130.0" cy="104.0" r="3.5" fill="#6b7280"/></g><g class="lgdl-edge" data-lgdl-loc="edges[0]"><path d="M 170,132 L 170,172" fill="none" stroke="#6b7280" stroke-width="1.5" marker-end="url(#arrowhead)"/><text x="170" y="148" font-family="'Segoe UI', 'PingFang SC', 'Microsoft YaHei', sans-serif" font-size="12" fill="#6b7280" text-anchor="middle" dominant-baseline="middle">埋点日志</text></g><g class="lgdl-edge-anchors"><circle cx="170.0" cy="132.0" r="3.5" fill="#6b7280"/><circle cx="170.0" cy="172.0" r="3.5" fill="#6b7280"/></g><g class="lgdl-edge" data-lgdl-loc="edges[8]"><path d="M 1210,172 L 1210,132" fill="none" stroke="#6b7280" stroke-width="1.5" marker-end="url(#arrowhead)"/><text x="1210" y="148" font-family="'Segoe UI', 'PingFang SC', 'Microsoft YaHei', sans-serif" font-size="12" fill="#6b7280" text-anchor="middle" dominant-baseline="middle">告警推送</text></g><g class="lgdl-edge-anchors"><circle cx="1210.0" cy="172.0" r="3.5" fill="#6b7280"/><circle cx="1210.0" cy="132.0" r="3.5" fill="#6b7280"/></g></svg>