<svg xmlns="http://www.w3.org/2000/svg" width="527" height="1440" viewBox="0 0 527 1440"><defs><marker id="arrowhead" markerWidth="10" markerHeight="7" refX="10" refY="3.5" orient="auto"><polygon points="0 0, 10 3.5, 0 7" fill="#6b7280"/></marker><marker id="arrowhead-purple" markerWidth="10" markerHeight="7" refX="10" refY="3.5" orient="auto"><polygon points="0 0, 10 3.5, 0 7" fill="#7c3aed"/></marker></defs><style>.lgdl-anchors,.lgdl-edge-anchors{opacity:0;pointer-events:none;transition:opacity .12s ease}.lgdl-node:hover + .lgdl-anchors,.lgdl-class:hover + .lgdl-anchors,.lgdl-group:hover + .lgdl-anchors,.lgdl-lane:hover + .lgdl-anchors{opacity:1}.lgdl-edge:hover + .lgdl-edge-anchors,.lgdl-aggregate-edge:hover + .lgdl-edge-anchors{opacity:1}.lgdl-node.lgdl-hovered + .lgdl-anchors,.lgdl-class.lgdl-hovered + .lgdl-anchors,.lgdl-group.lgdl-hovered + .lgdl-anchors,.lgdl-lane.lgdl-hovered + .lgdl-anchors{opacity:1}.lgdl-edge.lgdl-hovered + .lgdl-edge-anchors,.lgdl-aggregate-edge.lgdl-hovered + .lgdl-edge-anchors{opacity:1}.lgdl-hovered{filter:drop-shadow(0 0 3px rgba(79,70,229,.65))}</style><rect x="0" y="0" width="527" height="1440" fill="#ffffff"/><g class="lgdl-group" data-lgdl-loc="groups[0]"><rect x="309" y="-38" width="200" height="246" rx="8" fill="#eff6ff" stroke="#d1d5db" stroke-dasharray="6 4"/><text x="321" y="-20" font-family="'Segoe UI', 'PingFang SC', 'Microsoft YaHei', sans-serif" font-size="12" fill="#6b7280" text-anchor="start" dominant-baseline="middle">购物域</text></g><g class="lgdl-anchors"><circle cx="509.0" cy="85.0" r="3" fill="#64748b"/><circle cx="509.0" cy="111.8" r="3" fill="#64748b"/><circle cx="509.0" cy="142.7" r="3" fill="#64748b"/><circle cx="509.0" cy="185.0" r="3" fill="#64748b"/><circle cx="480.0" cy="208.0" r="3" fill="#64748b"/><circle cx="442.0" cy="208.0" r="3" fill="#64748b"/><circle cx="409.0" cy="208.0" r="3" fill="#64748b"/><circle cx="376.0" cy="208.0" r="3" fill="#64748b"/><circle cx="338.0" cy="208.0" r="3" fill="#64748b"/><circle cx="309.0" cy="185.0" r="3" fill="#64748b"/><circle cx="309.0" cy="142.7" r="3" fill="#64748b"/><circle cx="309.0" cy="111.8" r="3" fill="#64748b"/><circle cx="309.0" cy="85.0" r="3" fill="#64748b"/><circle cx="309.0" cy="58.2" r="3" fill="#64748b"/><circle cx="309.0" cy="27.3" r="3" fill="#64748b"/><circle cx="309.0" cy="-15.0" r="3" fill="#64748b"/><circle cx="338.0" cy="-38.0" r="3" fill="#64748b"/><circle cx="376.0" cy="-38.0" r="3" fill="#64748b"/><circle cx="409.0" cy="-38.0" r="3" fill="#64748b"/><circle cx="442.0" cy="-38.0" r="3" fill="#64748b"/><circle cx="480.0" cy="-38.0" r="3" fill="#64748b"/><circle cx="509.0" cy="-15.0" r="3" fill="#64748b"/><circle cx="509.0" cy="27.3" r="3" fill="#64748b"/><circle cx="509.0" cy="58.2" r="3" fill="#64748b"/></g><g class="lgdl-group" data-lgdl-loc="groups[1]"><rect x="155" y="210" width="367" height="990" rx="8" fill="#ecfdf5" stroke="#d1d5db" stroke-dasharray="6 4"/><text x="167" y="228" font-family="'Segoe UI', 'PingFang SC', 'Microsoft YaHei', sans-serif" font-size="12" fill="#6b7280" text-anchor="start" dominant-baseline="middle">交易域</text></g><g class="lgdl-anchors"><circle cx="522.0" cy="705.0" r="3" fill="#64748b"/><circle cx="522.0" cy="754.2" r="3" fill="#64748b"/><circle cx="522.0" cy="810.9" r="3" fill="#64748b"/><circle cx="522.0" cy="888.5" r="3" fill="#64748b"/><circle cx="522.0" cy="1022.8" r="3" fill="#64748b"/><circle cx="471.1" cy="1200.0" r="3" fill="#64748b"/><circle cx="338.5" cy="1200.0" r="3" fill="#64748b"/><circle cx="205.9" cy="1200.0" r="3" fill="#64748b"/><circle cx="155.0" cy="1022.8" r="3" fill="#64748b"/><circle cx="155.0" cy="888.5" r="3" fill="#64748b"/><circle cx="155.0" cy="810.9" r="3" fill="#64748b"/><circle cx="155.0" cy="754.2" r="3" fill="#64748b"/><circle cx="155.0" cy="705.0" r="3" fill="#64748b"/><circle cx="155.0" cy="655.8" r="3" fill="#64748b"/><circle cx="155.0" cy="599.1" r="3" fill="#64748b"/><circle cx="155.0" cy="521.5" r="3" fill="#64748b"/><circle cx="155.0" cy="387.2" r="3" fill="#64748b"/><circle cx="205.9" cy="210.0" r="3" fill="#64748b"/><circle cx="338.5" cy="210.0" r="3" fill="#64748b"/><circle cx="471.1" cy="210.0" r="3" fill="#64748b"/><circle cx="522.0" cy="387.2" r="3" fill="#64748b"/><circle cx="522.0" cy="521.5" r="3" fill="#64748b"/><circle cx="522.0" cy="599.1" r="3" fill="#64748b"/><circle cx="522.0" cy="655.8" r="3" fill="#64748b"/></g><g class="lgdl-group" data-lgdl-loc="groups[2]"><rect x="219" y="1202" width="200" height="246" rx="8" fill="#fffbeb" stroke="#d1d5db" stroke-dasharray="6 4"/><text x="231" y="1220" font-family="'Segoe UI', 'PingFang SC', 'Microsoft YaHei', sans-serif" font-size="12" fill="#6b7280" text-anchor="start" dominant-baseline="middle">履约域</text></g><g class="lgdl-anchors"><circle cx="419.0" cy="1325.0" r="3" fill="#64748b"/><circle cx="419.0" cy="1351.8" r="3" fill="#64748b"/><circle cx="419.0" cy="1382.7" r="3" fill="#64748b"/><circle cx="419.0" cy="1425.0" r="3" fill="#64748b"/><circle cx="390.0" cy="1448.0" r="3" fill="#64748b"/><circle cx="352.0" cy="1448.0" r="3" fill="#64748b"/><circle cx="319.0" cy="1448.0" r="3" fill="#64748b"/><circle cx="286.0" cy="1448.0" r="3" fill="#64748b"/><circle cx="248.0" cy="1448.0" r="3" fill="#64748b"/><circle cx="219.0" cy="1425.0" r="3" fill="#64748b"/><circle cx="219.0" cy="1382.7" r="3" fill="#64748b"/><circle cx="219.0" cy="1351.8" r="3" fill="#64748b"/><circle cx="219.0" cy="1325.0" r="3" fill="#64748b"/><circle cx="219.0" cy="1298.2" r="3" fill="#64748b"/><circle cx="219.0" cy="1267.3" r="3" fill="#64748b"/><circle cx="219.0" cy="1225.0" r="3" fill="#64748b"/><circle cx="248.0" cy="1202.0" r="3" fill="#64748b"/><circle cx="286.0" cy="1202.0" r="3" fill="#64748b"/><circle cx="319.0" cy="1202.0" r="3" fill="#64748b"/><circle cx="352.0" cy="1202.0" r="3" fill="#64748b"/><circle cx="390.0" cy="1202.0" r="3" fill="#64748b"/><circle cx="419.0" cy="1225.0" r="3" fill="#64748b"/><circle cx="419.0" cy="1267.3" r="3" fill="#64748b"/><circle cx="419.0" cy="1298.2" r="3" fill="#64748b"/></g><g class="lgdl-group" data-lgdl-loc="groups[3]"><rect x="19" y="1202" width="160" height="118" rx="8" fill="#faf5ff" stroke="#d1d5db" stroke-dasharray="6 4"/><text x="31" y="1220" font-family="'Segoe UI', 'PingFang SC', 'Microsoft YaHei', sans-serif" font-size="12" fill="#6b7280" text-anchor="start" dominant-baseline="middle">售后域</text></g><g class="lgdl-anchors"><circle cx="179.0" cy="1261.0" r="3" fill="#64748b"/><circle cx="179.0" cy="1282.4" r="3" fill="#64748b"/><circle cx="179.0" cy="1307.2" r="3" fill="#64748b"/><circle cx="158.0" cy="1320.0" r="3" fill="#64748b"/><circle cx="133.1" cy="1320.0" r="3" fill="#64748b"/><circle cx="114.8" cy="1320.0" r="3" fill="#64748b"/><circle cx="99.0" cy="1320.0" r="3" fill="#64748b"/><circle cx="83.2" cy="1320.0" r="3" fill="#64748b"/><circle cx="64.9" cy="1320.0" r="3" fill="#64748b"/><circle cx="40.0" cy="1320.0" r="3" fill="#64748b"/><circle cx="19.0" cy="1307.2" r="3" fill="#64748b"/><circle cx="19.0" cy="1282.4" r="3" fill="#64748b"/><circle cx="19.0" cy="1261.0" r="3" fill="#64748b"/><circle cx="19.0" cy="1239.6" r="3" fill="#64748b"/><circle cx="19.0" cy="1214.8" r="3" fill="#64748b"/><circle cx="40.0" cy="1202.0" r="3" fill="#64748b"/><circle cx="64.9" cy="1202.0" r="3" fill="#64748b"/><circle cx="83.2" cy="1202.0" r="3" fill="#64748b"/><circle cx="99.0" cy="1202.0" r="3" fill="#64748b"/><circle cx="114.8" cy="1202.0" r="3" fill="#64748b"/><circle cx="133.1" cy="1202.0" r="3" fill="#64748b"/><circle cx="158.0" cy="1202.0" r="3" fill="#64748b"/><circle cx="179.0" cy="1214.8" r="3" fill="#64748b"/><circle cx="179.0" cy="1239.6" r="3" fill="#64748b"/></g><g class="lgdl-node" data-lgdl-loc="nodes[0]"><rect x="349" y="12" width="120" height="48" rx="60" ry="60" fill="#dbeafe" stroke="#3b82f6" stroke-width="1.5"/><text x="409" y="36" font-family="'Segoe UI', 'PingFang SC', 'Microsoft YaHei', sans-serif" font-size="13" fill="#1f2937" text-anchor="middle" dominant-baseline="middle">浏览商品</text></g><g class="lgdl-anchors"><circle cx="469.0" cy="36.0" r="3" fill="#3b82f6"/><circle cx="458.8" cy="49.4" r="3" fill="#3b82f6"/><circle cx="443.2" cy="55.7" r="3" fill="#3b82f6"/><circle cx="431.3" cy="58.3" r="3" fill="#3b82f6"/><circle cx="422.5" cy="59.4" r="3" fill="#3b82f6"/><circle cx="415.4" cy="59.9" r="3" fill="#3b82f6"/><circle cx="409.0" cy="60.0" r="3" fill="#3b82f6"/><circle cx="402.6" cy="59.9" r="3" fill="#3b82f6"/><circle cx="395.5" cy="59.4" r="3" fill="#3b82f6"/><circle cx="386.7" cy="58.3" r="3" fill="#3b82f6"/><circle cx="374.8" cy="55.7" r="3" fill="#3b82f6"/><circle cx="359.2" cy="49.4" r="3" fill="#3b82f6"/><circle cx="349.0" cy="36.0" r="3" fill="#3b82f6"/><circle cx="359.2" cy="22.6" r="3" fill="#3b82f6"/><circle cx="374.8" cy="16.3" r="3" fill="#3b82f6"/><circle cx="386.7" cy="13.7" r="3" fill="#3b82f6"/><circle cx="395.5" cy="12.6" r="3" fill="#3b82f6"/><circle cx="402.6" cy="12.1" r="3" fill="#3b82f6"/><circle cx="409.0" cy="12.0" r="3" fill="#3b82f6"/><circle cx="415.4" cy="12.1" r="3" fill="#3b82f6"/><circle cx="422.5" cy="12.6" r="3" fill="#3b82f6"/><circle cx="431.3" cy="13.7" r="3" fill="#3b82f6"/><circle cx="443.2" cy="16.3" r="3" fill="#3b82f6"/><circle cx="458.8" cy="22.6" r="3" fill="#3b82f6"/></g><g class="lgdl-node" data-lgdl-loc="nodes[1]"><rect x="329" y="132" width="160" height="56" rx="6" ry="6" fill="#ffffff" stroke="#6b7280" stroke-width="1.5"/><text x="409" y="160" font-family="'Segoe UI', 'PingFang SC', 'Microsoft YaHei', sans-serif" font-size="13" fill="#1f2937" text-anchor="middle" dominant-baseline="middle">加入购物车</text></g><g class="lgdl-anchors"><circle cx="489.0" cy="160.0" r="3" fill="#6b7280"/><circle cx="489.0" cy="181.4" r="3" fill="#6b7280"/><circle cx="457.5" cy="188.0" r="3" fill="#6b7280"/><circle cx="437.0" cy="188.0" r="3" fill="#6b7280"/><circle cx="425.2" cy="188.0" r="3" fill="#6b7280"/><circle cx="416.5" cy="188.0" r="3" fill="#6b7280"/><circle cx="409.0" cy="188.0" r="3" fill="#6b7280"/><circle cx="401.5" cy="188.0" r="3" fill="#6b7280"/><circle cx="392.8" cy="188.0" r="3" fill="#6b7280"/><circle cx="381.0" cy="188.0" r="3" fill="#6b7280"/><circle cx="360.5" cy="188.0" r="3" fill="#6b7280"/><circle cx="329.0" cy="181.4" r="3" fill="#6b7280"/><circle cx="329.0" cy="160.0" r="3" fill="#6b7280"/><circle cx="329.0" cy="138.6" r="3" fill="#6b7280"/><circle cx="360.5" cy="132.0" r="3" fill="#6b7280"/><circle cx="381.0" cy="132.0" r="3" fill="#6b7280"/><circle cx="392.8" cy="132.0" r="3" fill="#6b7280"/><circle cx="401.5" cy="132.0" r="3" fill="#6b7280"/><circle cx="409.0" cy="132.0" r="3" fill="#6b7280"/><circle cx="416.5" cy="132.0" r="3" fill="#6b7280"/><circle cx="425.2" cy="132.0" r="3" fill="#6b7280"/><circle cx="437.0" cy="132.0" r="3" fill="#6b7280"/><circle cx="457.5" cy="132.0" r="3" fill="#6b7280"/><circle cx="489.0" cy="138.6" r="3" fill="#6b7280"/></g><g class="lgdl-node" data-lgdl-loc="nodes[2]"><rect x="329" y="260" width="160" height="56" rx="6" ry="6" fill="#ffffff" stroke="#6b7280" stroke-width="1.5"/><text x="409" y="288" font-family="'Segoe UI', 'PingFang SC', 'Microsoft YaHei', sans-serif" font-size="13" fill="#1f2937" text-anchor="middle" dominant-baseline="middle">提交订单</text></g><g class="lgdl-anchors"><circle cx="489.0" cy="288.0" r="3" fill="#6b7280"/><circle cx="489.0" cy="309.4" r="3" fill="#6b7280"/><circle cx="457.5" cy="316.0" r="3" fill="#6b7280"/><circle cx="437.0" cy="316.0" r="3" fill="#6b7280"/><circle cx="425.2" cy="316.0" r="3" fill="#6b7280"/><circle cx="416.5" cy="316.0" r="3" fill="#6b7280"/><circle cx="409.0" cy="316.0" r="3" fill="#6b7280"/><circle cx="401.5" cy="316.0" r="3" fill="#6b7280"/><circle cx="392.8" cy="316.0" r="3" fill="#6b7280"/><circle cx="381.0" cy="316.0" r="3" fill="#6b7280"/><circle cx="360.5" cy="316.0" r="3" fill="#6b7280"/><circle cx="329.0" cy="309.4" r="3" fill="#6b7280"/><circle cx="329.0" cy="288.0" r="3" fill="#6b7280"/><circle cx="329.0" cy="266.6" r="3" fill="#6b7280"/><circle cx="360.5" cy="260.0" r="3" fill="#6b7280"/><circle cx="381.0" cy="260.0" r="3" fill="#6b7280"/><circle cx="392.8" cy="260.0" r="3" fill="#6b7280"/><circle cx="401.5" cy="260.0" r="3" fill="#6b7280"/><circle cx="409.0" cy="260.0" r="3" fill="#6b7280"/><circle cx="416.5" cy="260.0" r="3" fill="#6b7280"/><circle cx="425.2" cy="260.0" r="3" fill="#6b7280"/><circle cx="437.0" cy="260.0" r="3" fill="#6b7280"/><circle cx="457.5" cy="260.0" r="3" fill="#6b7280"/><circle cx="489.0" cy="266.6" r="3" fill="#6b7280"/></g><g class="lgdl-node" data-lgdl-loc="nodes[3]"><polygon points="409,388 479,428 409,468 339,428" fill="#fef3c7" stroke="#f59e0b" stroke-width="1.5"/><text x="409" y="428" font-family="'Segoe UI', 'PingFang SC', 'Microsoft YaHei', sans-serif" font-size="13" fill="#1f2937" text-anchor="middle" dominant-baseline="middle">订单校验</text></g><g class="lgdl-anchors"><circle cx="479.0" cy="428.0" r="3" fill="#f59e0b"/><circle cx="456.7" cy="440.8" r="3" fill="#f59e0b"/><circle cx="443.8" cy="448.1" r="3" fill="#f59e0b"/><circle cx="434.5" cy="453.5" r="3" fill="#f59e0b"/><circle cx="426.4" cy="458.1" r="3" fill="#f59e0b"/><circle cx="418.3" cy="462.7" r="3" fill="#f59e0b"/><circle cx="409.0" cy="468.0" r="3" fill="#f59e0b"/><circle cx="399.7" cy="462.7" r="3" fill="#f59e0b"/><circle cx="391.6" cy="458.1" r="3" fill="#f59e0b"/><circle cx="383.5" cy="453.5" r="3" fill="#f59e0b"/><circle cx="374.2" cy="448.1" r="3" fill="#f59e0b"/><circle cx="361.3" cy="440.8" r="3" fill="#f59e0b"/><circle cx="339.0" cy="428.0" r="3" fill="#f59e0b"/><circle cx="361.3" cy="415.2" r="3" fill="#f59e0b"/><circle cx="374.2" cy="407.9" r="3" fill="#f59e0b"/><circle cx="383.5" cy="402.5" r="3" fill="#f59e0b"/><circle cx="391.6" cy="397.9" r="3" fill="#f59e0b"/><circle cx="399.7" cy="393.3" r="3" fill="#f59e0b"/><circle cx="409.0" cy="388.0" r="3" fill="#f59e0b"/><circle cx="418.3" cy="393.3" r="3" fill="#f59e0b"/><circle cx="426.4" cy="397.9" r="3" fill="#f59e0b"/><circle cx="434.5" cy="402.5" r="3" fill="#f59e0b"/><circle cx="443.8" cy="407.9" r="3" fill="#f59e0b"/><circle cx="456.7" cy="415.2" r="3" fill="#f59e0b"/></g><g class="lgdl-node" data-lgdl-loc="nodes[4]"><polygon points="432,540 502,580 432,620 362,580" fill="#fef3c7" stroke="#f59e0b" stroke-width="1.5"/><text x="432" y="580" font-family="'Segoe UI', 'PingFang SC', 'Microsoft YaHei', sans-serif" font-size="13" fill="#1f2937" text-anchor="middle" dominant-baseline="middle">锁定库存</text></g><g class="lgdl-anchors"><circle cx="502.0" cy="580.0" r="3" fill="#f59e0b"/><circle cx="479.7" cy="592.8" r="3" fill="#f59e0b"/><circle cx="466.8" cy="600.1" r="3" fill="#f59e0b"/><circle cx="457.5" cy="605.5" r="3" fill="#f59e0b"/><circle cx="449.4" cy="610.1" r="3" fill="#f59e0b"/><circle cx="441.3" cy="614.7" r="3" fill="#f59e0b"/><circle cx="432.0" cy="620.0" r="3" fill="#f59e0b"/><circle cx="422.7" cy="614.7" r="3" fill="#f59e0b"/><circle cx="414.6" cy="610.1" r="3" fill="#f59e0b"/><circle cx="406.5" cy="605.5" r="3" fill="#f59e0b"/><circle cx="397.2" cy="600.1" r="3" fill="#f59e0b"/><circle cx="384.3" cy="592.8" r="3" fill="#f59e0b"/><circle cx="362.0" cy="580.0" r="3" fill="#f59e0b"/><circle cx="384.3" cy="567.2" r="3" fill="#f59e0b"/><circle cx="397.2" cy="559.9" r="3" fill="#f59e0b"/><circle cx="406.5" cy="554.5" r="3" fill="#f59e0b"/><circle cx="414.6" cy="549.9" r="3" fill="#f59e0b"/><circle cx="422.7" cy="545.3" r="3" fill="#f59e0b"/><circle cx="432.0" cy="540.0" r="3" fill="#f59e0b"/><circle cx="441.3" cy="545.3" r="3" fill="#f59e0b"/><circle cx="449.4" cy="549.9" r="3" fill="#f59e0b"/><circle cx="457.5" cy="554.5" r="3" fill="#f59e0b"/><circle cx="466.8" cy="559.9" r="3" fill="#f59e0b"/><circle cx="479.7" cy="567.2" r="3" fill="#f59e0b"/></g><g class="lgdl-node" data-lgdl-loc="nodes[5]"><polygon points="245,692 315,732 245,772 175,732" fill="#fef3c7" stroke="#f59e0b" stroke-width="1.5"/><text x="245" y="732" font-family="'Segoe UI', 'PingFang SC', 'Microsoft YaHei', sans-serif" font-size="13" fill="#1f2937" text-anchor="middle" dominant-baseline="middle">收银台支付</text></g><g class="lgdl-anchors"><circle cx="315.0" cy="732.0" r="3" fill="#f59e0b"/><circle cx="292.7" cy="744.8" r="3" fill="#f59e0b"/><circle cx="279.8" cy="752.1" r="3" fill="#f59e0b"/><circle cx="270.5" cy="757.5" r="3" fill="#f59e0b"/><circle cx="262.4" cy="762.1" r="3" fill="#f59e0b"/><circle cx="254.3" cy="766.7" r="3" fill="#f59e0b"/><circle cx="245.0" cy="772.0" r="3" fill="#f59e0b"/><circle cx="235.7" cy="766.7" r="3" fill="#f59e0b"/><circle cx="227.6" cy="762.1" r="3" fill="#f59e0b"/><circle cx="219.5" cy="757.5" r="3" fill="#f59e0b"/><circle cx="210.2" cy="752.1" r="3" fill="#f59e0b"/><circle cx="197.3" cy="744.8" r="3" fill="#f59e0b"/><circle cx="175.0" cy="732.0" r="3" fill="#f59e0b"/><circle cx="197.3" cy="719.2" r="3" fill="#f59e0b"/><circle cx="210.2" cy="711.9" r="3" fill="#f59e0b"/><circle cx="219.5" cy="706.5" r="3" fill="#f59e0b"/><circle cx="227.6" cy="701.9" r="3" fill="#f59e0b"/><circle cx="235.7" cy="697.3" r="3" fill="#f59e0b"/><circle cx="245.0" cy="692.0" r="3" fill="#f59e0b"/><circle cx="254.3" cy="697.3" r="3" fill="#f59e0b"/><circle cx="262.4" cy="701.9" r="3" fill="#f59e0b"/><circle cx="270.5" cy="706.5" r="3" fill="#f59e0b"/><circle cx="279.8" cy="711.9" r="3" fill="#f59e0b"/><circle cx="292.7" cy="719.2" r="3" fill="#f59e0b"/></g><g class="lgdl-node" data-lgdl-loc="nodes[6]"><polygon points="269,844 339,884 269,924 199,884" fill="#fef3c7" stroke="#f59e0b" stroke-width="1.5"/><text x="269" y="884" font-family="'Segoe UI', 'PingFang SC', 'Microsoft YaHei', sans-serif" font-size="13" fill="#1f2937" text-anchor="middle" dominant-baseline="middle">风控审核</text></g><g class="lgdl-anchors"><circle cx="339.0" cy="884.0" r="3" fill="#f59e0b"/><circle cx="316.7" cy="896.8" r="3" fill="#f59e0b"/><circle cx="303.8" cy="904.1" r="3" fill="#f59e0b"/><circle cx="294.5" cy="909.5" r="3" fill="#f59e0b"/><circle cx="286.4" cy="914.1" r="3" fill="#f59e0b"/><circle cx="278.3" cy="918.7" r="3" fill="#f59e0b"/><circle cx="269.0" cy="924.0" r="3" fill="#f59e0b"/><circle cx="259.7" cy="918.7" r="3" fill="#f59e0b"/><circle cx="251.6" cy="914.1" r="3" fill="#f59e0b"/><circle cx="243.5" cy="909.5" r="3" fill="#f59e0b"/><circle cx="234.2" cy="904.1" r="3" fill="#f59e0b"/><circle cx="221.3" cy="896.8" r="3" fill="#f59e0b"/><circle cx="199.0" cy="884.0" r="3" fill="#f59e0b"/><circle cx="221.3" cy="871.2" r="3" fill="#f59e0b"/><circle cx="234.2" cy="863.9" r="3" fill="#f59e0b"/><circle cx="243.5" cy="858.5" r="3" fill="#f59e0b"/><circle cx="251.6" cy="853.9" r="3" fill="#f59e0b"/><circle cx="259.7" cy="849.3" r="3" fill="#f59e0b"/><circle cx="269.0" cy="844.0" r="3" fill="#f59e0b"/><circle cx="278.3" cy="849.3" r="3" fill="#f59e0b"/><circle cx="286.4" cy="853.9" r="3" fill="#f59e0b"/><circle cx="294.5" cy="858.5" r="3" fill="#f59e0b"/><circle cx="303.8" cy="863.9" r="3" fill="#f59e0b"/><circle cx="316.7" cy="871.2" r="3" fill="#f59e0b"/></g><g class="lgdl-node" data-lgdl-loc="nodes[7]"><rect x="212" y="996" width="160" height="56" rx="6" ry="6" fill="#ffffff" stroke="#6b7280" stroke-width="1.5"/><text x="292" y="1024" font-family="'Segoe UI', 'PingFang SC', 'Microsoft YaHei', sans-serif" font-size="13" fill="#1f2937" text-anchor="middle" dominant-baseline="middle">支付成功</text></g><g class="lgdl-anchors"><circle cx="372.0" cy="1024.0" r="3" fill="#6b7280"/><circle cx="372.0" cy="1045.4" r="3" fill="#6b7280"/><circle cx="340.5" cy="1052.0" r="3" fill="#6b7280"/><circle cx="320.0" cy="1052.0" r="3" fill="#6b7280"/><circle cx="308.2" cy="1052.0" r="3" fill="#6b7280"/><circle cx="299.5" cy="1052.0" r="3" fill="#6b7280"/><circle cx="292.0" cy="1052.0" r="3" fill="#6b7280"/><circle cx="284.5" cy="1052.0" r="3" fill="#6b7280"/><circle cx="275.8" cy="1052.0" r="3" fill="#6b7280"/><circle cx="264.0" cy="1052.0" r="3" fill="#6b7280"/><circle cx="243.5" cy="1052.0" r="3" fill="#6b7280"/><circle cx="212.0" cy="1045.4" r="3" fill="#6b7280"/><circle cx="212.0" cy="1024.0" r="3" fill="#6b7280"/><circle cx="212.0" cy="1002.6" r="3" fill="#6b7280"/><circle cx="243.5" cy="996.0" r="3" fill="#6b7280"/><circle cx="264.0" cy="996.0" r="3" fill="#6b7280"/><circle cx="275.8" cy="996.0" r="3" fill="#6b7280"/><circle cx="284.5" cy="996.0" r="3" fill="#6b7280"/><circle cx="292.0" cy="996.0" r="3" fill="#6b7280"/><circle cx="299.5" cy="996.0" r="3" fill="#6b7280"/><circle cx="308.2" cy="996.0" r="3" fill="#6b7280"/><circle cx="320.0" cy="996.0" r="3" fill="#6b7280"/><circle cx="340.5" cy="996.0" r="3" fill="#6b7280"/><circle cx="372.0" cy="1002.6" r="3" fill="#6b7280"/></g><g class="lgdl-node" data-lgdl-loc="nodes[8]"><rect x="212" y="1124" width="160" height="56" rx="6" ry="6" fill="#ffffff" stroke="#6b7280" stroke-width="1.5"/><text x="292" y="1152" font-family="'Segoe UI', 'PingFang SC', 'Microsoft YaHei', sans-serif" font-size="13" fill="#1f2937" text-anchor="middle" dominant-baseline="middle">扣减库存</text></g><g class="lgdl-anchors"><circle cx="372.0" cy="1152.0" r="3" fill="#6b7280"/><circle cx="372.0" cy="1173.4" r="3" fill="#6b7280"/><circle cx="340.5" cy="1180.0" r="3" fill="#6b7280"/><circle cx="320.0" cy="1180.0" r="3" fill="#6b7280"/><circle cx="308.2" cy="1180.0" r="3" fill="#6b7280"/><circle cx="299.5" cy="1180.0" r="3" fill="#6b7280"/><circle cx="292.0" cy="1180.0" r="3" fill="#6b7280"/><circle cx="284.5" cy="1180.0" r="3" fill="#6b7280"/><circle cx="275.8" cy="1180.0" r="3" fill="#6b7280"/><circle cx="264.0" cy="1180.0" r="3" fill="#6b7280"/><circle cx="243.5" cy="1180.0" r="3" fill="#6b7280"/><circle cx="212.0" cy="1173.4" r="3" fill="#6b7280"/><circle cx="212.0" cy="1152.0" r="3" fill="#6b7280"/><circle cx="212.0" cy="1130.6" r="3" fill="#6b7280"/><circle cx="243.5" cy="1124.0" r="3" fill="#6b7280"/><circle cx="264.0" cy="1124.0" r="3" fill="#6b7280"/><circle cx="275.8" cy="1124.0" r="3" fill="#6b7280"/><circle cx="284.5" cy="1124.0" r="3" fill="#6b7280"/><circle cx="292.0" cy="1124.0" r="3" fill="#6b7280"/><circle cx="299.5" cy="1124.0" r="3" fill="#6b7280"/><circle cx="308.2" cy="1124.0" r="3" fill="#6b7280"/><circle cx="320.0" cy="1124.0" r="3" fill="#6b7280"/><circle cx="340.5" cy="1124.0" r="3" fill="#6b7280"/><circle cx="372.0" cy="1130.6" r="3" fill="#6b7280"/></g><g class="lgdl-node" data-lgdl-loc="nodes[9]"><rect x="239" y="1252" width="160" height="56" rx="6" ry="6" fill="#ffffff" stroke="#6b7280" stroke-width="1.5"/><text x="319" y="1280" font-family="'Segoe UI', 'PingFang SC', 'Microsoft YaHei', sans-serif" font-size="13" fill="#1f2937" text-anchor="middle" dominant-baseline="middle">创建物流单</text></g><g class="lgdl-anchors"><circle cx="399.0" cy="1280.0" r="3" fill="#6b7280"/><circle cx="399.0" cy="1301.4" r="3" fill="#6b7280"/><circle cx="367.5" cy="1308.0" r="3" fill="#6b7280"/><circle cx="347.0" cy="1308.0" r="3" fill="#6b7280"/><circle cx="335.2" cy="1308.0" r="3" fill="#6b7280"/><circle cx="326.5" cy="1308.0" r="3" fill="#6b7280"/><circle cx="319.0" cy="1308.0" r="3" fill="#6b7280"/><circle cx="311.5" cy="1308.0" r="3" fill="#6b7280"/><circle cx="302.8" cy="1308.0" r="3" fill="#6b7280"/><circle cx="291.0" cy="1308.0" r="3" fill="#6b7280"/><circle cx="270.5" cy="1308.0" r="3" fill="#6b7280"/><circle cx="239.0" cy="1301.4" r="3" fill="#6b7280"/><circle cx="239.0" cy="1280.0" r="3" fill="#6b7280"/><circle cx="239.0" cy="1258.6" r="3" fill="#6b7280"/><circle cx="270.5" cy="1252.0" r="3" fill="#6b7280"/><circle cx="291.0" cy="1252.0" r="3" fill="#6b7280"/><circle cx="302.8" cy="1252.0" r="3" fill="#6b7280"/><circle cx="311.5" cy="1252.0" r="3" fill="#6b7280"/><circle cx="319.0" cy="1252.0" r="3" fill="#6b7280"/><circle cx="326.5" cy="1252.0" r="3" fill="#6b7280"/><circle cx="335.2" cy="1252.0" r="3" fill="#6b7280"/><circle cx="347.0" cy="1252.0" r="3" fill="#6b7280"/><circle cx="367.5" cy="1252.0" r="3" fill="#6b7280"/><circle cx="399.0" cy="1258.6" r="3" fill="#6b7280"/></g><g class="lgdl-node" data-lgdl-loc="nodes[10]"><rect x="259" y="1380" width="120" height="48" rx="60" ry="60" fill="#dcfce7" stroke="#16a34a" stroke-width="1.5"/><text x="319" y="1404" font-family="'Segoe UI', 'PingFang SC', 'Microsoft YaHei', sans-serif" font-size="13" fill="#1f2937" text-anchor="middle" dominant-baseline="middle">订单完成</text></g><g class="lgdl-anchors"><circle cx="379.0" cy="1404.0" r="3" fill="#16a34a"/><circle cx="368.8" cy="1417.4" r="3" fill="#16a34a"/><circle cx="353.2" cy="1423.7" r="3" fill="#16a34a"/><circle cx="341.3" cy="1426.3" r="3" fill="#16a34a"/><circle cx="332.5" cy="1427.4" r="3" fill="#16a34a"/><circle cx="325.4" cy="1427.9" r="3" fill="#16a34a"/><circle cx="319.0" cy="1428.0" r="3" fill="#16a34a"/><circle cx="312.6" cy="1427.9" r="3" fill="#16a34a"/><circle cx="305.5" cy="1427.4" r="3" fill="#16a34a"/><circle cx="296.7" cy="1426.3" r="3" fill="#16a34a"/><circle cx="284.8" cy="1423.7" r="3" fill="#16a34a"/><circle cx="269.2" cy="1417.4" r="3" fill="#16a34a"/><circle cx="259.0" cy="1404.0" r="3" fill="#16a34a"/><circle cx="269.2" cy="1390.6" r="3" fill="#16a34a"/><circle cx="284.8" cy="1384.3" r="3" fill="#16a34a"/><circle cx="296.7" cy="1381.7" r="3" fill="#16a34a"/><circle cx="305.5" cy="1380.6" r="3" fill="#16a34a"/><circle cx="312.6" cy="1380.1" r="3" fill="#16a34a"/><circle cx="319.0" cy="1380.0" r="3" fill="#16a34a"/><circle cx="325.4" cy="1380.1" r="3" fill="#16a34a"/><circle cx="332.5" cy="1380.6" r="3" fill="#16a34a"/><circle cx="341.3" cy="1381.7" r="3" fill="#16a34a"/><circle cx="353.2" cy="1384.3" r="3" fill="#16a34a"/><circle cx="368.8" cy="1390.6" r="3" fill="#16a34a"/></g><g class="lgdl-node" data-lgdl-loc="nodes[11]"><rect x="12" y="996" width="120" height="48" rx="60" ry="60" fill="#dcfce7" stroke="#16a34a" stroke-width="1.5"/><text x="72" y="1020" font-family="'Segoe UI', 'PingFang SC', 'Microsoft YaHei', sans-serif" font-size="13" fill="#1f2937" text-anchor="middle" dominant-baseline="middle">订单取消</text></g><g class="lgdl-anchors"><circle cx="132.0" cy="1020.0" r="3" fill="#16a34a"/><circle cx="121.8" cy="1033.4" r="3" fill="#16a34a"/><circle cx="106.2" cy="1039.7" r="3" fill="#16a34a"/><circle cx="94.3" cy="1042.3" r="3" fill="#16a34a"/><circle cx="85.5" cy="1043.4" r="3" fill="#16a34a"/><circle cx="78.4" cy="1043.9" r="3" fill="#16a34a"/><circle cx="72.0" cy="1044.0" r="3" fill="#16a34a"/><circle cx="65.6" cy="1043.9" r="3" fill="#16a34a"/><circle cx="58.5" cy="1043.4" r="3" fill="#16a34a"/><circle cx="49.7" cy="1042.3" r="3" fill="#16a34a"/><circle cx="37.8" cy="1039.7" r="3" fill="#16a34a"/><circle cx="22.2" cy="1033.4" r="3" fill="#16a34a"/><circle cx="12.0" cy="1020.0" r="3" fill="#16a34a"/><circle cx="22.2" cy="1006.6" r="3" fill="#16a34a"/><circle cx="37.8" cy="1000.3" r="3" fill="#16a34a"/><circle cx="49.7" cy="997.7" r="3" fill="#16a34a"/><circle cx="58.5" cy="996.6" r="3" fill="#16a34a"/><circle cx="65.6" cy="996.1" r="3" fill="#16a34a"/><circle cx="72.0" cy="996.0" r="3" fill="#16a34a"/><circle cx="78.4" cy="996.1" r="3" fill="#16a34a"/><circle cx="85.5" cy="996.6" r="3" fill="#16a34a"/><circle cx="94.3" cy="997.7" r="3" fill="#16a34a"/><circle cx="106.2" cy="1000.3" r="3" fill="#16a34a"/><circle cx="121.8" cy="1006.6" r="3" fill="#16a34a"/></g><g class="lgdl-node" data-lgdl-loc="nodes[12]"><rect x="395" y="692" width="120" height="48" rx="60" ry="60" fill="#dcfce7" stroke="#16a34a" stroke-width="1.5"/><text x="455" y="716" font-family="'Segoe UI', 'PingFang SC', 'Microsoft YaHei', sans-serif" font-size="13" fill="#1f2937" text-anchor="middle" dominant-baseline="middle">库存不足</text></g><g class="lgdl-anchors"><circle cx="515.0" cy="716.0" r="3" fill="#16a34a"/><circle cx="504.8" cy="729.4" r="3" fill="#16a34a"/><circle cx="489.2" cy="735.7" r="3" fill="#16a34a"/><circle cx="477.3" cy="738.3" r="3" fill="#16a34a"/><circle cx="468.5" cy="739.4" r="3" fill="#16a34a"/><circle cx="461.4" cy="739.9" r="3" fill="#16a34a"/><circle cx="455.0" cy="740.0" r="3" fill="#16a34a"/><circle cx="448.6" cy="739.9" r="3" fill="#16a34a"/><circle cx="441.5" cy="739.4" r="3" fill="#16a34a"/><circle cx="432.7" cy="738.3" r="3" fill="#16a34a"/><circle cx="420.8" cy="735.7" r="3" fill="#16a34a"/><circle cx="405.2" cy="729.4" r="3" fill="#16a34a"/><circle cx="395.0" cy="716.0" r="3" fill="#16a34a"/><circle cx="405.2" cy="702.6" r="3" fill="#16a34a"/><circle cx="420.8" cy="696.3" r="3" fill="#16a34a"/><circle cx="432.7" cy="693.7" r="3" fill="#16a34a"/><circle cx="441.5" cy="692.6" r="3" fill="#16a34a"/><circle cx="448.6" cy="692.1" r="3" fill="#16a34a"/><circle cx="455.0" cy="692.0" r="3" fill="#16a34a"/><circle cx="461.4" cy="692.1" r="3" fill="#16a34a"/><circle cx="468.5" cy="692.6" r="3" fill="#16a34a"/><circle cx="477.3" cy="693.7" r="3" fill="#16a34a"/><circle cx="489.2" cy="696.3" r="3" fill="#16a34a"/><circle cx="504.8" cy="702.6" r="3" fill="#16a34a"/></g><g class="lgdl-node" data-lgdl-loc="nodes[13]"><rect x="39" y="1252" width="120" height="48" rx="60" ry="60" fill="#dcfce7" stroke="#16a34a" stroke-width="1.5"/><text x="99" y="1276" font-family="'Segoe UI', 'PingFang SC', 'Microsoft YaHei', sans-serif" font-size="13" fill="#1f2937" text-anchor="middle" dominant-baseline="middle">发起退款</text></g><g class="lgdl-anchors"><circle cx="159.0" cy="1276.0" r="3" fill="#16a34a"/><circle cx="148.8" cy="1289.4" r="3" fill="#16a34a"/><circle cx="133.2" cy="1295.7" r="3" fill="#16a34a"/><circle cx="121.3" cy="1298.3" r="3" fill="#16a34a"/><circle cx="112.5" cy="1299.4" r="3" fill="#16a34a"/><circle cx="105.4" cy="1299.9" r="3" fill="#16a34a"/><circle cx="99.0" cy="1300.0" r="3" fill="#16a34a"/><circle cx="92.6" cy="1299.9" r="3" fill="#16a34a"/><circle cx="85.5" cy="1299.4" r="3" fill="#16a34a"/><circle cx="76.7" cy="1298.3" r="3" fill="#16a34a"/><circle cx="64.8" cy="1295.7" r="3" fill="#16a34a"/><circle cx="49.2" cy="1289.4" r="3" fill="#16a34a"/><circle cx="39.0" cy="1276.0" r="3" fill="#16a34a"/><circle cx="49.2" cy="1262.6" r="3" fill="#16a34a"/><circle cx="64.8" cy="1256.3" r="3" fill="#16a34a"/><circle cx="76.7" cy="1253.7" r="3" fill="#16a34a"/><circle cx="85.5" cy="1252.6" r="3" fill="#16a34a"/><circle cx="92.6" cy="1252.1" r="3" fill="#16a34a"/><circle cx="99.0" cy="1252.0" r="3" fill="#16a34a"/><circle cx="105.4" cy="1252.1" r="3" fill="#16a34a"/><circle cx="112.5" cy="1252.6" r="3" fill="#16a34a"/><circle cx="121.3" cy="1253.7" r="3" fill="#16a34a"/><circle cx="133.2" cy="1256.3" r="3" fill="#16a34a"/><circle cx="148.8" cy="1262.6" r="3" fill="#16a34a"/></g><g class="lgdl-aggregate-edge" data-lgdl-loc="edges[15]"><line x1="338.50000000000006" y1="1200" x2="319" y2="1202" stroke="#7c3aed" stroke-width="2" stroke-dasharray="5 3" marker-end="url(#arrowhead-purple)"/><rect x="302.8" y="1188.5" width="52" height="17" rx="3" fill="#ffffff" opacity="0.9"/><text x="328.75" y="1197" font-family="'Segoe UI', 'PingFang SC', 'Microsoft YaHei', sans-serif" font-size="11" fill="#7c3aed" text-anchor="middle" dominant-baseline="middle">订单推送</text></g><g class="lgdl-edge-anchors"><circle cx="338.5" cy="1200.0" r="3.5" fill="#7c3aed"/><circle cx="319.0" cy="1202.0" r="3.5" fill="#7c3aed"/></g><g class="lgdl-aggregate-edge" data-lgdl-loc="edges[16]"><line x1="219" y1="1298.2050807568878" x2="179" y2="1282.43593539449" stroke="#7c3aed" stroke-width="2" stroke-dasharray="5 3" marker-end="url(#arrowhead-purple)"/><rect x="173.0" y="1277.8" width="52" height="17" rx="3" fill="#ffffff" opacity="0.9"/><text x="199" y="1286.3205080756888" font-family="'Segoe UI', 'PingFang SC', 'Microsoft YaHei', sans-serif" font-size="11" fill="#7c3aed" text-anchor="middle" dominant-baseline="middle">售后入口</text></g><g class="lgdl-edge-anchors"><circle cx="219.0" cy="1298.2" r="3.5" fill="#7c3aed"/><circle cx="179.0" cy="1282.4" r="3.5" fill="#7c3aed"/></g><g class="lgdl-edge" data-lgdl-loc="edges[0]"><path d="M 409,60 L 409,132" fill="none" stroke="#6b7280" stroke-width="1.5" marker-end="url(#arrowhead)"/><text x="409" y="92" font-family="'Segoe UI', 'PingFang SC', 'Microsoft YaHei', sans-serif" font-size="12" fill="#6b7280" text-anchor="middle" dominant-baseline="middle">选择商品</text></g><g class="lgdl-edge-anchors"><circle cx="409.0" cy="60.0" r="3.5" fill="#6b7280"/><circle cx="409.0" cy="132.0" r="3.5" fill="#6b7280"/></g><g class="lgdl-edge" data-lgdl-loc="edges[1]"><path d="M 409,188 L 409,260" fill="none" stroke="#6b7280" stroke-width="1.5" marker-end="url(#arrowhead)"/><text x="409" y="220" font-family="'Segoe UI', 'PingFang SC', 'Microsoft YaHei', sans-serif" font-size="12" fill="#6b7280" text-anchor="middle" dominant-baseline="middle">去结算</text></g><g class="lgdl-edge-anchors"><circle cx="409.0" cy="188.0" r="3.5" fill="#6b7280"/><circle cx="409.0" cy="260.0" r="3.5" fill="#6b7280"/></g><g class="lgdl-edge" data-lgdl-loc="edges[2]"><path d="M 409,316 L 409,388" fill="none" stroke="#6b7280" stroke-width="1.5" marker-end="url(#arrowhead)"/></g><g class="lgdl-edge-anchors"><circle cx="409.0" cy="316.0" r="3.5" fill="#6b7280"/><circle cx="409.0" cy="388.0" r="3.5" fill="#6b7280"/></g><g class="lgdl-edge" data-lgdl-loc="edges[3]"><path d="M 418,463 L 418,540 L 432,540" fill="none" stroke="#6b7280" stroke-width="1.5" marker-end="url(#arrowhead)"/><text x="418.29480461675143" y="497.34434153807103" font-family="'Segoe UI', 'PingFang SC', 'Microsoft YaHei', sans-serif" font-size="12" fill="#6b7280" text-anchor="middle" dominant-baseline="middle">校验通过</text></g><g class="lgdl-edge-anchors"><circle cx="418.3" cy="462.7" r="3.5" fill="#6b7280"/><circle cx="432.0" cy="540.0" r="3.5" fill="#6b7280"/></g><g class="lgdl-edge" data-lgdl-loc="edges[4]"><path d="M 392,458 L 392,478 L 385,478 L 61,478 L 61,934 L 42,934 L 42,996 L 66,996" fill="none" stroke="#6b7280" stroke-width="1.5" marker-end="url(#arrowhead)"/><text x="61" y="702" font-family="'Segoe UI', 'PingFang SC', 'Microsoft YaHei', sans-serif" font-size="12" fill="#6b7280" text-anchor="middle" dominant-baseline="middle">参数异常</text></g><g class="lgdl-edge-anchors"><circle cx="391.6" cy="458.1" r="3.5" fill="#6b7280"/><circle cx="65.6" cy="996.1" r="3.5" fill="#6b7280"/></g><g class="lgdl-edge" data-lgdl-loc="edges[5]"><path d="M 415,610 L 415,630 L 409,630 L 245,630 L 245,692" fill="none" stroke="#6b7280" stroke-width="1.5" marker-end="url(#arrowhead)"/><text x="327" y="626" font-family="'Segoe UI', 'PingFang SC', 'Microsoft YaHei', sans-serif" font-size="12" fill="#6b7280" text-anchor="middle" dominant-baseline="middle">锁定成功</text></g><g class="lgdl-edge-anchors"><circle cx="414.6" cy="610.1" r="3.5" fill="#6b7280"/><circle cx="245.0" cy="692.0" r="3.5" fill="#6b7280"/></g><g class="lgdl-edge" data-lgdl-loc="edges[6]"><path d="M 441,615 L 441,692 L 449,692" fill="none" stroke="#6b7280" stroke-width="1.5" marker-end="url(#arrowhead)"/><text x="441.29480461675143" y="649.4126782349185" font-family="'Segoe UI', 'PingFang SC', 'Microsoft YaHei', sans-serif" font-size="12" fill="#6b7280" text-anchor="middle" dominant-baseline="middle">库存不足</text></g><g class="lgdl-edge-anchors"><circle cx="441.3" cy="614.7" r="3.5" fill="#6b7280"/><circle cx="448.6" cy="692.1" r="3.5" fill="#6b7280"/></g><g class="lgdl-edge" data-lgdl-loc="edges[7]"><path d="M 254,767 L 254,844 L 269,844" fill="none" stroke="#6b7280" stroke-width="1.5" marker-end="url(#arrowhead)"/><text x="254.29480461675143" y="801.344341538071" font-family="'Segoe UI', 'PingFang SC', 'Microsoft YaHei', sans-serif" font-size="12" fill="#6b7280" text-anchor="middle" dominant-baseline="middle">发起支付</text></g><g class="lgdl-edge-anchors"><circle cx="254.3" cy="766.7" r="3.5" fill="#6b7280"/><circle cx="269.0" cy="844.0" r="3.5" fill="#6b7280"/></g><g class="lgdl-edge" data-lgdl-loc="edges[8]"><path d="M 228,762 L 228,782 L 222,782 L 72,782 L 72,996" fill="none" stroke="#6b7280" stroke-width="1.5" marker-end="url(#arrowhead)"/><text x="72" y="885" font-family="'Segoe UI', 'PingFang SC', 'Microsoft YaHei', sans-serif" font-size="12" fill="#6b7280" text-anchor="middle" dominant-baseline="middle">用户放弃</text></g><g class="lgdl-edge-anchors"><circle cx="227.6" cy="762.1" r="3.5" fill="#6b7280"/><circle cx="72.0" cy="996.0" r="3.5" fill="#6b7280"/></g><g class="lgdl-edge" data-lgdl-loc="edges[9]"><path d="M 278,919 L 278,996 L 292,996" fill="none" stroke="#6b7280" stroke-width="1.5" marker-end="url(#arrowhead)"/><text x="278.29480461675143" y="953.344341538071" font-family="'Segoe UI', 'PingFang SC', 'Microsoft YaHei', sans-serif" font-size="12" fill="#6b7280" text-anchor="middle" dominant-baseline="middle">审核通过</text></g><g class="lgdl-edge-anchors"><circle cx="278.3" cy="918.7" r="3.5" fill="#6b7280"/><circle cx="292.0" cy="996.0" r="3.5" fill="#6b7280"/></g><g class="lgdl-edge" data-lgdl-loc="edges[10]"><path d="M 252,914 L 252,934 L 245,934 L 102,934 L 102,996 L 78,996" fill="none" stroke="#6b7280" stroke-width="1.5" marker-end="url(#arrowhead)"/><text x="90.1970795464398" y="978.1366733936949" font-family="'Segoe UI', 'PingFang SC', 'Microsoft YaHei', sans-serif" font-size="12" fill="#6b7280" text-anchor="middle" dominant-baseline="middle">风险拦截</text></g><g class="lgdl-edge-anchors"><circle cx="251.6" cy="914.1" r="3.5" fill="#6b7280"/><circle cx="78.4" cy="996.1" r="3.5" fill="#6b7280"/></g><g class="lgdl-edge" data-lgdl-loc="edges[11]"><path d="M 292,1052 L 292,1124" fill="none" stroke="#6b7280" stroke-width="1.5" marker-end="url(#arrowhead)"/></g><g class="lgdl-edge-anchors"><circle cx="292.0" cy="1052.0" r="3.5" fill="#6b7280"/><circle cx="292.0" cy="1124.0" r="3.5" fill="#6b7280"/></g><g class="lgdl-edge" data-lgdl-loc="edges[12]"><path d="M 300,1180 L 300,1252 L 311,1252" fill="none" stroke="#6b7280" stroke-width="1.5" marker-end="url(#arrowhead)"/><text x="299.5025773880714" y="1212" font-family="'Segoe UI', 'PingFang SC', 'Microsoft YaHei', sans-serif" font-size="12" fill="#6b7280" text-anchor="middle" dominant-baseline="middle">通知履约</text></g><g class="lgdl-edge-anchors"><circle cx="299.5" cy="1180.0" r="3.5" fill="#6b7280"/><circle cx="311.5" cy="1252.0" r="3.5" fill="#6b7280"/></g><g class="lgdl-edge" data-lgdl-loc="edges[13]"><path d="M 319,1308 L 319,1380" fill="none" stroke="#6b7280" stroke-width="1.5" marker-end="url(#arrowhead)"/><text x="319" y="1340" font-family="'Segoe UI', 'PingFang SC', 'Microsoft YaHei', sans-serif" font-size="12" fill="#6b7280" text-anchor="middle" dominant-baseline="middle">确认收货</text></g><g class="lgdl-edge-anchors"><circle cx="319.0" cy="1308.0" r="3.5" fill="#6b7280"/><circle cx="319.0" cy="1380.0" r="3.5" fill="#6b7280"/></g><g class="lgdl-edge" data-lgdl-loc="edges[14]"><path d="M 276,1180 L 276,1190 L 265,1190 L 99,1190 L 99,1252" fill="none" stroke="#6b7280" stroke-width="1.5" marker-end="url(#arrowhead)"/><text x="98.83333333333334" y="1189" font-family="'Segoe UI', 'PingFang SC', 'Microsoft YaHei', sans-serif" font-size="12" fill="#6b7280" text-anchor="middle" dominant-baseline="middle">售后保障</text></g><g class="lgdl-edge-anchors"><circle cx="275.8" cy="1180.0" r="3.5" fill="#6b7280"/><circle cx="99.0" cy="1252.0" r="3.5" fill="#6b7280"/></g></svg>