<svg xmlns="http://www.w3.org/2000/svg" width="745" height="1424" viewBox="0 0 745 1424"><defs><marker id="arrowhead" markerWidth="10" markerHeight="7" refX="10" refY="3.5" orient="auto"><polygon points="0 0, 10 3.5, 0 7" fill="#6b7280"/></marker><marker id="arrowhead-purple" markerWidth="10" markerHeight="7" refX="10" refY="3.5" orient="auto"><polygon points="0 0, 10 3.5, 0 7" fill="#7c3aed"/></marker></defs><style>.lgdl-anchors,.lgdl-edge-anchors{opacity:0;pointer-events:none;transition:opacity .12s ease}.lgdl-node:hover + .lgdl-anchors,.lgdl-class:hover + .lgdl-anchors,.lgdl-group:hover + .lgdl-anchors,.lgdl-lane:hover + .lgdl-anchors{opacity:1}.lgdl-edge:hover + .lgdl-edge-anchors,.lgdl-aggregate-edge:hover + .lgdl-edge-anchors{opacity:1}</style><rect x="0" y="0" width="745" height="1424" fill="#ffffff"/><g class="lgdl-group"><rect x="286" y="26" width="188" height="204" rx="8" fill="#eff6ff" stroke="#d1d5db" stroke-dasharray="6 4"/><text x="298" y="44" font-family="'Segoe UI', 'PingFang SC', 'Microsoft YaHei', sans-serif" font-size="12" fill="#6b7280" text-anchor="start" dominant-baseline="middle">购物域</text></g><g class="lgdl-anchors"><circle cx="474.0" cy="128.0" r="3" fill="#64748b"/><circle cx="474.0" cy="153.2" r="3" fill="#64748b"/><circle cx="474.0" cy="182.3" r="3" fill="#64748b"/><circle cx="474.0" cy="222.0" r="3" fill="#64748b"/><circle cx="438.9" cy="230.0" r="3" fill="#64748b"/><circle cx="407.3" cy="230.0" r="3" fill="#64748b"/><circle cx="380.0" cy="230.0" r="3" fill="#64748b"/><circle cx="352.7" cy="230.0" r="3" fill="#64748b"/><circle cx="321.1" cy="230.0" r="3" fill="#64748b"/><circle cx="286.0" cy="222.0" r="3" fill="#64748b"/><circle cx="286.0" cy="182.3" r="3" fill="#64748b"/><circle cx="286.0" cy="153.2" r="3" fill="#64748b"/><circle cx="286.0" cy="128.0" r="3" fill="#64748b"/><circle cx="286.0" cy="102.8" r="3" fill="#64748b"/><circle cx="286.0" cy="73.7" r="3" fill="#64748b"/><circle cx="286.0" cy="34.0" r="3" fill="#64748b"/><circle cx="321.1" cy="26.0" r="3" fill="#64748b"/><circle cx="352.7" cy="26.0" r="3" fill="#64748b"/><circle cx="380.0" cy="26.0" r="3" fill="#64748b"/><circle cx="407.3" cy="26.0" r="3" fill="#64748b"/><circle cx="438.9" cy="26.0" r="3" fill="#64748b"/><circle cx="474.0" cy="34.0" r="3" fill="#64748b"/><circle cx="474.0" cy="73.7" r="3" fill="#64748b"/><circle cx="474.0" cy="102.8" r="3" fill="#64748b"/></g><g class="lgdl-group"><rect x="166" y="274" width="308" height="828" rx="8" fill="#ecfdf5" stroke="#d1d5db" stroke-dasharray="6 4"/><text x="178" y="292" font-family="'Segoe UI', 'PingFang SC', 'Microsoft YaHei', sans-serif" font-size="12" fill="#6b7280" text-anchor="start" dominant-baseline="middle">交易域</text></g><g class="lgdl-anchors"><circle cx="474.0" cy="688.0" r="3" fill="#64748b"/><circle cx="474.0" cy="729.3" r="3" fill="#64748b"/><circle cx="474.0" cy="776.9" r="3" fill="#64748b"/><circle cx="474.0" cy="842.0" r="3" fill="#64748b"/><circle cx="474.0" cy="954.7" r="3" fill="#64748b"/><circle cx="430.9" cy="1102.0" r="3" fill="#64748b"/><circle cx="320.0" cy="1102.0" r="3" fill="#64748b"/><circle cx="209.1" cy="1102.0" r="3" fill="#64748b"/><circle cx="166.0" cy="954.7" r="3" fill="#64748b"/><circle cx="166.0" cy="842.0" r="3" fill="#64748b"/><circle cx="166.0" cy="776.9" r="3" fill="#64748b"/><circle cx="166.0" cy="729.3" r="3" fill="#64748b"/><circle cx="166.0" cy="688.0" r="3" fill="#64748b"/><circle cx="166.0" cy="646.7" r="3" fill="#64748b"/><circle cx="166.0" cy="599.1" r="3" fill="#64748b"/><circle cx="166.0" cy="534.0" r="3" fill="#64748b"/><circle cx="166.0" cy="421.3" r="3" fill="#64748b"/><circle cx="209.1" cy="274.0" r="3" fill="#64748b"/><circle cx="320.0" cy="274.0" r="3" fill="#64748b"/><circle cx="430.9" cy="274.0" r="3" fill="#64748b"/><circle cx="474.0" cy="421.3" r="3" fill="#64748b"/><circle cx="474.0" cy="534.0" r="3" fill="#64748b"/><circle cx="474.0" cy="599.1" r="3" fill="#64748b"/><circle cx="474.0" cy="646.7" r="3" fill="#64748b"/></g><g class="lgdl-group"><rect x="56" y="1146" width="188" height="228" rx="8" fill="#fffbeb" stroke="#d1d5db" stroke-dasharray="6 4"/><text x="68" y="1164" font-family="'Segoe UI', 'PingFang SC', 'Microsoft YaHei', sans-serif" font-size="12" fill="#6b7280" text-anchor="start" dominant-baseline="middle">履约域</text></g><g class="lgdl-anchors"><circle cx="244.0" cy="1260.0" r="3" fill="#64748b"/><circle cx="244.0" cy="1285.2" r="3" fill="#64748b"/><circle cx="244.0" cy="1314.3" r="3" fill="#64748b"/><circle cx="244.0" cy="1354.0" r="3" fill="#64748b"/><circle cx="215.8" cy="1374.0" r="3" fill="#64748b"/><circle cx="180.5" cy="1374.0" r="3" fill="#64748b"/><circle cx="150.0" cy="1374.0" r="3" fill="#64748b"/><circle cx="119.5" cy="1374.0" r="3" fill="#64748b"/><circle cx="84.2" cy="1374.0" r="3" fill="#64748b"/><circle cx="56.0" cy="1354.0" r="3" fill="#64748b"/><circle cx="56.0" cy="1314.3" r="3" fill="#64748b"/><circle cx="56.0" cy="1285.2" r="3" fill="#64748b"/><circle cx="56.0" cy="1260.0" r="3" fill="#64748b"/><circle cx="56.0" cy="1234.8" r="3" fill="#64748b"/><circle cx="56.0" cy="1205.7" r="3" fill="#64748b"/><circle cx="56.0" cy="1166.0" r="3" fill="#64748b"/><circle cx="84.2" cy="1146.0" r="3" fill="#64748b"/><circle cx="119.5" cy="1146.0" r="3" fill="#64748b"/><circle cx="150.0" cy="1146.0" r="3" fill="#64748b"/><circle cx="180.5" cy="1146.0" r="3" fill="#64748b"/><circle cx="215.8" cy="1146.0" r="3" fill="#64748b"/><circle cx="244.0" cy="1166.0" r="3" fill="#64748b"/><circle cx="244.0" cy="1205.7" r="3" fill="#64748b"/><circle cx="244.0" cy="1234.8" r="3" fill="#64748b"/></g><g class="lgdl-group"><rect x="296" y="1150" width="148" height="100" rx="8" fill="#faf5ff" stroke="#d1d5db" stroke-dasharray="6 4"/><text x="308" y="1168" font-family="'Segoe UI', 'PingFang SC', 'Microsoft YaHei', sans-serif" font-size="12" fill="#6b7280" text-anchor="start" dominant-baseline="middle">售后域</text></g><g class="lgdl-anchors"><circle cx="444.0" cy="1200.0" r="3" fill="#64748b"/><circle cx="444.0" cy="1219.8" r="3" fill="#64748b"/><circle cx="444.0" cy="1242.7" r="3" fill="#64748b"/><circle cx="420.0" cy="1250.0" r="3" fill="#64748b"/><circle cx="398.9" cy="1250.0" r="3" fill="#64748b"/><circle cx="383.4" cy="1250.0" r="3" fill="#64748b"/><circle cx="370.0" cy="1250.0" r="3" fill="#64748b"/><circle cx="356.6" cy="1250.0" r="3" fill="#64748b"/><circle cx="341.1" cy="1250.0" r="3" fill="#64748b"/><circle cx="320.0" cy="1250.0" r="3" fill="#64748b"/><circle cx="296.0" cy="1242.7" r="3" fill="#64748b"/><circle cx="296.0" cy="1219.8" r="3" fill="#64748b"/><circle cx="296.0" cy="1200.0" r="3" fill="#64748b"/><circle cx="296.0" cy="1180.2" r="3" fill="#64748b"/><circle cx="296.0" cy="1157.3" r="3" fill="#64748b"/><circle cx="320.0" cy="1150.0" r="3" fill="#64748b"/><circle cx="341.1" cy="1150.0" r="3" fill="#64748b"/><circle cx="356.6" cy="1150.0" r="3" fill="#64748b"/><circle cx="370.0" cy="1150.0" r="3" fill="#64748b"/><circle cx="383.4" cy="1150.0" r="3" fill="#64748b"/><circle cx="398.9" cy="1150.0" r="3" fill="#64748b"/><circle cx="420.0" cy="1150.0" r="3" fill="#64748b"/><circle cx="444.0" cy="1157.3" r="3" fill="#64748b"/><circle cx="444.0" cy="1180.2" r="3" fill="#64748b"/></g><g class="lgdl-node" fill="#dbeafe" stroke="#3b82f6" stroke-width="1.5"><rect x="320" y="64" width="120" height="48" rx="60" ry="60"/><text x="380" y="88" font-family="'Segoe UI', 'PingFang SC', 'Microsoft YaHei', sans-serif" font-size="13" fill="#1f2937" text-anchor="middle" dominant-baseline="middle">浏览商品</text></g><g class="lgdl-anchors"><circle cx="440.0" cy="88.0" r="3" fill="#3b82f6"/><circle cx="429.8" cy="101.4" r="3" fill="#3b82f6"/><circle cx="414.2" cy="107.7" r="3" fill="#3b82f6"/><circle cx="402.3" cy="110.3" r="3" fill="#3b82f6"/><circle cx="393.5" cy="111.4" r="3" fill="#3b82f6"/><circle cx="386.4" cy="111.9" r="3" fill="#3b82f6"/><circle cx="380.0" cy="112.0" r="3" fill="#3b82f6"/><circle cx="373.6" cy="111.9" r="3" fill="#3b82f6"/><circle cx="366.5" cy="111.4" r="3" fill="#3b82f6"/><circle cx="357.7" cy="110.3" r="3" fill="#3b82f6"/><circle cx="345.8" cy="107.7" r="3" fill="#3b82f6"/><circle cx="330.2" cy="101.4" r="3" fill="#3b82f6"/><circle cx="320.0" cy="88.0" r="3" fill="#3b82f6"/><circle cx="330.2" cy="74.6" r="3" fill="#3b82f6"/><circle cx="345.8" cy="68.3" r="3" fill="#3b82f6"/><circle cx="357.7" cy="65.7" r="3" fill="#3b82f6"/><circle cx="366.5" cy="64.6" r="3" fill="#3b82f6"/><circle cx="373.6" cy="64.1" r="3" fill="#3b82f6"/><circle cx="380.0" cy="64.0" r="3" fill="#3b82f6"/><circle cx="386.4" cy="64.1" r="3" fill="#3b82f6"/><circle cx="393.5" cy="64.6" r="3" fill="#3b82f6"/><circle cx="402.3" cy="65.7" r="3" fill="#3b82f6"/><circle cx="414.2" cy="68.3" r="3" fill="#3b82f6"/><circle cx="429.8" cy="74.6" r="3" fill="#3b82f6"/></g><g class="lgdl-node" fill="#ffffff" stroke="#6b7280" stroke-width="1.5"><rect x="300" y="160" width="160" height="56" rx="6" ry="6"/><text x="380" y="188" font-family="'Segoe UI', 'PingFang SC', 'Microsoft YaHei', sans-serif" font-size="13" fill="#1f2937" text-anchor="middle" dominant-baseline="middle">加入购物车</text></g><g class="lgdl-anchors"><circle cx="460.0" cy="188.0" r="3" fill="#6b7280"/><circle cx="460.0" cy="209.4" r="3" fill="#6b7280"/><circle cx="428.5" cy="216.0" r="3" fill="#6b7280"/><circle cx="408.0" cy="216.0" r="3" fill="#6b7280"/><circle cx="396.2" cy="216.0" r="3" fill="#6b7280"/><circle cx="387.5" cy="216.0" r="3" fill="#6b7280"/><circle cx="380.0" cy="216.0" r="3" fill="#6b7280"/><circle cx="372.5" cy="216.0" r="3" fill="#6b7280"/><circle cx="363.8" cy="216.0" r="3" fill="#6b7280"/><circle cx="352.0" cy="216.0" r="3" fill="#6b7280"/><circle cx="331.5" cy="216.0" r="3" fill="#6b7280"/><circle cx="300.0" cy="209.4" r="3" fill="#6b7280"/><circle cx="300.0" cy="188.0" r="3" fill="#6b7280"/><circle cx="300.0" cy="166.6" r="3" fill="#6b7280"/><circle cx="331.5" cy="160.0" r="3" fill="#6b7280"/><circle cx="352.0" cy="160.0" r="3" fill="#6b7280"/><circle cx="363.8" cy="160.0" r="3" fill="#6b7280"/><circle cx="372.5" cy="160.0" r="3" fill="#6b7280"/><circle cx="380.0" cy="160.0" r="3" fill="#6b7280"/><circle cx="387.5" cy="160.0" r="3" fill="#6b7280"/><circle cx="396.2" cy="160.0" r="3" fill="#6b7280"/><circle cx="408.0" cy="160.0" r="3" fill="#6b7280"/><circle cx="428.5" cy="160.0" r="3" fill="#6b7280"/><circle cx="460.0" cy="166.6" r="3" fill="#6b7280"/></g><g class="lgdl-node" fill="#ffffff" stroke="#6b7280" stroke-width="1.5"><rect x="300" y="312" width="160" height="56" rx="6" ry="6"/><text x="380" y="340" font-family="'Segoe UI', 'PingFang SC', 'Microsoft YaHei', sans-serif" font-size="13" fill="#1f2937" text-anchor="middle" dominant-baseline="middle">提交订单</text></g><g class="lgdl-anchors"><circle cx="460.0" cy="340.0" r="3" fill="#6b7280"/><circle cx="460.0" cy="361.4" r="3" fill="#6b7280"/><circle cx="428.5" cy="368.0" r="3" fill="#6b7280"/><circle cx="408.0" cy="368.0" r="3" fill="#6b7280"/><circle cx="396.2" cy="368.0" r="3" fill="#6b7280"/><circle cx="387.5" cy="368.0" r="3" fill="#6b7280"/><circle cx="380.0" cy="368.0" r="3" fill="#6b7280"/><circle cx="372.5" cy="368.0" r="3" fill="#6b7280"/><circle cx="363.8" cy="368.0" r="3" fill="#6b7280"/><circle cx="352.0" cy="368.0" r="3" fill="#6b7280"/><circle cx="331.5" cy="368.0" r="3" fill="#6b7280"/><circle cx="300.0" cy="361.4" r="3" fill="#6b7280"/><circle cx="300.0" cy="340.0" r="3" fill="#6b7280"/><circle cx="300.0" cy="318.6" r="3" fill="#6b7280"/><circle cx="331.5" cy="312.0" r="3" fill="#6b7280"/><circle cx="352.0" cy="312.0" r="3" fill="#6b7280"/><circle cx="363.8" cy="312.0" r="3" fill="#6b7280"/><circle cx="372.5" cy="312.0" r="3" fill="#6b7280"/><circle cx="380.0" cy="312.0" r="3" fill="#6b7280"/><circle cx="387.5" cy="312.0" r="3" fill="#6b7280"/><circle cx="396.2" cy="312.0" r="3" fill="#6b7280"/><circle cx="408.0" cy="312.0" r="3" fill="#6b7280"/><circle cx="428.5" cy="312.0" r="3" fill="#6b7280"/><circle cx="460.0" cy="318.6" r="3" fill="#6b7280"/></g><g class="lgdl-node" fill="#fef3c7" stroke="#f59e0b" stroke-width="1.5"><polygon points="380,416 450,456 380,496 310,456"/><text x="380" y="456" font-family="'Segoe UI', 'PingFang SC', 'Microsoft YaHei', sans-serif" font-size="13" fill="#1f2937" text-anchor="middle" dominant-baseline="middle">订单校验</text></g><g class="lgdl-anchors"><circle cx="450.0" cy="456.0" r="3" fill="#f59e0b"/><circle cx="427.7" cy="468.8" r="3" fill="#f59e0b"/><circle cx="414.8" cy="476.1" r="3" fill="#f59e0b"/><circle cx="405.5" cy="481.5" r="3" fill="#f59e0b"/><circle cx="397.4" cy="486.1" r="3" fill="#f59e0b"/><circle cx="389.3" cy="490.7" r="3" fill="#f59e0b"/><circle cx="380.0" cy="496.0" r="3" fill="#f59e0b"/><circle cx="370.7" cy="490.7" r="3" fill="#f59e0b"/><circle cx="362.6" cy="486.1" r="3" fill="#f59e0b"/><circle cx="354.5" cy="481.5" r="3" fill="#f59e0b"/><circle cx="345.2" cy="476.1" r="3" fill="#f59e0b"/><circle cx="332.3" cy="468.8" r="3" fill="#f59e0b"/><circle cx="310.0" cy="456.0" r="3" fill="#f59e0b"/><circle cx="332.3" cy="443.2" r="3" fill="#f59e0b"/><circle cx="345.2" cy="435.9" r="3" fill="#f59e0b"/><circle cx="354.5" cy="430.5" r="3" fill="#f59e0b"/><circle cx="362.6" cy="425.9" r="3" fill="#f59e0b"/><circle cx="370.7" cy="421.3" r="3" fill="#f59e0b"/><circle cx="380.0" cy="416.0" r="3" fill="#f59e0b"/><circle cx="389.3" cy="421.3" r="3" fill="#f59e0b"/><circle cx="397.4" cy="425.9" r="3" fill="#f59e0b"/><circle cx="405.5" cy="430.5" r="3" fill="#f59e0b"/><circle cx="414.8" cy="435.9" r="3" fill="#f59e0b"/><circle cx="427.7" cy="443.2" r="3" fill="#f59e0b"/></g><g class="lgdl-node" fill="#fef3c7" stroke="#f59e0b" stroke-width="1.5"><polygon points="330,544 400,584 330,624 260,584"/><text x="330" y="584" font-family="'Segoe UI', 'PingFang SC', 'Microsoft YaHei', sans-serif" font-size="13" fill="#1f2937" text-anchor="middle" dominant-baseline="middle">锁定库存</text></g><g class="lgdl-anchors"><circle cx="400.0" cy="584.0" r="3" fill="#f59e0b"/><circle cx="377.7" cy="596.8" r="3" fill="#f59e0b"/><circle cx="364.8" cy="604.1" r="3" fill="#f59e0b"/><circle cx="355.5" cy="609.5" r="3" fill="#f59e0b"/><circle cx="347.4" cy="614.1" r="3" fill="#f59e0b"/><circle cx="339.3" cy="618.7" r="3" fill="#f59e0b"/><circle cx="330.0" cy="624.0" r="3" fill="#f59e0b"/><circle cx="320.7" cy="618.7" r="3" fill="#f59e0b"/><circle cx="312.6" cy="614.1" r="3" fill="#f59e0b"/><circle cx="304.5" cy="609.5" r="3" fill="#f59e0b"/><circle cx="295.2" cy="604.1" r="3" fill="#f59e0b"/><circle cx="282.3" cy="596.8" r="3" fill="#f59e0b"/><circle cx="260.0" cy="584.0" r="3" fill="#f59e0b"/><circle cx="282.3" cy="571.2" r="3" fill="#f59e0b"/><circle cx="295.2" cy="563.9" r="3" fill="#f59e0b"/><circle cx="304.5" cy="558.5" r="3" fill="#f59e0b"/><circle cx="312.6" cy="553.9" r="3" fill="#f59e0b"/><circle cx="320.7" cy="549.3" r="3" fill="#f59e0b"/><circle cx="330.0" cy="544.0" r="3" fill="#f59e0b"/><circle cx="339.3" cy="549.3" r="3" fill="#f59e0b"/><circle cx="347.4" cy="553.9" r="3" fill="#f59e0b"/><circle cx="355.5" cy="558.5" r="3" fill="#f59e0b"/><circle cx="364.8" cy="563.9" r="3" fill="#f59e0b"/><circle cx="377.7" cy="571.2" r="3" fill="#f59e0b"/></g><g class="lgdl-node" fill="#fef3c7" stroke="#f59e0b" stroke-width="1.5"><polygon points="320,672 390,712 320,752 250,712"/><text x="320" y="712" font-family="'Segoe UI', 'PingFang SC', 'Microsoft YaHei', sans-serif" font-size="13" fill="#1f2937" text-anchor="middle" dominant-baseline="middle">收银台支付</text></g><g class="lgdl-anchors"><circle cx="390.0" cy="712.0" r="3" fill="#f59e0b"/><circle cx="367.7" cy="724.8" r="3" fill="#f59e0b"/><circle cx="354.8" cy="732.1" r="3" fill="#f59e0b"/><circle cx="345.5" cy="737.5" r="3" fill="#f59e0b"/><circle cx="337.4" cy="742.1" r="3" fill="#f59e0b"/><circle cx="329.3" cy="746.7" r="3" fill="#f59e0b"/><circle cx="320.0" cy="752.0" r="3" fill="#f59e0b"/><circle cx="310.7" cy="746.7" r="3" fill="#f59e0b"/><circle cx="302.6" cy="742.1" r="3" fill="#f59e0b"/><circle cx="294.5" cy="737.5" r="3" fill="#f59e0b"/><circle cx="285.2" cy="732.1" r="3" fill="#f59e0b"/><circle cx="272.3" cy="724.8" r="3" fill="#f59e0b"/><circle cx="250.0" cy="712.0" r="3" fill="#f59e0b"/><circle cx="272.3" cy="699.2" r="3" fill="#f59e0b"/><circle cx="285.2" cy="691.9" r="3" fill="#f59e0b"/><circle cx="294.5" cy="686.5" r="3" fill="#f59e0b"/><circle cx="302.6" cy="681.9" r="3" fill="#f59e0b"/><circle cx="310.7" cy="677.3" r="3" fill="#f59e0b"/><circle cx="320.0" cy="672.0" r="3" fill="#f59e0b"/><circle cx="329.3" cy="677.3" r="3" fill="#f59e0b"/><circle cx="337.4" cy="681.9" r="3" fill="#f59e0b"/><circle cx="345.5" cy="686.5" r="3" fill="#f59e0b"/><circle cx="354.8" cy="691.9" r="3" fill="#f59e0b"/><circle cx="367.7" cy="699.2" r="3" fill="#f59e0b"/></g><g class="lgdl-node" fill="#fef3c7" stroke="#f59e0b" stroke-width="1.5"><polygon points="270,800 340,840 270,880 200,840"/><text x="270" y="840" font-family="'Segoe UI', 'PingFang SC', 'Microsoft YaHei', sans-serif" font-size="13" fill="#1f2937" text-anchor="middle" dominant-baseline="middle">风控审核</text></g><g class="lgdl-anchors"><circle cx="340.0" cy="840.0" r="3" fill="#f59e0b"/><circle cx="317.7" cy="852.8" r="3" fill="#f59e0b"/><circle cx="304.8" cy="860.1" r="3" fill="#f59e0b"/><circle cx="295.5" cy="865.5" r="3" fill="#f59e0b"/><circle cx="287.4" cy="870.1" r="3" fill="#f59e0b"/><circle cx="279.3" cy="874.7" r="3" fill="#f59e0b"/><circle cx="270.0" cy="880.0" r="3" fill="#f59e0b"/><circle cx="260.7" cy="874.7" r="3" fill="#f59e0b"/><circle cx="252.6" cy="870.1" r="3" fill="#f59e0b"/><circle cx="244.5" cy="865.5" r="3" fill="#f59e0b"/><circle cx="235.2" cy="860.1" r="3" fill="#f59e0b"/><circle cx="222.3" cy="852.8" r="3" fill="#f59e0b"/><circle cx="200.0" cy="840.0" r="3" fill="#f59e0b"/><circle cx="222.3" cy="827.2" r="3" fill="#f59e0b"/><circle cx="235.2" cy="819.9" r="3" fill="#f59e0b"/><circle cx="244.5" cy="814.5" r="3" fill="#f59e0b"/><circle cx="252.6" cy="809.9" r="3" fill="#f59e0b"/><circle cx="260.7" cy="805.3" r="3" fill="#f59e0b"/><circle cx="270.0" cy="800.0" r="3" fill="#f59e0b"/><circle cx="279.3" cy="805.3" r="3" fill="#f59e0b"/><circle cx="287.4" cy="809.9" r="3" fill="#f59e0b"/><circle cx="295.5" cy="814.5" r="3" fill="#f59e0b"/><circle cx="304.8" cy="819.9" r="3" fill="#f59e0b"/><circle cx="317.7" cy="827.2" r="3" fill="#f59e0b"/></g><g class="lgdl-node" fill="#ffffff" stroke="#6b7280" stroke-width="1.5"><rect x="180" y="928" width="160" height="56" rx="6" ry="6"/><text x="260" y="956" font-family="'Segoe UI', 'PingFang SC', 'Microsoft YaHei', sans-serif" font-size="13" fill="#1f2937" text-anchor="middle" dominant-baseline="middle">支付成功</text></g><g class="lgdl-anchors"><circle cx="340.0" cy="956.0" r="3" fill="#6b7280"/><circle cx="340.0" cy="977.4" r="3" fill="#6b7280"/><circle cx="308.5" cy="984.0" r="3" fill="#6b7280"/><circle cx="288.0" cy="984.0" r="3" fill="#6b7280"/><circle cx="276.2" cy="984.0" r="3" fill="#6b7280"/><circle cx="267.5" cy="984.0" r="3" fill="#6b7280"/><circle cx="260.0" cy="984.0" r="3" fill="#6b7280"/><circle cx="252.5" cy="984.0" r="3" fill="#6b7280"/><circle cx="243.8" cy="984.0" r="3" fill="#6b7280"/><circle cx="232.0" cy="984.0" r="3" fill="#6b7280"/><circle cx="211.5" cy="984.0" r="3" fill="#6b7280"/><circle cx="180.0" cy="977.4" r="3" fill="#6b7280"/><circle cx="180.0" cy="956.0" r="3" fill="#6b7280"/><circle cx="180.0" cy="934.6" r="3" fill="#6b7280"/><circle cx="211.5" cy="928.0" r="3" fill="#6b7280"/><circle cx="232.0" cy="928.0" r="3" fill="#6b7280"/><circle cx="243.8" cy="928.0" r="3" fill="#6b7280"/><circle cx="252.5" cy="928.0" r="3" fill="#6b7280"/><circle cx="260.0" cy="928.0" r="3" fill="#6b7280"/><circle cx="267.5" cy="928.0" r="3" fill="#6b7280"/><circle cx="276.2" cy="928.0" r="3" fill="#6b7280"/><circle cx="288.0" cy="928.0" r="3" fill="#6b7280"/><circle cx="308.5" cy="928.0" r="3" fill="#6b7280"/><circle cx="340.0" cy="934.6" r="3" fill="#6b7280"/></g><g class="lgdl-node" fill="#ffffff" stroke="#6b7280" stroke-width="1.5"><rect x="180" y="1032" width="160" height="56" rx="6" ry="6"/><text x="260" y="1060" font-family="'Segoe UI', 'PingFang SC', 'Microsoft YaHei', sans-serif" font-size="13" fill="#1f2937" text-anchor="middle" dominant-baseline="middle">扣减库存</text></g><g class="lgdl-anchors"><circle cx="340.0" cy="1060.0" r="3" fill="#6b7280"/><circle cx="340.0" cy="1081.4" r="3" fill="#6b7280"/><circle cx="308.5" cy="1088.0" r="3" fill="#6b7280"/><circle cx="288.0" cy="1088.0" r="3" fill="#6b7280"/><circle cx="276.2" cy="1088.0" r="3" fill="#6b7280"/><circle cx="267.5" cy="1088.0" r="3" fill="#6b7280"/><circle cx="260.0" cy="1088.0" r="3" fill="#6b7280"/><circle cx="252.5" cy="1088.0" r="3" fill="#6b7280"/><circle cx="243.8" cy="1088.0" r="3" fill="#6b7280"/><circle cx="232.0" cy="1088.0" r="3" fill="#6b7280"/><circle cx="211.5" cy="1088.0" r="3" fill="#6b7280"/><circle cx="180.0" cy="1081.4" r="3" fill="#6b7280"/><circle cx="180.0" cy="1060.0" r="3" fill="#6b7280"/><circle cx="180.0" cy="1038.6" r="3" fill="#6b7280"/><circle cx="211.5" cy="1032.0" r="3" fill="#6b7280"/><circle cx="232.0" cy="1032.0" r="3" fill="#6b7280"/><circle cx="243.8" cy="1032.0" r="3" fill="#6b7280"/><circle cx="252.5" cy="1032.0" r="3" fill="#6b7280"/><circle cx="260.0" cy="1032.0" r="3" fill="#6b7280"/><circle cx="267.5" cy="1032.0" r="3" fill="#6b7280"/><circle cx="276.2" cy="1032.0" r="3" fill="#6b7280"/><circle cx="288.0" cy="1032.0" r="3" fill="#6b7280"/><circle cx="308.5" cy="1032.0" r="3" fill="#6b7280"/><circle cx="340.0" cy="1038.6" r="3" fill="#6b7280"/></g><g class="lgdl-node" fill="#ffffff" stroke="#6b7280" stroke-width="1.5"><rect x="70" y="1184" width="160" height="56" rx="6" ry="6"/><text x="150" y="1212" font-family="'Segoe UI', 'PingFang SC', 'Microsoft YaHei', sans-serif" font-size="13" fill="#1f2937" text-anchor="middle" dominant-baseline="middle">创建物流单</text></g><g class="lgdl-anchors"><circle cx="230.0" cy="1212.0" r="3" fill="#6b7280"/><circle cx="230.0" cy="1233.4" r="3" fill="#6b7280"/><circle cx="198.5" cy="1240.0" r="3" fill="#6b7280"/><circle cx="178.0" cy="1240.0" r="3" fill="#6b7280"/><circle cx="166.2" cy="1240.0" r="3" fill="#6b7280"/><circle cx="157.5" cy="1240.0" r="3" fill="#6b7280"/><circle cx="150.0" cy="1240.0" r="3" fill="#6b7280"/><circle cx="142.5" cy="1240.0" r="3" fill="#6b7280"/><circle cx="133.8" cy="1240.0" r="3" fill="#6b7280"/><circle cx="122.0" cy="1240.0" r="3" fill="#6b7280"/><circle cx="101.5" cy="1240.0" r="3" fill="#6b7280"/><circle cx="70.0" cy="1233.4" r="3" fill="#6b7280"/><circle cx="70.0" cy="1212.0" r="3" fill="#6b7280"/><circle cx="70.0" cy="1190.6" r="3" fill="#6b7280"/><circle cx="101.5" cy="1184.0" r="3" fill="#6b7280"/><circle cx="122.0" cy="1184.0" r="3" fill="#6b7280"/><circle cx="133.8" cy="1184.0" r="3" fill="#6b7280"/><circle cx="142.5" cy="1184.0" r="3" fill="#6b7280"/><circle cx="150.0" cy="1184.0" r="3" fill="#6b7280"/><circle cx="157.5" cy="1184.0" r="3" fill="#6b7280"/><circle cx="166.2" cy="1184.0" r="3" fill="#6b7280"/><circle cx="178.0" cy="1184.0" r="3" fill="#6b7280"/><circle cx="198.5" cy="1184.0" r="3" fill="#6b7280"/><circle cx="230.0" cy="1190.6" r="3" fill="#6b7280"/></g><g class="lgdl-node" fill="#dcfce7" stroke="#16a34a" stroke-width="1.5"><rect x="90" y="1312" width="120" height="48" rx="60" ry="60"/><text x="150" y="1336" font-family="'Segoe UI', 'PingFang SC', 'Microsoft YaHei', sans-serif" font-size="13" fill="#1f2937" text-anchor="middle" dominant-baseline="middle">订单完成</text></g><g class="lgdl-anchors"><circle cx="210.0" cy="1336.0" r="3" fill="#16a34a"/><circle cx="199.8" cy="1349.4" r="3" fill="#16a34a"/><circle cx="184.2" cy="1355.7" r="3" fill="#16a34a"/><circle cx="172.3" cy="1358.3" r="3" fill="#16a34a"/><circle cx="163.5" cy="1359.4" r="3" fill="#16a34a"/><circle cx="156.4" cy="1359.9" r="3" fill="#16a34a"/><circle cx="150.0" cy="1360.0" r="3" fill="#16a34a"/><circle cx="143.6" cy="1359.9" r="3" fill="#16a34a"/><circle cx="136.5" cy="1359.4" r="3" fill="#16a34a"/><circle cx="127.7" cy="1358.3" r="3" fill="#16a34a"/><circle cx="115.8" cy="1355.7" r="3" fill="#16a34a"/><circle cx="100.2" cy="1349.4" r="3" fill="#16a34a"/><circle cx="90.0" cy="1336.0" r="3" fill="#16a34a"/><circle cx="100.2" cy="1322.6" r="3" fill="#16a34a"/><circle cx="115.8" cy="1316.3" r="3" fill="#16a34a"/><circle cx="127.7" cy="1313.7" r="3" fill="#16a34a"/><circle cx="136.5" cy="1312.6" r="3" fill="#16a34a"/><circle cx="143.6" cy="1312.1" r="3" fill="#16a34a"/><circle cx="150.0" cy="1312.0" r="3" fill="#16a34a"/><circle cx="156.4" cy="1312.1" r="3" fill="#16a34a"/><circle cx="163.5" cy="1312.6" r="3" fill="#16a34a"/><circle cx="172.3" cy="1313.7" r="3" fill="#16a34a"/><circle cx="184.2" cy="1316.3" r="3" fill="#16a34a"/><circle cx="199.8" cy="1322.6" r="3" fill="#16a34a"/></g><g class="lgdl-node" fill="#dcfce7" stroke="#16a34a" stroke-width="1.5"><rect x="585" y="932" width="120" height="48" rx="60" ry="60"/><text x="645" y="956" font-family="'Segoe UI', 'PingFang SC', 'Microsoft YaHei', sans-serif" font-size="13" fill="#1f2937" text-anchor="middle" dominant-baseline="middle">订单取消</text></g><g class="lgdl-anchors"><circle cx="705.0" cy="956.0" r="3" fill="#16a34a"/><circle cx="694.8" cy="969.4" r="3" fill="#16a34a"/><circle cx="679.2" cy="975.7" r="3" fill="#16a34a"/><circle cx="667.3" cy="978.3" r="3" fill="#16a34a"/><circle cx="658.5" cy="979.4" r="3" fill="#16a34a"/><circle cx="651.4" cy="979.9" r="3" fill="#16a34a"/><circle cx="645.0" cy="980.0" r="3" fill="#16a34a"/><circle cx="638.6" cy="979.9" r="3" fill="#16a34a"/><circle cx="631.5" cy="979.4" r="3" fill="#16a34a"/><circle cx="622.7" cy="978.3" r="3" fill="#16a34a"/><circle cx="610.8" cy="975.7" r="3" fill="#16a34a"/><circle cx="595.2" cy="969.4" r="3" fill="#16a34a"/><circle cx="585.0" cy="956.0" r="3" fill="#16a34a"/><circle cx="595.2" cy="942.6" r="3" fill="#16a34a"/><circle cx="610.8" cy="936.3" r="3" fill="#16a34a"/><circle cx="622.7" cy="933.7" r="3" fill="#16a34a"/><circle cx="631.5" cy="932.6" r="3" fill="#16a34a"/><circle cx="638.6" cy="932.1" r="3" fill="#16a34a"/><circle cx="645.0" cy="932.0" r="3" fill="#16a34a"/><circle cx="651.4" cy="932.1" r="3" fill="#16a34a"/><circle cx="658.5" cy="932.6" r="3" fill="#16a34a"/><circle cx="667.3" cy="933.7" r="3" fill="#16a34a"/><circle cx="679.2" cy="936.3" r="3" fill="#16a34a"/><circle cx="694.8" cy="942.6" r="3" fill="#16a34a"/></g><g class="lgdl-node" fill="#dcfce7" stroke="#16a34a" stroke-width="1.5"><rect x="585" y="688" width="120" height="48" rx="60" ry="60"/><text x="645" y="712" font-family="'Segoe UI', 'PingFang SC', 'Microsoft YaHei', sans-serif" font-size="13" fill="#1f2937" text-anchor="middle" dominant-baseline="middle">库存不足</text></g><g class="lgdl-anchors"><circle cx="705.0" cy="712.0" r="3" fill="#16a34a"/><circle cx="694.8" cy="725.4" r="3" fill="#16a34a"/><circle cx="679.2" cy="731.7" r="3" fill="#16a34a"/><circle cx="667.3" cy="734.3" r="3" fill="#16a34a"/><circle cx="658.5" cy="735.4" r="3" fill="#16a34a"/><circle cx="651.4" cy="735.9" r="3" fill="#16a34a"/><circle cx="645.0" cy="736.0" r="3" fill="#16a34a"/><circle cx="638.6" cy="735.9" r="3" fill="#16a34a"/><circle cx="631.5" cy="735.4" r="3" fill="#16a34a"/><circle cx="622.7" cy="734.3" r="3" fill="#16a34a"/><circle cx="610.8" cy="731.7" r="3" fill="#16a34a"/><circle cx="595.2" cy="725.4" r="3" fill="#16a34a"/><circle cx="585.0" cy="712.0" r="3" fill="#16a34a"/><circle cx="595.2" cy="698.6" r="3" fill="#16a34a"/><circle cx="610.8" cy="692.3" r="3" fill="#16a34a"/><circle cx="622.7" cy="689.7" r="3" fill="#16a34a"/><circle cx="631.5" cy="688.6" r="3" fill="#16a34a"/><circle cx="638.6" cy="688.1" r="3" fill="#16a34a"/><circle cx="645.0" cy="688.0" r="3" fill="#16a34a"/><circle cx="651.4" cy="688.1" r="3" fill="#16a34a"/><circle cx="658.5" cy="688.6" r="3" fill="#16a34a"/><circle cx="667.3" cy="689.7" r="3" fill="#16a34a"/><circle cx="679.2" cy="692.3" r="3" fill="#16a34a"/><circle cx="694.8" cy="698.6" r="3" fill="#16a34a"/></g><g class="lgdl-node" fill="#dcfce7" stroke="#16a34a" stroke-width="1.5"><rect x="310" y="1188" width="120" height="48" rx="60" ry="60"/><text x="370" y="1212" font-family="'Segoe UI', 'PingFang SC', 'Microsoft YaHei', sans-serif" font-size="13" fill="#1f2937" text-anchor="middle" dominant-baseline="middle">发起退款</text></g><g class="lgdl-anchors"><circle cx="430.0" cy="1212.0" r="3" fill="#16a34a"/><circle cx="419.8" cy="1225.4" r="3" fill="#16a34a"/><circle cx="404.2" cy="1231.7" r="3" fill="#16a34a"/><circle cx="392.3" cy="1234.3" r="3" fill="#16a34a"/><circle cx="383.5" cy="1235.4" r="3" fill="#16a34a"/><circle cx="376.4" cy="1235.9" r="3" fill="#16a34a"/><circle cx="370.0" cy="1236.0" r="3" fill="#16a34a"/><circle cx="363.6" cy="1235.9" r="3" fill="#16a34a"/><circle cx="356.5" cy="1235.4" r="3" fill="#16a34a"/><circle cx="347.7" cy="1234.3" r="3" fill="#16a34a"/><circle cx="335.8" cy="1231.7" r="3" fill="#16a34a"/><circle cx="320.2" cy="1225.4" r="3" fill="#16a34a"/><circle cx="310.0" cy="1212.0" r="3" fill="#16a34a"/><circle cx="320.2" cy="1198.6" r="3" fill="#16a34a"/><circle cx="335.8" cy="1192.3" r="3" fill="#16a34a"/><circle cx="347.7" cy="1189.7" r="3" fill="#16a34a"/><circle cx="356.5" cy="1188.6" r="3" fill="#16a34a"/><circle cx="363.6" cy="1188.1" r="3" fill="#16a34a"/><circle cx="370.0" cy="1188.0" r="3" fill="#16a34a"/><circle cx="376.4" cy="1188.1" r="3" fill="#16a34a"/><circle cx="383.5" cy="1188.6" r="3" fill="#16a34a"/><circle cx="392.3" cy="1189.7" r="3" fill="#16a34a"/><circle cx="404.2" cy="1192.3" r="3" fill="#16a34a"/><circle cx="419.8" cy="1198.6" r="3" fill="#16a34a"/></g><g class="lgdl-aggregate-edge"><line x1="209.06903433351528" y1="1102" x2="180.546207937148" y2="1146" stroke="#7c3aed" stroke-width="2" stroke-dasharray="5 3" marker-end="url(#arrowhead-purple)"/><rect x="168.8" y="1111.5" width="52" height="17" rx="3" fill="#ffffff" opacity="0.9"/><text x="194.80762113533166" y="1120" font-family="'Segoe UI', 'PingFang SC', 'Microsoft YaHei', sans-serif" font-size="11" fill="#7c3aed" text-anchor="middle" dominant-baseline="middle">订单推送</text></g><g class="lgdl-edge-anchors"><circle cx="209.1" cy="1102.0" r="3.5" fill="#7c3aed"/><circle cx="180.5" cy="1146.0" r="3.5" fill="#7c3aed"/></g><g class="lgdl-aggregate-edge"><line x1="244" y1="1234.8127759114745" x2="296" y2="1219.8282402399032" stroke="#7c3aed" stroke-width="2" stroke-dasharray="5 3" marker-end="url(#arrowhead-purple)"/><rect x="244.0" y="1214.8" width="52" height="17" rx="3" fill="#ffffff" opacity="0.9"/><text x="270" y="1223.3205080756888" font-family="'Segoe UI', 'PingFang SC', 'Microsoft YaHei', sans-serif" font-size="11" fill="#7c3aed" text-anchor="middle" dominant-baseline="middle">售后入口</text></g><g class="lgdl-edge-anchors"><circle cx="244.0" cy="1234.8" r="3.5" fill="#7c3aed"/><circle cx="296.0" cy="1219.8" r="3.5" fill="#7c3aed"/></g><g class="lgdl-edge"><path d="M 380,112 L 380,136 L 380,160" fill="none" stroke="#6b7280" stroke-width="1.5" marker-end="url(#arrowhead)"/><text x="380" y="120" font-family="'Segoe UI', 'PingFang SC', 'Microsoft YaHei', sans-serif" font-size="12" fill="#6b7280" text-anchor="middle" dominant-baseline="middle">选择商品</text></g><g class="lgdl-edge-anchors"><circle cx="380.0" cy="112.0" r="3.5" fill="#6b7280"/><circle cx="380.0" cy="160.0" r="3.5" fill="#6b7280"/></g><g class="lgdl-edge"><path d="M 380,216 L 380,240 L 380,264 L 380,288 L 380,312" fill="none" stroke="#6b7280" stroke-width="1.5" marker-end="url(#arrowhead)"/><text x="380" y="224" font-family="'Segoe UI', 'PingFang SC', 'Microsoft YaHei', sans-serif" font-size="12" fill="#6b7280" text-anchor="middle" dominant-baseline="middle">去结算</text></g><g class="lgdl-edge-anchors"><circle cx="380.0" cy="216.0" r="3.5" fill="#6b7280"/><circle cx="380.0" cy="312.0" r="3.5" fill="#6b7280"/></g><g class="lgdl-edge"><path d="M 380,368 L 380,392 L 380,416" fill="none" stroke="#6b7280" stroke-width="1.5" marker-end="url(#arrowhead)"/></g><g class="lgdl-edge-anchors"><circle cx="380.0" cy="368.0" r="3.5" fill="#6b7280"/><circle cx="380.0" cy="416.0" r="3.5" fill="#6b7280"/></g><g class="lgdl-edge"><path d="M 354.54545454545456,481.45454545454544 L 330,520 L 330,544" fill="none" stroke="#6b7280" stroke-width="1.5" marker-end="url(#arrowhead)"/><text x="342.27272727272725" y="496.72727272727275" font-family="'Segoe UI', 'PingFang SC', 'Microsoft YaHei', sans-serif" font-size="12" fill="#6b7280" text-anchor="middle" dominant-baseline="middle">校验通过</text></g><g class="lgdl-edge-anchors"><circle cx="354.5" cy="481.5" r="3.5" fill="#6b7280"/><circle cx="330.0" cy="544.0" r="3.5" fill="#6b7280"/></g><g class="lgdl-edge"><path d="M 414.8195828349995,476.1030955228574 L 490,520 L 490,584 L 490,648 L 490,712 L 490,776 L 490,840 L 490,904 L 595.1508735720064,942.6429668302221" fill="none" stroke="#6b7280" stroke-width="1.5" marker-end="url(#arrowhead)"/><text x="452.4097914174997" y="494.0515477614287" font-family="'Segoe UI', 'PingFang SC', 'Microsoft YaHei', sans-serif" font-size="12" fill="#6b7280" text-anchor="middle" dominant-baseline="middle">参数异常</text></g><g class="lgdl-edge-anchors"><circle cx="414.8" cy="476.1" r="3.5" fill="#6b7280"/><circle cx="595.2" cy="942.6" r="3.5" fill="#6b7280"/></g><g class="lgdl-edge"><path d="M 320.70519538324857,618.6886830761421 L 320,648 L 320,672" fill="none" stroke="#6b7280" stroke-width="1.5" marker-end="url(#arrowhead)"/><text x="320.3525976916243" y="629.344341538071" font-family="'Segoe UI', 'PingFang SC', 'Microsoft YaHei', sans-serif" font-size="12" fill="#6b7280" text-anchor="middle" dominant-baseline="middle">锁定成功</text></g><g class="lgdl-edge-anchors"><circle cx="320.7" cy="618.7" r="3.5" fill="#6b7280"/><circle cx="320.0" cy="672.0" r="3.5" fill="#6b7280"/></g><g class="lgdl-edge"><path d="M 364.8195828349995,604.1030955228574 L 430,648 L 595.1508735720064,698.6429668302221" fill="none" stroke="#6b7280" stroke-width="1.5" marker-end="url(#arrowhead)"/><text x="397.4097914174997" y="622.0515477614288" font-family="'Segoe UI', 'PingFang SC', 'Microsoft YaHei', sans-serif" font-size="12" fill="#6b7280" text-anchor="middle" dominant-baseline="middle">库存不足</text></g><g class="lgdl-edge-anchors"><circle cx="364.8" cy="604.1" r="3.5" fill="#6b7280"/><circle cx="595.2" cy="698.6" r="3.5" fill="#6b7280"/></g><g class="lgdl-edge"><path d="M 294.54545454545456,737.4545454545455 L 270,776 L 270,800" fill="none" stroke="#6b7280" stroke-width="1.5" marker-end="url(#arrowhead)"/><text x="282.27272727272725" y="752.7272727272727" font-family="'Segoe UI', 'PingFang SC', 'Microsoft YaHei', sans-serif" font-size="12" fill="#6b7280" text-anchor="middle" dominant-baseline="middle">发起支付</text></g><g class="lgdl-edge-anchors"><circle cx="294.5" cy="737.5" r="3.5" fill="#6b7280"/><circle cx="270.0" cy="800.0" r="3.5" fill="#6b7280"/></g><g class="lgdl-edge"><path d="M 354.8195828349995,732.1030955228574 L 420,776 L 420,840 L 420,904 L 595.1508735720064,942.6429668302221" fill="none" stroke="#6b7280" stroke-width="1.5" marker-end="url(#arrowhead)"/><text x="387.4097914174997" y="750.0515477614288" font-family="'Segoe UI', 'PingFang SC', 'Microsoft YaHei', sans-serif" font-size="12" fill="#6b7280" text-anchor="middle" dominant-baseline="middle">用户放弃</text></g><g class="lgdl-edge-anchors"><circle cx="354.8" cy="732.1" r="3.5" fill="#6b7280"/><circle cx="595.2" cy="942.6" r="3.5" fill="#6b7280"/></g><g class="lgdl-edge"><path d="M 260.70519538324857,874.6886830761421 L 260,904 L 260,928" fill="none" stroke="#6b7280" stroke-width="1.5" marker-end="url(#arrowhead)"/><text x="260.3525976916243" y="885.344341538071" font-family="'Segoe UI', 'PingFang SC', 'Microsoft YaHei', sans-serif" font-size="12" fill="#6b7280" text-anchor="middle" dominant-baseline="middle">审核通过</text></g><g class="lgdl-edge-anchors"><circle cx="260.7" cy="874.7" r="3.5" fill="#6b7280"/><circle cx="260.0" cy="928.0" r="3.5" fill="#6b7280"/></g><g class="lgdl-edge"><path d="M 304.8195828349995,860.1030955228574 L 360,904 L 595.1508735720064,942.6429668302221" fill="none" stroke="#6b7280" stroke-width="1.5" marker-end="url(#arrowhead)"/><text x="332.4097914174997" y="878.0515477614288" font-family="'Segoe UI', 'PingFang SC', 'Microsoft YaHei', sans-serif" font-size="12" fill="#6b7280" text-anchor="middle" dominant-baseline="middle">风险拦截</text></g><g class="lgdl-edge-anchors"><circle cx="304.8" cy="860.1" r="3.5" fill="#6b7280"/><circle cx="595.2" cy="942.6" r="3.5" fill="#6b7280"/></g><g class="lgdl-edge"><path d="M 260,984 L 260,1008 L 260,1032" fill="none" stroke="#6b7280" stroke-width="1.5" marker-end="url(#arrowhead)"/></g><g class="lgdl-edge-anchors"><circle cx="260.0" cy="984.0" r="3.5" fill="#6b7280"/><circle cx="260.0" cy="1032.0" r="3.5" fill="#6b7280"/></g><g class="lgdl-edge"><path d="M 211.50257738807147,1088 L 150,1112 L 150,1136 L 150,1160 L 150,1184" fill="none" stroke="#6b7280" stroke-width="1.5" marker-end="url(#arrowhead)"/><text x="180.75128869403574" y="1096" font-family="'Segoe UI', 'PingFang SC', 'Microsoft YaHei', sans-serif" font-size="12" fill="#6b7280" text-anchor="middle" dominant-baseline="middle">通知履约</text></g><g class="lgdl-edge-anchors"><circle cx="211.5" cy="1088.0" r="3.5" fill="#6b7280"/><circle cx="150.0" cy="1184.0" r="3.5" fill="#6b7280"/></g><g class="lgdl-edge"><path d="M 150,1240 L 150,1264 L 150,1288 L 150,1312" fill="none" stroke="#6b7280" stroke-width="1.5" marker-end="url(#arrowhead)"/><text x="150" y="1248" font-family="'Segoe UI', 'PingFang SC', 'Microsoft YaHei', sans-serif" font-size="12" fill="#6b7280" text-anchor="middle" dominant-baseline="middle">确认收货</text></g><g class="lgdl-edge-anchors"><circle cx="150.0" cy="1240.0" r="3.5" fill="#6b7280"/><circle cx="150.0" cy="1312.0" r="3.5" fill="#6b7280"/></g><g class="lgdl-edge"><path d="M 308.4974226119286,1088 L 370,1112 L 370,1136 L 370,1160 L 370,1188" fill="none" stroke="#6b7280" stroke-width="1.5" marker-end="url(#arrowhead)"/><text x="339.2487113059643" y="1096" font-family="'Segoe UI', 'PingFang SC', 'Microsoft YaHei', sans-serif" font-size="12" fill="#6b7280" text-anchor="middle" dominant-baseline="middle">售后保障</text></g><g class="lgdl-edge-anchors"><circle cx="308.5" cy="1088.0" r="3.5" fill="#6b7280"/><circle cx="370.0" cy="1188.0" r="3.5" fill="#6b7280"/></g></svg>