<svg xmlns="http://www.w3.org/2000/svg" width="612" height="556" viewBox="0 0 612 556"><defs><marker id="arrowhead" markerWidth="10" markerHeight="7" refX="10" refY="3.5" orient="auto"><polygon points="0 0, 10 3.5, 0 7" fill="#6b7280"/></marker><marker id="arrowhead-purple" markerWidth="10" markerHeight="7" refX="10" refY="3.5" orient="auto"><polygon points="0 0, 10 3.5, 0 7" fill="#7c3aed"/></marker></defs><style>.lgdl-anchors,.lgdl-edge-anchors{opacity:0;pointer-events:none;transition:opacity .12s ease}.lgdl-node:hover + .lgdl-anchors,.lgdl-class:hover + .lgdl-anchors,.lgdl-group:hover + .lgdl-anchors,.lgdl-lane:hover + .lgdl-anchors{opacity:1}.lgdl-edge:hover + .lgdl-edge-anchors,.lgdl-aggregate-edge:hover + .lgdl-edge-anchors{opacity:1}.lgdl-node.lgdl-hovered + .lgdl-anchors,.lgdl-class.lgdl-hovered + .lgdl-anchors,.lgdl-group.lgdl-hovered + .lgdl-anchors,.lgdl-lane.lgdl-hovered + .lgdl-anchors{opacity:1}.lgdl-edge.lgdl-hovered + .lgdl-edge-anchors,.lgdl-aggregate-edge.lgdl-hovered + .lgdl-edge-anchors{opacity:1}.lgdl-hovered{filter:drop-shadow(0 0 3px rgba(79,70,229,.65))}</style><rect x="0" y="0" width="612" height="556" fill="#ffffff"/><g class="lgdl-node" data-lgdl-loc="nodes[0]"><path d="M 12,426 L 12,528 A 82,10 0 0 0 176,528 L 176,426 A 82,10 0 0 0 12,426 Z" fill="#fce7f3" stroke="#ec4899" stroke-width="1.5"/><text x="94" y="443" font-family="'Segoe UI', 'PingFang SC', 'Microsoft YaHei', sans-serif" font-size="13" fill="#1f2937" text-anchor="middle" dominant-baseline="middle">用户</text><text x="94" y="460" font-family="'Segoe UI', 'PingFang SC', 'Microsoft YaHei', sans-serif" font-size="13" fill="#1f2937" text-anchor="middle" dominant-baseline="middle">id: bigint</text><text x="94" y="477" font-family="'Segoe UI', 'PingFang SC', 'Microsoft YaHei', sans-serif" font-size="13" fill="#1f2937" text-anchor="middle" dominant-baseline="middle">created_at: datetime</text><text x="94" y="494" font-family="'Segoe UI', 'PingFang SC', 'Microsoft YaHei', sans-serif" font-size="13" fill="#1f2937" text-anchor="middle" dominant-baseline="middle">name: varchar</text><text x="94" y="511" font-family="'Segoe UI', 'PingFang SC', 'Microsoft YaHei', sans-serif" font-size="13" fill="#1f2937" text-anchor="middle" dominant-baseline="middle">phone: varchar</text></g><g class="lgdl-anchors"><circle cx="176.0" cy="477.0" r="3" fill="#ec4899"/><circle cx="176.0" cy="499.0" r="3" fill="#ec4899"/><circle cx="176.0" cy="524.3" r="3" fill="#ec4899"/><circle cx="152.1" cy="535.1" r="3" fill="#ec4899"/><circle cx="128.7" cy="537.1" r="3" fill="#ec4899"/><circle cx="110.3" cy="537.8" r="3" fill="#ec4899"/><circle cx="94.0" cy="538.0" r="3" fill="#ec4899"/><circle cx="77.7" cy="537.8" r="3" fill="#ec4899"/><circle cx="59.3" cy="537.1" r="3" fill="#ec4899"/><circle cx="35.9" cy="535.1" r="3" fill="#ec4899"/><circle cx="12.0" cy="524.3" r="3" fill="#ec4899"/><circle cx="12.0" cy="499.0" r="3" fill="#ec4899"/><circle cx="12.0" cy="477.0" r="3" fill="#ec4899"/><circle cx="12.0" cy="455.0" r="3" fill="#ec4899"/><circle cx="12.0" cy="429.7" r="3" fill="#ec4899"/><circle cx="35.9" cy="418.9" r="3" fill="#ec4899"/><circle cx="59.3" cy="416.9" r="3" fill="#ec4899"/><circle cx="77.7" cy="416.2" r="3" fill="#ec4899"/><circle cx="94.0" cy="416.0" r="3" fill="#ec4899"/><circle cx="110.3" cy="416.2" r="3" fill="#ec4899"/><circle cx="128.7" cy="416.9" r="3" fill="#ec4899"/><circle cx="152.1" cy="418.9" r="3" fill="#ec4899"/><circle cx="176.0" cy="429.7" r="3" fill="#ec4899"/><circle cx="176.0" cy="455.0" r="3" fill="#ec4899"/></g><g class="lgdl-node" data-lgdl-loc="nodes[1]"><path d="M 224,225 L 224,345 A 85.5,10 0 0 0 395,345 L 395,225 A 85.5,10 0 0 0 224,225 Z" fill="#fce7f3" stroke="#ec4899" stroke-width="1.5"/><text x="309.5" y="242.5" font-family="'Segoe UI', 'PingFang SC', 'Microsoft YaHei', sans-serif" font-size="13" fill="#1f2937" text-anchor="middle" dominant-baseline="middle">订单</text><text x="309.5" y="259.5" font-family="'Segoe UI', 'PingFang SC', 'Microsoft YaHei', sans-serif" font-size="13" fill="#1f2937" text-anchor="middle" dominant-baseline="middle">id: bigint</text><text x="309.5" y="276.5" font-family="'Segoe UI', 'PingFang SC', 'Microsoft YaHei', sans-serif" font-size="13" fill="#1f2937" text-anchor="middle" dominant-baseline="middle">user_id: bigint</text><text x="309.5" y="293.5" font-family="'Segoe UI', 'PingFang SC', 'Microsoft YaHei', sans-serif" font-size="13" fill="#1f2937" text-anchor="middle" dominant-baseline="middle">status: varchar</text><text x="309.5" y="310.5" font-family="'Segoe UI', 'PingFang SC', 'Microsoft YaHei', sans-serif" font-size="13" fill="#1f2937" text-anchor="middle" dominant-baseline="middle">total_amount: decimal</text><text x="309.5" y="327.5" font-family="'Segoe UI', 'PingFang SC', 'Microsoft YaHei', sans-serif" font-size="13" fill="#1f2937" text-anchor="middle" dominant-baseline="middle">created_at: datetime</text></g><g class="lgdl-anchors"><circle cx="395.0" cy="285.0" r="3" fill="#ec4899"/><circle cx="395.0" cy="307.9" r="3" fill="#ec4899"/><circle cx="395.0" cy="334.4" r="3" fill="#ec4899"/><circle cx="375.8" cy="351.3" r="3" fill="#ec4899"/><circle cx="349.3" cy="353.9" r="3" fill="#ec4899"/><circle cx="328.2" cy="354.8" r="3" fill="#ec4899"/><circle cx="309.5" cy="355.0" r="3" fill="#ec4899"/><circle cx="290.8" cy="354.8" r="3" fill="#ec4899"/><circle cx="269.7" cy="353.9" r="3" fill="#ec4899"/><circle cx="243.2" cy="351.3" r="3" fill="#ec4899"/><circle cx="224.0" cy="334.4" r="3" fill="#ec4899"/><circle cx="224.0" cy="307.9" r="3" fill="#ec4899"/><circle cx="224.0" cy="285.0" r="3" fill="#ec4899"/><circle cx="224.0" cy="262.1" r="3" fill="#ec4899"/><circle cx="224.0" cy="235.6" r="3" fill="#ec4899"/><circle cx="243.2" cy="218.7" r="3" fill="#ec4899"/><circle cx="269.7" cy="216.1" r="3" fill="#ec4899"/><circle cx="290.8" cy="215.2" r="3" fill="#ec4899"/><circle cx="309.5" cy="215.0" r="3" fill="#ec4899"/><circle cx="328.2" cy="215.2" r="3" fill="#ec4899"/><circle cx="349.3" cy="216.1" r="3" fill="#ec4899"/><circle cx="375.8" cy="218.7" r="3" fill="#ec4899"/><circle cx="395.0" cy="235.6" r="3" fill="#ec4899"/><circle cx="395.0" cy="262.1" r="3" fill="#ec4899"/></g><g class="lgdl-node" data-lgdl-loc="nodes[2]"><path d="M 443,36 L 443,156 A 75,10 0 0 0 593,156 L 593,36 A 75,10 0 0 0 443,36 Z" fill="#fce7f3" stroke="#ec4899" stroke-width="1.5"/><text x="518" y="53.5" font-family="'Segoe UI', 'PingFang SC', 'Microsoft YaHei', sans-serif" font-size="13" fill="#1f2937" text-anchor="middle" dominant-baseline="middle">订单项</text><text x="518" y="70.5" font-family="'Segoe UI', 'PingFang SC', 'Microsoft YaHei', sans-serif" font-size="13" fill="#1f2937" text-anchor="middle" dominant-baseline="middle">id: bigint</text><text x="518" y="87.5" font-family="'Segoe UI', 'PingFang SC', 'Microsoft YaHei', sans-serif" font-size="13" fill="#1f2937" text-anchor="middle" dominant-baseline="middle">order_id: bigint</text><text x="518" y="104.5" font-family="'Segoe UI', 'PingFang SC', 'Microsoft YaHei', sans-serif" font-size="13" fill="#1f2937" text-anchor="middle" dominant-baseline="middle">product_id: bigint</text><text x="518" y="121.5" font-family="'Segoe UI', 'PingFang SC', 'Microsoft YaHei', sans-serif" font-size="13" fill="#1f2937" text-anchor="middle" dominant-baseline="middle">quantity: int</text><text x="518" y="138.5" font-family="'Segoe UI', 'PingFang SC', 'Microsoft YaHei', sans-serif" font-size="13" fill="#1f2937" text-anchor="middle" dominant-baseline="middle">price: decimal</text></g><g class="lgdl-anchors"><circle cx="593.0" cy="96.0" r="3" fill="#ec4899"/><circle cx="593.0" cy="116.1" r="3" fill="#ec4899"/><circle cx="593.0" cy="139.3" r="3" fill="#ec4899"/><circle cx="583.0" cy="161.0" r="3" fill="#ec4899"/><circle cx="557.5" cy="164.5" r="3" fill="#ec4899"/><circle cx="536.7" cy="165.7" r="3" fill="#ec4899"/><circle cx="518.0" cy="166.0" r="3" fill="#ec4899"/><circle cx="499.3" cy="165.7" r="3" fill="#ec4899"/><circle cx="478.5" cy="164.5" r="3" fill="#ec4899"/><circle cx="453.0" cy="161.0" r="3" fill="#ec4899"/><circle cx="443.0" cy="139.3" r="3" fill="#ec4899"/><circle cx="443.0" cy="116.1" r="3" fill="#ec4899"/><circle cx="443.0" cy="96.0" r="3" fill="#ec4899"/><circle cx="443.0" cy="75.9" r="3" fill="#ec4899"/><circle cx="443.0" cy="52.7" r="3" fill="#ec4899"/><circle cx="453.0" cy="31.0" r="3" fill="#ec4899"/><circle cx="478.5" cy="27.5" r="3" fill="#ec4899"/><circle cx="499.3" cy="26.3" r="3" fill="#ec4899"/><circle cx="518.0" cy="26.0" r="3" fill="#ec4899"/><circle cx="536.7" cy="26.3" r="3" fill="#ec4899"/><circle cx="557.5" cy="27.5" r="3" fill="#ec4899"/><circle cx="583.0" cy="31.0" r="3" fill="#ec4899"/><circle cx="593.0" cy="52.7" r="3" fill="#ec4899"/><circle cx="593.0" cy="75.9" r="3" fill="#ec4899"/></g><g class="lgdl-node" data-lgdl-loc="nodes[3]"><path d="M 255,22 L 255,124 A 70,10 0 0 0 395,124 L 395,22 A 70,10 0 0 0 255,22 Z" fill="#fce7f3" stroke="#ec4899" stroke-width="1.5"/><text x="325" y="39" font-family="'Segoe UI', 'PingFang SC', 'Microsoft YaHei', sans-serif" font-size="13" fill="#1f2937" text-anchor="middle" dominant-baseline="middle">商品</text><text x="325" y="56" font-family="'Segoe UI', 'PingFang SC', 'Microsoft YaHei', sans-serif" font-size="13" fill="#1f2937" text-anchor="middle" dominant-baseline="middle">id: bigint</text><text x="325" y="73" font-family="'Segoe UI', 'PingFang SC', 'Microsoft YaHei', sans-serif" font-size="13" fill="#1f2937" text-anchor="middle" dominant-baseline="middle">name: varchar</text><text x="325" y="90" font-family="'Segoe UI', 'PingFang SC', 'Microsoft YaHei', sans-serif" font-size="13" fill="#1f2937" text-anchor="middle" dominant-baseline="middle">price: decimal</text><text x="325" y="107" font-family="'Segoe UI', 'PingFang SC', 'Microsoft YaHei', sans-serif" font-size="13" fill="#1f2937" text-anchor="middle" dominant-baseline="middle">stock: int</text></g><g class="lgdl-anchors"><circle cx="395.0" cy="73.0" r="3" fill="#ec4899"/><circle cx="395.0" cy="91.8" r="3" fill="#ec4899"/><circle cx="395.0" cy="113.4" r="3" fill="#ec4899"/><circle cx="381.8" cy="129.8" r="3" fill="#ec4899"/><circle cx="359.5" cy="132.7" r="3" fill="#ec4899"/><circle cx="341.3" cy="133.7" r="3" fill="#ec4899"/><circle cx="325.0" cy="134.0" r="3" fill="#ec4899"/><circle cx="308.7" cy="133.7" r="3" fill="#ec4899"/><circle cx="290.5" cy="132.7" r="3" fill="#ec4899"/><circle cx="268.2" cy="129.8" r="3" fill="#ec4899"/><circle cx="255.0" cy="113.4" r="3" fill="#ec4899"/><circle cx="255.0" cy="91.8" r="3" fill="#ec4899"/><circle cx="255.0" cy="73.0" r="3" fill="#ec4899"/><circle cx="255.0" cy="54.2" r="3" fill="#ec4899"/><circle cx="255.0" cy="32.6" r="3" fill="#ec4899"/><circle cx="268.2" cy="16.2" r="3" fill="#ec4899"/><circle cx="290.5" cy="13.3" r="3" fill="#ec4899"/><circle cx="308.7" cy="12.3" r="3" fill="#ec4899"/><circle cx="325.0" cy="12.0" r="3" fill="#ec4899"/><circle cx="341.3" cy="12.3" r="3" fill="#ec4899"/><circle cx="359.5" cy="13.3" r="3" fill="#ec4899"/><circle cx="381.8" cy="16.2" r="3" fill="#ec4899"/><circle cx="395.0" cy="32.6" r="3" fill="#ec4899"/><circle cx="395.0" cy="54.2" r="3" fill="#ec4899"/></g><g class="lgdl-node" data-lgdl-loc="nodes[4]"><path d="M 443,216 L 443,354 A 78.5,10 0 0 0 600,354 L 600,216 A 78.5,10 0 0 0 443,216 Z" fill="#fce7f3" stroke="#ec4899" stroke-width="1.5"/><text x="521.5" y="234" font-family="'Segoe UI', 'PingFang SC', 'Microsoft YaHei', sans-serif" font-size="13" fill="#1f2937" text-anchor="middle" dominant-baseline="middle">支付记录</text><text x="521.5" y="251" font-family="'Segoe UI', 'PingFang SC', 'Microsoft YaHei', sans-serif" font-size="13" fill="#1f2937" text-anchor="middle" dominant-baseline="middle">id: bigint</text><text x="521.5" y="268" font-family="'Segoe UI', 'PingFang SC', 'Microsoft YaHei', sans-serif" font-size="13" fill="#1f2937" text-anchor="middle" dominant-baseline="middle">order_id: bigint</text><text x="521.5" y="285" font-family="'Segoe UI', 'PingFang SC', 'Microsoft YaHei', sans-serif" font-size="13" fill="#1f2937" text-anchor="middle" dominant-baseline="middle">amount: decimal</text><text x="521.5" y="302" font-family="'Segoe UI', 'PingFang SC', 'Microsoft YaHei', sans-serif" font-size="13" fill="#1f2937" text-anchor="middle" dominant-baseline="middle">pay_method: varchar</text><text x="521.5" y="319" font-family="'Segoe UI', 'PingFang SC', 'Microsoft YaHei', sans-serif" font-size="13" fill="#1f2937" text-anchor="middle" dominant-baseline="middle">status: varchar</text><text x="521.5" y="336" font-family="'Segoe UI', 'PingFang SC', 'Microsoft YaHei', sans-serif" font-size="13" fill="#1f2937" text-anchor="middle" dominant-baseline="middle">paid_at: datetime</text></g><g class="lgdl-anchors"><circle cx="600.0" cy="285.0" r="3" fill="#ec4899"/><circle cx="600.0" cy="306.0" r="3" fill="#ec4899"/><circle cx="600.0" cy="330.3" r="3" fill="#ec4899"/><circle cx="594.3" cy="357.8" r="3" fill="#ec4899"/><circle cx="566.1" cy="362.2" r="3" fill="#ec4899"/><circle cx="542.6" cy="363.6" r="3" fill="#ec4899"/><circle cx="521.5" cy="364.0" r="3" fill="#ec4899"/><circle cx="500.4" cy="363.6" r="3" fill="#ec4899"/><circle cx="476.9" cy="362.2" r="3" fill="#ec4899"/><circle cx="448.7" cy="357.8" r="3" fill="#ec4899"/><circle cx="443.0" cy="330.3" r="3" fill="#ec4899"/><circle cx="443.0" cy="306.0" r="3" fill="#ec4899"/><circle cx="443.0" cy="285.0" r="3" fill="#ec4899"/><circle cx="443.0" cy="264.0" r="3" fill="#ec4899"/><circle cx="443.0" cy="239.7" r="3" fill="#ec4899"/><circle cx="448.7" cy="212.2" r="3" fill="#ec4899"/><circle cx="476.9" cy="207.8" r="3" fill="#ec4899"/><circle cx="500.4" cy="206.4" r="3" fill="#ec4899"/><circle cx="521.5" cy="206.0" r="3" fill="#ec4899"/><circle cx="542.6" cy="206.4" r="3" fill="#ec4899"/><circle cx="566.1" cy="207.8" r="3" fill="#ec4899"/><circle cx="594.3" cy="212.2" r="3" fill="#ec4899"/><circle cx="600.0" cy="239.7" r="3" fill="#ec4899"/><circle cx="600.0" cy="264.0" r="3" fill="#ec4899"/></g><g class="lgdl-node" data-lgdl-loc="nodes[5]"><path d="M 443,414 L 443,534 A 71.5,10 0 0 0 586,534 L 586,414 A 71.5,10 0 0 0 443,414 Z" fill="#fce7f3" stroke="#ec4899" stroke-width="1.5"/><text x="514.5" y="431.5" font-family="'Segoe UI', 'PingFang SC', 'Microsoft YaHei', sans-serif" font-size="13" fill="#1f2937" text-anchor="middle" dominant-baseline="middle">收货地址</text><text x="514.5" y="448.5" font-family="'Segoe UI', 'PingFang SC', 'Microsoft YaHei', sans-serif" font-size="13" fill="#1f2937" text-anchor="middle" dominant-baseline="middle">id: bigint</text><text x="514.5" y="465.5" font-family="'Segoe UI', 'PingFang SC', 'Microsoft YaHei', sans-serif" font-size="13" fill="#1f2937" text-anchor="middle" dominant-baseline="middle">user_id: bigint</text><text x="514.5" y="482.5" font-family="'Segoe UI', 'PingFang SC', 'Microsoft YaHei', sans-serif" font-size="13" fill="#1f2937" text-anchor="middle" dominant-baseline="middle">receiver: varchar</text><text x="514.5" y="499.5" font-family="'Segoe UI', 'PingFang SC', 'Microsoft YaHei', sans-serif" font-size="13" fill="#1f2937" text-anchor="middle" dominant-baseline="middle">phone: varchar</text><text x="514.5" y="516.5" font-family="'Segoe UI', 'PingFang SC', 'Microsoft YaHei', sans-serif" font-size="13" fill="#1f2937" text-anchor="middle" dominant-baseline="middle">detail: varchar</text></g><g class="lgdl-anchors"><circle cx="586.0" cy="474.0" r="3" fill="#ec4899"/><circle cx="586.0" cy="493.2" r="3" fill="#ec4899"/><circle cx="586.0" cy="515.3" r="3" fill="#ec4899"/><circle cx="578.9" cy="538.4" r="3" fill="#ec4899"/><circle cx="554.0" cy="542.3" r="3" fill="#ec4899"/><circle cx="533.2" cy="543.7" r="3" fill="#ec4899"/><circle cx="514.5" cy="544.0" r="3" fill="#ec4899"/><circle cx="495.8" cy="543.7" r="3" fill="#ec4899"/><circle cx="475.0" cy="542.3" r="3" fill="#ec4899"/><circle cx="450.1" cy="538.4" r="3" fill="#ec4899"/><circle cx="443.0" cy="515.3" r="3" fill="#ec4899"/><circle cx="443.0" cy="493.2" r="3" fill="#ec4899"/><circle cx="443.0" cy="474.0" r="3" fill="#ec4899"/><circle cx="443.0" cy="454.8" r="3" fill="#ec4899"/><circle cx="443.0" cy="432.7" r="3" fill="#ec4899"/><circle cx="450.1" cy="409.6" r="3" fill="#ec4899"/><circle cx="475.0" cy="405.7" r="3" fill="#ec4899"/><circle cx="495.8" cy="404.3" r="3" fill="#ec4899"/><circle cx="514.5" cy="404.0" r="3" fill="#ec4899"/><circle cx="533.2" cy="404.3" r="3" fill="#ec4899"/><circle cx="554.0" cy="405.7" r="3" fill="#ec4899"/><circle cx="578.9" cy="409.6" r="3" fill="#ec4899"/><circle cx="586.0" cy="432.7" r="3" fill="#ec4899"/><circle cx="586.0" cy="454.8" r="3" fill="#ec4899"/></g><g class="lgdl-edge" data-lgdl-loc="edges[0]"><path d="M 176,455 L 176,457 L 186,457 L 186,285 L 224,285" fill="none" stroke="#6b7280" stroke-width="1.5" marker-end="url(#arrowhead)"/><text x="186" y="367.16666666666663" font-family="'Segoe UI', 'PingFang SC', 'Microsoft YaHei', sans-serif" font-size="12" fill="#6b7280" text-anchor="middle" dominant-baseline="middle">下单</text><text x="181.9771223491573" y="427.8556838809882" font-family="'Segoe UI', 'PingFang SC', 'Microsoft YaHei', sans-serif" font-size="12" fill="#b45309" text-anchor="middle" dominant-baseline="middle">1</text><text x="218.0228776508427" y="300.1724823396598" font-family="'Segoe UI', 'PingFang SC', 'Microsoft YaHei', sans-serif" font-size="12" fill="#b45309" text-anchor="middle" dominant-baseline="middle">*</text></g><g class="lgdl-edge-anchors"><circle cx="176.0" cy="455.0" r="3.5" fill="#6b7280"/><circle cx="224.0" cy="285.0" r="3.5" fill="#6b7280"/></g><g class="lgdl-edge" data-lgdl-loc="edges[1]"><path d="M 395,262 L 395,250 L 405,250 L 405,120 L 405,116 L 443,116" fill="none" stroke="#6b7280" stroke-width="1.5" marker-end="url(#arrowhead)"/><text x="405" y="180.99999999999997" font-family="'Segoe UI', 'PingFang SC', 'Microsoft YaHei', sans-serif" font-size="12" fill="#6b7280" text-anchor="middle" dominant-baseline="middle">包含</text><text x="401.8713119190973" y="235.1909404070714" font-family="'Segoe UI', 'PingFang SC', 'Microsoft YaHei', sans-serif" font-size="12" fill="#b45309" text-anchor="middle" dominant-baseline="middle">1</text><text x="436.1286880809027" y="130.99559307240185" font-family="'Segoe UI', 'PingFang SC', 'Microsoft YaHei', sans-serif" font-size="12" fill="#b45309" text-anchor="middle" dominant-baseline="middle">*</text></g><g class="lgdl-edge-anchors"><circle cx="395.0" cy="262.1" r="3.5" fill="#6b7280"/><circle cx="443.0" cy="116.1" r="3.5" fill="#6b7280"/></g><g class="lgdl-edge" data-lgdl-loc="edges[2]"><path d="M 395,73 L 395,76 L 443,76" fill="none" stroke="#6b7280" stroke-width="1.5" marker-end="url(#arrowhead)"/><text x="419" y="71.90381056766577" font-family="'Segoe UI', 'PingFang SC', 'Microsoft YaHei', sans-serif" font-size="12" fill="#6b7280" text-anchor="middle" dominant-baseline="middle">被购买</text><text x="416.95985266666213" y="68.3284844216216" font-family="'Segoe UI', 'PingFang SC', 'Microsoft YaHei', sans-serif" font-size="12" fill="#b45309" text-anchor="middle" dominant-baseline="middle">1</text><text x="421.04014733333787" y="68.57532614604418" font-family="'Segoe UI', 'PingFang SC', 'Microsoft YaHei', sans-serif" font-size="12" fill="#b45309" text-anchor="middle" dominant-baseline="middle">*</text></g><g class="lgdl-edge-anchors"><circle cx="395.0" cy="73.0" r="3.5" fill="#6b7280"/><circle cx="443.0" cy="75.9" r="3.5" fill="#6b7280"/></g><g class="lgdl-edge" data-lgdl-loc="edges[3]"><path d="M 176,477 L 176,474 L 443,474" fill="none" stroke="#6b7280" stroke-width="1.5" marker-end="url(#arrowhead)"/><text x="309.5" y="470" font-family="'Segoe UI', 'PingFang SC', 'Microsoft YaHei', sans-serif" font-size="12" fill="#6b7280" text-anchor="middle" dominant-baseline="middle">拥有</text><text x="197.99861141793025" y="470.7528245908098" font-family="'Segoe UI', 'PingFang SC', 'Microsoft YaHei', sans-serif" font-size="12" fill="#b45309" text-anchor="middle" dominant-baseline="middle">1</text><text x="421.00138858206975" y="468.2471754091902" font-family="'Segoe UI', 'PingFang SC', 'Microsoft YaHei', sans-serif" font-size="12" fill="#b45309" text-anchor="middle" dominant-baseline="middle">*</text></g><g class="lgdl-edge-anchors"><circle cx="176.0" cy="477.0" r="3.5" fill="#6b7280"/><circle cx="443.0" cy="474.0" r="3.5" fill="#6b7280"/></g><g class="lgdl-edge" data-lgdl-loc="edges[4]"><path d="M 395,285 L 443,285" fill="none" stroke="#6b7280" stroke-width="1.5" marker-end="url(#arrowhead)"/><text x="419" y="281" font-family="'Segoe UI', 'PingFang SC', 'Microsoft YaHei', sans-serif" font-size="12" fill="#6b7280" text-anchor="middle" dominant-baseline="middle">支付</text><text x="417" y="279" font-family="'Segoe UI', 'PingFang SC', 'Microsoft YaHei', sans-serif" font-size="12" fill="#b45309" text-anchor="middle" dominant-baseline="middle">1</text><text x="421" y="279" font-family="'Segoe UI', 'PingFang SC', 'Microsoft YaHei', sans-serif" font-size="12" fill="#b45309" text-anchor="middle" dominant-baseline="middle">1</text></g><g class="lgdl-edge-anchors"><circle cx="395.0" cy="285.0" r="3.5" fill="#6b7280"/><circle cx="443.0" cy="285.0" r="3.5" fill="#6b7280"/></g><g class="lgdl-edge" data-lgdl-loc="edges[5]"><path d="M 395,308 L 395,320 L 405,320 L 405,451 L 405,455 L 443,455" fill="none" stroke="#6b7280" stroke-width="1.5" marker-end="url(#arrowhead)"/><text x="405" y="381.66666666666663" font-family="'Segoe UI', 'PingFang SC', 'Microsoft YaHei', sans-serif" font-size="12" fill="#6b7280" text-anchor="middle" dominant-baseline="middle">配送至</text><text x="401.8316958621788" y="322.8220429913291" font-family="'Segoe UI', 'PingFang SC', 'Microsoft YaHei', sans-serif" font-size="12" fill="#b45309" text-anchor="middle" dominant-baseline="middle">*</text><text x="436.1683041378212" y="427.92924570270657" font-family="'Segoe UI', 'PingFang SC', 'Microsoft YaHei', sans-serif" font-size="12" fill="#b45309" text-anchor="middle" dominant-baseline="middle">1</text></g><g class="lgdl-edge-anchors"><circle cx="395.0" cy="307.9" r="3.5" fill="#6b7280"/><circle cx="443.0" cy="454.8" r="3.5" fill="#6b7280"/></g></svg>