<svg xmlns="http://www.w3.org/2000/svg" width="636" height="312" viewBox="0 0 636 312"><defs><marker id="arrowhead" markerWidth="10" markerHeight="7" refX="10" refY="3.5" orient="auto"><polygon points="0 0, 10 3.5, 0 7" fill="#6b7280"/></marker><marker id="arrowhead-purple" markerWidth="10" markerHeight="7" refX="10" refY="3.5" orient="auto"><polygon points="0 0, 10 3.5, 0 7" fill="#7c3aed"/></marker></defs><style>.lgdl-anchors,.lgdl-edge-anchors{opacity:0;pointer-events:none;transition:opacity .12s ease}.lgdl-node:hover + .lgdl-anchors,.lgdl-class:hover + .lgdl-anchors,.lgdl-group:hover + .lgdl-anchors,.lgdl-lane:hover + .lgdl-anchors{opacity:1}.lgdl-edge:hover + .lgdl-edge-anchors,.lgdl-aggregate-edge:hover + .lgdl-edge-anchors{opacity:1}.lgdl-node.lgdl-hovered + .lgdl-anchors,.lgdl-class.lgdl-hovered + .lgdl-anchors,.lgdl-group.lgdl-hovered + .lgdl-anchors,.lgdl-lane.lgdl-hovered + .lgdl-anchors{opacity:1}.lgdl-edge.lgdl-hovered + .lgdl-edge-anchors,.lgdl-aggregate-edge.lgdl-hovered + .lgdl-edge-anchors{opacity:1}.lgdl-hovered{filter:drop-shadow(0 0 3px rgba(79,70,229,.65))}</style><rect x="0" y="0" width="636" height="312" fill="#ffffff"/><g class="lgdl-node" data-lgdl-loc="nodes[0]"><path d="M 12,206 L 12,290 A 70,10 0 0 0 152,290 L 152,206 A 70,10 0 0 0 12,206 Z" fill="#fce7f3" stroke="#ec4899" stroke-width="1.5"/><text x="82" y="222.5" font-family="'Segoe UI', 'PingFang SC', 'Microsoft YaHei', sans-serif" font-size="13" fill="#1f2937" text-anchor="middle" dominant-baseline="middle">用户</text><text x="82" y="239.5" font-family="'Segoe UI', 'PingFang SC', 'Microsoft YaHei', sans-serif" font-size="13" fill="#1f2937" text-anchor="middle" dominant-baseline="middle">id</text><text x="82" y="256.5" font-family="'Segoe UI', 'PingFang SC', 'Microsoft YaHei', sans-serif" font-size="13" fill="#1f2937" text-anchor="middle" dominant-baseline="middle">name</text><text x="82" y="273.5" font-family="'Segoe UI', 'PingFang SC', 'Microsoft YaHei', sans-serif" font-size="13" fill="#1f2937" text-anchor="middle" dominant-baseline="middle">email</text></g><g class="lgdl-anchors"><circle cx="152.0" cy="248.0" r="3" fill="#ec4899"/><circle cx="152.0" cy="266.8" r="3" fill="#ec4899"/><circle cx="152.0" cy="288.4" r="3" fill="#ec4899"/><circle cx="131.1" cy="297.1" r="3" fill="#ec4899"/><circle cx="111.5" cy="299.1" r="3" fill="#ec4899"/><circle cx="95.9" cy="299.8" r="3" fill="#ec4899"/><circle cx="82.0" cy="300.0" r="3" fill="#ec4899"/><circle cx="68.1" cy="299.8" r="3" fill="#ec4899"/><circle cx="52.5" cy="299.1" r="3" fill="#ec4899"/><circle cx="32.9" cy="297.1" r="3" fill="#ec4899"/><circle cx="12.0" cy="288.4" r="3" fill="#ec4899"/><circle cx="12.0" cy="266.8" r="3" fill="#ec4899"/><circle cx="12.0" cy="248.0" r="3" fill="#ec4899"/><circle cx="12.0" cy="229.2" r="3" fill="#ec4899"/><circle cx="12.0" cy="207.6" r="3" fill="#ec4899"/><circle cx="32.9" cy="198.9" r="3" fill="#ec4899"/><circle cx="52.5" cy="196.9" r="3" fill="#ec4899"/><circle cx="68.1" cy="196.2" r="3" fill="#ec4899"/><circle cx="82.0" cy="196.0" r="3" fill="#ec4899"/><circle cx="95.9" cy="196.2" r="3" fill="#ec4899"/><circle cx="111.5" cy="196.9" r="3" fill="#ec4899"/><circle cx="131.1" cy="198.9" r="3" fill="#ec4899"/><circle cx="152.0" cy="207.6" r="3" fill="#ec4899"/><circle cx="152.0" cy="229.2" r="3" fill="#ec4899"/></g><g class="lgdl-node" data-lgdl-loc="nodes[1]"><path d="M 248,206 L 248,290 A 70,10 0 0 0 388,290 L 388,206 A 70,10 0 0 0 248,206 Z" fill="#fce7f3" stroke="#ec4899" stroke-width="1.5"/><text x="318" y="222.5" font-family="'Segoe UI', 'PingFang SC', 'Microsoft YaHei', sans-serif" font-size="13" fill="#1f2937" text-anchor="middle" dominant-baseline="middle">订单</text><text x="318" y="239.5" font-family="'Segoe UI', 'PingFang SC', 'Microsoft YaHei', sans-serif" font-size="13" fill="#1f2937" text-anchor="middle" dominant-baseline="middle">id</text><text x="318" y="256.5" font-family="'Segoe UI', 'PingFang SC', 'Microsoft YaHei', sans-serif" font-size="13" fill="#1f2937" text-anchor="middle" dominant-baseline="middle">userId</text><text x="318" y="273.5" font-family="'Segoe UI', 'PingFang SC', 'Microsoft YaHei', sans-serif" font-size="13" fill="#1f2937" text-anchor="middle" dominant-baseline="middle">amount</text></g><g class="lgdl-anchors"><circle cx="388.0" cy="248.0" r="3" fill="#ec4899"/><circle cx="388.0" cy="266.8" r="3" fill="#ec4899"/><circle cx="388.0" cy="288.4" r="3" fill="#ec4899"/><circle cx="367.1" cy="297.1" r="3" fill="#ec4899"/><circle cx="347.5" cy="299.1" r="3" fill="#ec4899"/><circle cx="331.9" cy="299.8" r="3" fill="#ec4899"/><circle cx="318.0" cy="300.0" r="3" fill="#ec4899"/><circle cx="304.1" cy="299.8" r="3" fill="#ec4899"/><circle cx="288.5" cy="299.1" r="3" fill="#ec4899"/><circle cx="268.9" cy="297.1" r="3" fill="#ec4899"/><circle cx="248.0" cy="288.4" r="3" fill="#ec4899"/><circle cx="248.0" cy="266.8" r="3" fill="#ec4899"/><circle cx="248.0" cy="248.0" r="3" fill="#ec4899"/><circle cx="248.0" cy="229.2" r="3" fill="#ec4899"/><circle cx="248.0" cy="207.6" r="3" fill="#ec4899"/><circle cx="268.9" cy="198.9" r="3" fill="#ec4899"/><circle cx="288.5" cy="196.9" r="3" fill="#ec4899"/><circle cx="304.1" cy="196.2" r="3" fill="#ec4899"/><circle cx="318.0" cy="196.0" r="3" fill="#ec4899"/><circle cx="331.9" cy="196.2" r="3" fill="#ec4899"/><circle cx="347.5" cy="196.9" r="3" fill="#ec4899"/><circle cx="367.1" cy="198.9" r="3" fill="#ec4899"/><circle cx="388.0" cy="207.6" r="3" fill="#ec4899"/><circle cx="388.0" cy="229.2" r="3" fill="#ec4899"/></g><g class="lgdl-node" data-lgdl-loc="nodes[2]"><path d="M 248,22 L 248,106 A 70,10 0 0 0 388,106 L 388,22 A 70,10 0 0 0 248,22 Z" fill="#fce7f3" stroke="#ec4899" stroke-width="1.5"/><text x="318" y="38.5" font-family="'Segoe UI', 'PingFang SC', 'Microsoft YaHei', sans-serif" font-size="13" fill="#1f2937" text-anchor="middle" dominant-baseline="middle">商品</text><text x="318" y="55.5" font-family="'Segoe UI', 'PingFang SC', 'Microsoft YaHei', sans-serif" font-size="13" fill="#1f2937" text-anchor="middle" dominant-baseline="middle">id</text><text x="318" y="72.5" font-family="'Segoe UI', 'PingFang SC', 'Microsoft YaHei', sans-serif" font-size="13" fill="#1f2937" text-anchor="middle" dominant-baseline="middle">name</text><text x="318" y="89.5" font-family="'Segoe UI', 'PingFang SC', 'Microsoft YaHei', sans-serif" font-size="13" fill="#1f2937" text-anchor="middle" dominant-baseline="middle">price</text></g><g class="lgdl-anchors"><circle cx="388.0" cy="64.0" r="3" fill="#ec4899"/><circle cx="388.0" cy="82.8" r="3" fill="#ec4899"/><circle cx="388.0" cy="104.4" r="3" fill="#ec4899"/><circle cx="367.1" cy="113.1" r="3" fill="#ec4899"/><circle cx="347.5" cy="115.1" r="3" fill="#ec4899"/><circle cx="331.9" cy="115.8" r="3" fill="#ec4899"/><circle cx="318.0" cy="116.0" r="3" fill="#ec4899"/><circle cx="304.1" cy="115.8" r="3" fill="#ec4899"/><circle cx="288.5" cy="115.1" r="3" fill="#ec4899"/><circle cx="268.9" cy="113.1" r="3" fill="#ec4899"/><circle cx="248.0" cy="104.4" r="3" fill="#ec4899"/><circle cx="248.0" cy="82.8" r="3" fill="#ec4899"/><circle cx="248.0" cy="64.0" r="3" fill="#ec4899"/><circle cx="248.0" cy="45.2" r="3" fill="#ec4899"/><circle cx="248.0" cy="23.6" r="3" fill="#ec4899"/><circle cx="268.9" cy="14.9" r="3" fill="#ec4899"/><circle cx="288.5" cy="12.9" r="3" fill="#ec4899"/><circle cx="304.1" cy="12.2" r="3" fill="#ec4899"/><circle cx="318.0" cy="12.0" r="3" fill="#ec4899"/><circle cx="331.9" cy="12.2" r="3" fill="#ec4899"/><circle cx="347.5" cy="12.9" r="3" fill="#ec4899"/><circle cx="367.1" cy="14.9" r="3" fill="#ec4899"/><circle cx="388.0" cy="23.6" r="3" fill="#ec4899"/><circle cx="388.0" cy="45.2" r="3" fill="#ec4899"/></g><g class="lgdl-node" data-lgdl-loc="nodes[3]"><path d="M 484,39 L 484,123 A 70,10 0 0 0 624,123 L 624,39 A 70,10 0 0 0 484,39 Z" fill="#fce7f3" stroke="#ec4899" stroke-width="1.5"/><text x="554" y="55.5" font-family="'Segoe UI', 'PingFang SC', 'Microsoft YaHei', sans-serif" font-size="13" fill="#1f2937" text-anchor="middle" dominant-baseline="middle">订单项</text><text x="554" y="72.5" font-family="'Segoe UI', 'PingFang SC', 'Microsoft YaHei', sans-serif" font-size="13" fill="#1f2937" text-anchor="middle" dominant-baseline="middle">id</text><text x="554" y="89.5" font-family="'Segoe UI', 'PingFang SC', 'Microsoft YaHei', sans-serif" font-size="13" fill="#1f2937" text-anchor="middle" dominant-baseline="middle">orderId</text><text x="554" y="106.5" font-family="'Segoe UI', 'PingFang SC', 'Microsoft YaHei', sans-serif" font-size="13" fill="#1f2937" text-anchor="middle" dominant-baseline="middle">productId</text></g><g class="lgdl-anchors"><circle cx="624.0" cy="81.0" r="3" fill="#ec4899"/><circle cx="624.0" cy="99.8" r="3" fill="#ec4899"/><circle cx="624.0" cy="121.4" r="3" fill="#ec4899"/><circle cx="603.1" cy="130.1" r="3" fill="#ec4899"/><circle cx="583.5" cy="132.1" r="3" fill="#ec4899"/><circle cx="567.9" cy="132.8" r="3" fill="#ec4899"/><circle cx="554.0" cy="133.0" r="3" fill="#ec4899"/><circle cx="540.1" cy="132.8" r="3" fill="#ec4899"/><circle cx="524.5" cy="132.1" r="3" fill="#ec4899"/><circle cx="504.9" cy="130.1" r="3" fill="#ec4899"/><circle cx="484.0" cy="121.4" r="3" fill="#ec4899"/><circle cx="484.0" cy="99.8" r="3" fill="#ec4899"/><circle cx="484.0" cy="81.0" r="3" fill="#ec4899"/><circle cx="484.0" cy="62.2" r="3" fill="#ec4899"/><circle cx="484.0" cy="40.6" r="3" fill="#ec4899"/><circle cx="504.9" cy="31.9" r="3" fill="#ec4899"/><circle cx="524.5" cy="29.9" r="3" fill="#ec4899"/><circle cx="540.1" cy="29.2" r="3" fill="#ec4899"/><circle cx="554.0" cy="29.0" r="3" fill="#ec4899"/><circle cx="567.9" cy="29.2" r="3" fill="#ec4899"/><circle cx="583.5" cy="29.9" r="3" fill="#ec4899"/><circle cx="603.1" cy="31.9" r="3" fill="#ec4899"/><circle cx="624.0" cy="40.6" r="3" fill="#ec4899"/><circle cx="624.0" cy="62.2" r="3" fill="#ec4899"/></g><g class="lgdl-edge" data-lgdl-loc="edges[0]"><path d="M 152,248 L 248,248" fill="none" stroke="#6b7280" stroke-width="1.5" marker-end="url(#arrowhead)"/><text x="200" y="244" font-family="'Segoe UI', 'PingFang SC', 'Microsoft YaHei', sans-serif" font-size="12" fill="#6b7280" text-anchor="middle" dominant-baseline="middle">拥有</text><text x="174" y="242" font-family="'Segoe UI', 'PingFang SC', 'Microsoft YaHei', sans-serif" font-size="12" fill="#b45309" text-anchor="middle" dominant-baseline="middle">1</text><text x="226" y="242" font-family="'Segoe UI', 'PingFang SC', 'Microsoft YaHei', sans-serif" font-size="12" fill="#b45309" text-anchor="middle" dominant-baseline="middle">*</text></g><g class="lgdl-edge-anchors"><circle cx="152.0" cy="248.0" r="3.5" fill="#6b7280"/><circle cx="248.0" cy="248.0" r="3.5" fill="#6b7280"/></g><g class="lgdl-edge" data-lgdl-loc="edges[1]"><path d="M 388,248 L 398,248 L 398,99 L 398,81 L 484,81" fill="none" stroke="#6b7280" stroke-width="1.5" marker-end="url(#arrowhead)"/><text x="398" y="169.33333333333334" font-family="'Segoe UI', 'PingFang SC', 'Microsoft YaHei', sans-serif" font-size="12" fill="#6b7280" text-anchor="middle" dominant-baseline="middle">包含</text><text x="398.96421885660016" y="222.9268276140393" font-family="'Segoe UI', 'PingFang SC', 'Microsoft YaHei', sans-serif" font-size="12" fill="#b45309" text-anchor="middle" dominant-baseline="middle">1</text><text x="473.03578114339984" y="94.0731723859607" font-family="'Segoe UI', 'PingFang SC', 'Microsoft YaHei', sans-serif" font-size="12" fill="#b45309" text-anchor="middle" dominant-baseline="middle">*</text></g><g class="lgdl-edge-anchors"><circle cx="388.0" cy="248.0" r="3.5" fill="#6b7280"/><circle cx="484.0" cy="81.0" r="3.5" fill="#6b7280"/></g><g class="lgdl-edge" data-lgdl-loc="edges[2]"><path d="M 388,64 L 388,81 L 484,81" fill="none" stroke="#6b7280" stroke-width="1.5" marker-end="url(#arrowhead)"/><text x="436" y="76.99999999999999" font-family="'Segoe UI', 'PingFang SC', 'Microsoft YaHei', sans-serif" font-size="12" fill="#6b7280" text-anchor="middle" dominant-baseline="middle">关联</text><text x="409.6629627662684" y="61.836149656526686" font-family="'Segoe UI', 'PingFang SC', 'Microsoft YaHei', sans-serif" font-size="12" fill="#b45309" text-anchor="middle" dominant-baseline="middle">1</text><text x="462.3370372337316" y="71.1638503434733" font-family="'Segoe UI', 'PingFang SC', 'Microsoft YaHei', sans-serif" font-size="12" fill="#b45309" text-anchor="middle" dominant-baseline="middle">*</text></g><g class="lgdl-edge-anchors"><circle cx="388.0" cy="64.0" r="3.5" fill="#6b7280"/><circle cx="484.0" cy="81.0" r="3.5" fill="#6b7280"/></g></svg>