<svg xmlns="http://www.w3.org/2000/svg" width="596" height="328" viewBox="0 0 596 328"><defs><marker id="arrowhead" markerWidth="10" markerHeight="7" refX="10" refY="3.5" orient="auto"><polygon points="0 0, 10 3.5, 0 7" fill="#6b7280"/></marker><marker id="arrowhead-purple" markerWidth="10" markerHeight="7" refX="10" refY="3.5" orient="auto"><polygon points="0 0, 10 3.5, 0 7" fill="#7c3aed"/></marker></defs><style>.lgdl-anchors,.lgdl-edge-anchors{opacity:0;pointer-events:none;transition:opacity .12s ease}.lgdl-node:hover + .lgdl-anchors,.lgdl-class:hover + .lgdl-anchors{opacity:1}.lgdl-edge:hover + .lgdl-edge-anchors,.lgdl-aggregate-edge:hover + .lgdl-edge-anchors{opacity:1}</style><rect x="0" y="0" width="596" height="328" fill="#ffffff"/><g class="lgdl-node" fill="#fce7f3" stroke="#ec4899" stroke-width="1.5"><path d="M 40,50 L 40,134 A 70,10 0 0 0 180,134 L 180,50 A 70,10 0 0 1 40,50 Z"/><text x="110" y="66.5" font-family="'Segoe UI', 'PingFang SC', 'Microsoft YaHei', sans-serif" font-size="13" fill="#1f2937" text-anchor="middle" dominant-baseline="middle">用户</text><text x="110" y="83.5" font-family="'Segoe UI', 'PingFang SC', 'Microsoft YaHei', sans-serif" font-size="13" fill="#1f2937" text-anchor="middle" dominant-baseline="middle">id</text><text x="110" y="100.5" font-family="'Segoe UI', 'PingFang SC', 'Microsoft YaHei', sans-serif" font-size="13" fill="#1f2937" text-anchor="middle" dominant-baseline="middle">name</text><text x="110" y="117.5" font-family="'Segoe UI', 'PingFang SC', 'Microsoft YaHei', sans-serif" font-size="13" fill="#1f2937" text-anchor="middle" dominant-baseline="middle">email</text></g><g class="lgdl-anchors"><circle cx="180.0" cy="92.0" r="3" fill="#ec4899"/><circle cx="159.1" cy="141.1" r="3" fill="#ec4899"/><circle cx="110.0" cy="144.0" r="3" fill="#ec4899"/><circle cx="60.9" cy="141.1" r="3" fill="#ec4899"/><circle cx="40.0" cy="92.0" r="3" fill="#ec4899"/><circle cx="60.9" cy="42.9" r="3" fill="#ec4899"/><circle cx="110.0" cy="40.0" r="3" fill="#ec4899"/><circle cx="159.1" cy="42.9" r="3" fill="#ec4899"/></g><g class="lgdl-node" fill="#fce7f3" stroke="#ec4899" stroke-width="1.5"><path d="M 228,50 L 228,134 A 70,10 0 0 0 368,134 L 368,50 A 70,10 0 0 1 228,50 Z"/><text x="298" y="66.5" font-family="'Segoe UI', 'PingFang SC', 'Microsoft YaHei', sans-serif" font-size="13" fill="#1f2937" text-anchor="middle" dominant-baseline="middle">订单</text><text x="298" y="83.5" font-family="'Segoe UI', 'PingFang SC', 'Microsoft YaHei', sans-serif" font-size="13" fill="#1f2937" text-anchor="middle" dominant-baseline="middle">id</text><text x="298" y="100.5" font-family="'Segoe UI', 'PingFang SC', 'Microsoft YaHei', sans-serif" font-size="13" fill="#1f2937" text-anchor="middle" dominant-baseline="middle">userId</text><text x="298" y="117.5" font-family="'Segoe UI', 'PingFang SC', 'Microsoft YaHei', sans-serif" font-size="13" fill="#1f2937" text-anchor="middle" dominant-baseline="middle">amount</text></g><g class="lgdl-anchors"><circle cx="368.0" cy="92.0" r="3" fill="#ec4899"/><circle cx="347.1" cy="141.1" r="3" fill="#ec4899"/><circle cx="298.0" cy="144.0" r="3" fill="#ec4899"/><circle cx="248.9" cy="141.1" r="3" fill="#ec4899"/><circle cx="228.0" cy="92.0" r="3" fill="#ec4899"/><circle cx="248.9" cy="42.9" r="3" fill="#ec4899"/><circle cx="298.0" cy="40.0" r="3" fill="#ec4899"/><circle cx="347.1" cy="42.9" r="3" fill="#ec4899"/></g><g class="lgdl-node" fill="#fce7f3" stroke="#ec4899" stroke-width="1.5"><path d="M 228,194 L 228,278 A 70,10 0 0 0 368,278 L 368,194 A 70,10 0 0 1 228,194 Z"/><text x="298" y="210.5" font-family="'Segoe UI', 'PingFang SC', 'Microsoft YaHei', sans-serif" font-size="13" fill="#1f2937" text-anchor="middle" dominant-baseline="middle">商品</text><text x="298" y="227.5" font-family="'Segoe UI', 'PingFang SC', 'Microsoft YaHei', sans-serif" font-size="13" fill="#1f2937" text-anchor="middle" dominant-baseline="middle">id</text><text x="298" y="244.5" font-family="'Segoe UI', 'PingFang SC', 'Microsoft YaHei', sans-serif" font-size="13" fill="#1f2937" text-anchor="middle" dominant-baseline="middle">name</text><text x="298" y="261.5" font-family="'Segoe UI', 'PingFang SC', 'Microsoft YaHei', sans-serif" font-size="13" fill="#1f2937" text-anchor="middle" dominant-baseline="middle">price</text></g><g class="lgdl-anchors"><circle cx="368.0" cy="236.0" r="3" fill="#ec4899"/><circle cx="347.1" cy="285.1" r="3" fill="#ec4899"/><circle cx="298.0" cy="288.0" r="3" fill="#ec4899"/><circle cx="248.9" cy="285.1" r="3" fill="#ec4899"/><circle cx="228.0" cy="236.0" r="3" fill="#ec4899"/><circle cx="248.9" cy="186.9" r="3" fill="#ec4899"/><circle cx="298.0" cy="184.0" r="3" fill="#ec4899"/><circle cx="347.1" cy="186.9" r="3" fill="#ec4899"/></g><g class="lgdl-node" fill="#fce7f3" stroke="#ec4899" stroke-width="1.5"><path d="M 416,122 L 416,206 A 70,10 0 0 0 556,206 L 556,122 A 70,10 0 0 1 416,122 Z"/><text x="486" y="138.5" font-family="'Segoe UI', 'PingFang SC', 'Microsoft YaHei', sans-serif" font-size="13" fill="#1f2937" text-anchor="middle" dominant-baseline="middle">订单项</text><text x="486" y="155.5" font-family="'Segoe UI', 'PingFang SC', 'Microsoft YaHei', sans-serif" font-size="13" fill="#1f2937" text-anchor="middle" dominant-baseline="middle">id</text><text x="486" y="172.5" font-family="'Segoe UI', 'PingFang SC', 'Microsoft YaHei', sans-serif" font-size="13" fill="#1f2937" text-anchor="middle" dominant-baseline="middle">orderId</text><text x="486" y="189.5" font-family="'Segoe UI', 'PingFang SC', 'Microsoft YaHei', sans-serif" font-size="13" fill="#1f2937" text-anchor="middle" dominant-baseline="middle">productId</text></g><g class="lgdl-anchors"><circle cx="556.0" cy="164.0" r="3" fill="#ec4899"/><circle cx="535.1" cy="213.1" r="3" fill="#ec4899"/><circle cx="486.0" cy="216.0" r="3" fill="#ec4899"/><circle cx="436.9" cy="213.1" r="3" fill="#ec4899"/><circle cx="416.0" cy="164.0" r="3" fill="#ec4899"/><circle cx="436.9" cy="114.9" r="3" fill="#ec4899"/><circle cx="486.0" cy="112.0" r="3" fill="#ec4899"/><circle cx="535.1" cy="114.9" r="3" fill="#ec4899"/></g><g class="lgdl-edge"><path d="M 180,92 L 204,92 L 228,92.00000000000001" fill="none" stroke="#6b7280" stroke-width="1.5" marker-end="url(#arrowhead)"/><text x="216" y="88" font-family="'Segoe UI', 'PingFang SC', 'Microsoft YaHei', sans-serif" font-size="12" fill="#6b7280" text-anchor="middle" dominant-baseline="middle">拥有</text><text x="202" y="86" font-family="'Segoe UI', 'PingFang SC', 'Microsoft YaHei', sans-serif" font-size="12" fill="#b45309" text-anchor="middle" dominant-baseline="middle">1</text><text x="206" y="86.00000000000001" font-family="'Segoe UI', 'PingFang SC', 'Microsoft YaHei', sans-serif" font-size="12" fill="#b45309" text-anchor="middle" dominant-baseline="middle">*</text></g><g class="lgdl-edge-anchors"><circle cx="180.0" cy="92.0" r="3.5" fill="#6b7280"/><circle cx="228.0" cy="92.0" r="3.5" fill="#6b7280"/></g><g class="lgdl-edge"><path d="M 368,92 L 392,92 L 436.8759809141364,114.87598091413639" fill="none" stroke="#6b7280" stroke-width="1.5" marker-end="url(#arrowhead)"/><text x="414.43799045706817" y="99.4379904570682" font-family="'Segoe UI', 'PingFang SC', 'Microsoft YaHei', sans-serif" font-size="12" fill="#6b7280" text-anchor="middle" dominant-baseline="middle">包含</text><text x="388.8785392078873" y="92.93445026982766" font-family="'Segoe UI', 'PingFang SC', 'Microsoft YaHei', sans-serif" font-size="12" fill="#b45309" text-anchor="middle" dominant-baseline="middle">1</text><text x="415.9974417062491" y="101.94153064430873" font-family="'Segoe UI', 'PingFang SC', 'Microsoft YaHei', sans-serif" font-size="12" fill="#b45309" text-anchor="middle" dominant-baseline="middle">*</text></g><g class="lgdl-edge-anchors"><circle cx="368.0" cy="92.0" r="3.5" fill="#6b7280"/><circle cx="436.9" cy="114.9" r="3.5" fill="#6b7280"/></g><g class="lgdl-edge"><path d="M 368,236 L 392,236 L 436.8759809141364,213.1240190858636" fill="none" stroke="#6b7280" stroke-width="1.5" marker-end="url(#arrowhead)"/><text x="402.43799045706817" y="220.5620095429318" font-family="'Segoe UI', 'PingFang SC', 'Microsoft YaHei', sans-serif" font-size="12" fill="#6b7280" text-anchor="middle" dominant-baseline="middle">关联</text><text x="388.8785392078873" y="223.06554973017234" font-family="'Segoe UI', 'PingFang SC', 'Microsoft YaHei', sans-serif" font-size="12" fill="#b45309" text-anchor="middle" dominant-baseline="middle">1</text><text x="415.9974417062491" y="214.05846935569127" font-family="'Segoe UI', 'PingFang SC', 'Microsoft YaHei', sans-serif" font-size="12" fill="#b45309" text-anchor="middle" dominant-baseline="middle">*</text></g><g class="lgdl-edge-anchors"><circle cx="368.0" cy="236.0" r="3.5" fill="#6b7280"/><circle cx="436.9" cy="213.1" r="3.5" fill="#6b7280"/></g></svg>