<svg xmlns="http://www.w3.org/2000/svg" width="240" height="788" viewBox="0 0 240 788"><defs><marker id="arrowhead" markerWidth="10" markerHeight="7" refX="10" refY="3.5" orient="auto"><polygon points="0 0, 10 3.5, 0 7" fill="#6b7280"/></marker><marker id="arrowhead-purple" markerWidth="10" markerHeight="7" refX="10" refY="3.5" orient="auto"><polygon points="0 0, 10 3.5, 0 7" fill="#7c3aed"/></marker></defs><style>.lgdl-anchors,.lgdl-edge-anchors{opacity:0;pointer-events:none;transition:opacity .12s ease}.lgdl-node:hover + .lgdl-anchors,.lgdl-class:hover + .lgdl-anchors,.lgdl-group:hover + .lgdl-anchors,.lgdl-lane:hover + .lgdl-anchors{opacity:1}.lgdl-edge:hover + .lgdl-edge-anchors,.lgdl-aggregate-edge:hover + .lgdl-edge-anchors{opacity:1}.lgdl-node.lgdl-hovered + .lgdl-anchors,.lgdl-class.lgdl-hovered + .lgdl-anchors,.lgdl-group.lgdl-hovered + .lgdl-anchors,.lgdl-lane.lgdl-hovered + .lgdl-anchors{opacity:1}.lgdl-edge.lgdl-hovered + .lgdl-edge-anchors,.lgdl-aggregate-edge.lgdl-hovered + .lgdl-edge-anchors{opacity:1}.lgdl-hovered{filter:drop-shadow(0 0 3px rgba(79,70,229,.65))}</style><rect x="0" y="0" width="240" height="788" fill="#ffffff"/><g class="lgdl-group" data-lgdl-loc="groups[0]"><rect x="80" y="40" width="160" height="118" rx="8" fill="#eff6ff" stroke="#d1d5db" stroke-dasharray="6 4"/><text x="92" y="58" font-family="'Segoe UI', 'PingFang SC', 'Microsoft YaHei', sans-serif" font-size="12" fill="#6b7280" text-anchor="start" dominant-baseline="middle">接入层</text></g><g class="lgdl-anchors"><circle cx="240.0" cy="99.0" r="3" fill="#64748b"/><circle cx="240.0" cy="120.4" r="3" fill="#64748b"/><circle cx="240.0" cy="145.2" r="3" fill="#64748b"/><circle cx="219.0" cy="158.0" r="3" fill="#64748b"/><circle cx="194.1" cy="158.0" r="3" fill="#64748b"/><circle cx="175.8" cy="158.0" r="3" fill="#64748b"/><circle cx="160.0" cy="158.0" r="3" fill="#64748b"/><circle cx="144.2" cy="158.0" r="3" fill="#64748b"/><circle cx="125.9" cy="158.0" r="3" fill="#64748b"/><circle cx="101.0" cy="158.0" r="3" fill="#64748b"/><circle cx="80.0" cy="145.2" r="3" fill="#64748b"/><circle cx="80.0" cy="120.4" r="3" fill="#64748b"/><circle cx="80.0" cy="99.0" r="3" fill="#64748b"/><circle cx="80.0" cy="77.6" r="3" fill="#64748b"/><circle cx="80.0" cy="52.8" r="3" fill="#64748b"/><circle cx="101.0" cy="40.0" r="3" fill="#64748b"/><circle cx="125.9" cy="40.0" r="3" fill="#64748b"/><circle cx="144.2" cy="40.0" r="3" fill="#64748b"/><circle cx="160.0" cy="40.0" r="3" fill="#64748b"/><circle cx="175.8" cy="40.0" r="3" fill="#64748b"/><circle cx="194.1" cy="40.0" r="3" fill="#64748b"/><circle cx="219.0" cy="40.0" r="3" fill="#64748b"/><circle cx="240.0" cy="52.8" r="3" fill="#64748b"/><circle cx="240.0" cy="77.6" r="3" fill="#64748b"/></g><g class="lgdl-group" data-lgdl-loc="groups[1]"><rect x="60" y="284" width="200" height="278" rx="8" fill="#ecfdf5" stroke="#d1d5db" stroke-dasharray="6 4"/><text x="72" y="302" font-family="'Segoe UI', 'PingFang SC', 'Microsoft YaHei', sans-serif" font-size="12" fill="#6b7280" text-anchor="start" dominant-baseline="middle">业务层</text></g><g class="lgdl-anchors"><circle cx="260.0" cy="423.0" r="3" fill="#64748b"/><circle cx="260.0" cy="449.8" r="3" fill="#64748b"/><circle cx="260.0" cy="480.7" r="3" fill="#64748b"/><circle cx="260.0" cy="523.0" r="3" fill="#64748b"/><circle cx="240.3" cy="562.0" r="3" fill="#64748b"/><circle cx="197.2" cy="562.0" r="3" fill="#64748b"/><circle cx="160.0" cy="562.0" r="3" fill="#64748b"/><circle cx="122.8" cy="562.0" r="3" fill="#64748b"/><circle cx="79.7" cy="562.0" r="3" fill="#64748b"/><circle cx="60.0" cy="523.0" r="3" fill="#64748b"/><circle cx="60.0" cy="480.7" r="3" fill="#64748b"/><circle cx="60.0" cy="449.8" r="3" fill="#64748b"/><circle cx="60.0" cy="423.0" r="3" fill="#64748b"/><circle cx="60.0" cy="396.2" r="3" fill="#64748b"/><circle cx="60.0" cy="365.3" r="3" fill="#64748b"/><circle cx="60.0" cy="323.0" r="3" fill="#64748b"/><circle cx="79.7" cy="284.0" r="3" fill="#64748b"/><circle cx="122.8" cy="284.0" r="3" fill="#64748b"/><circle cx="160.0" cy="284.0" r="3" fill="#64748b"/><circle cx="197.2" cy="284.0" r="3" fill="#64748b"/><circle cx="240.3" cy="284.0" r="3" fill="#64748b"/><circle cx="260.0" cy="323.0" r="3" fill="#64748b"/><circle cx="260.0" cy="365.3" r="3" fill="#64748b"/><circle cx="260.0" cy="396.2" r="3" fill="#64748b"/></g><g class="lgdl-group" data-lgdl-loc="groups[2]"><rect x="70" y="688" width="180" height="130" rx="8" fill="#fffbeb" stroke="#d1d5db" stroke-dasharray="6 4"/><text x="82" y="706" font-family="'Segoe UI', 'PingFang SC', 'Microsoft YaHei', sans-serif" font-size="12" fill="#6b7280" text-anchor="start" dominant-baseline="middle">数据层</text></g><g class="lgdl-anchors"><circle cx="250.0" cy="753.0" r="3" fill="#64748b"/><circle cx="250.0" cy="777.1" r="3" fill="#64748b"/><circle cx="250.0" cy="805.0" r="3" fill="#64748b"/><circle cx="225.0" cy="818.0" r="3" fill="#64748b"/><circle cx="197.5" cy="818.0" r="3" fill="#64748b"/><circle cx="177.4" cy="818.0" r="3" fill="#64748b"/><circle cx="160.0" cy="818.0" r="3" fill="#64748b"/><circle cx="142.6" cy="818.0" r="3" fill="#64748b"/><circle cx="122.5" cy="818.0" r="3" fill="#64748b"/><circle cx="95.0" cy="818.0" r="3" fill="#64748b"/><circle cx="70.0" cy="805.0" r="3" fill="#64748b"/><circle cx="70.0" cy="777.1" r="3" fill="#64748b"/><circle cx="70.0" cy="753.0" r="3" fill="#64748b"/><circle cx="70.0" cy="728.9" r="3" fill="#64748b"/><circle cx="70.0" cy="701.0" r="3" fill="#64748b"/><circle cx="95.0" cy="688.0" r="3" fill="#64748b"/><circle cx="122.5" cy="688.0" r="3" fill="#64748b"/><circle cx="142.6" cy="688.0" r="3" fill="#64748b"/><circle cx="160.0" cy="688.0" r="3" fill="#64748b"/><circle cx="177.4" cy="688.0" r="3" fill="#64748b"/><circle cx="197.5" cy="688.0" r="3" fill="#64748b"/><circle cx="225.0" cy="688.0" r="3" fill="#64748b"/><circle cx="250.0" cy="701.0" r="3" fill="#64748b"/><circle cx="250.0" cy="728.9" r="3" fill="#64748b"/></g><g class="lgdl-node" data-lgdl-loc="nodes[0]"><rect x="100" y="90" width="120" height="48" rx="60" ry="60" fill="#dbeafe" stroke="#3b82f6" stroke-width="1.5"/><text x="160" y="114" font-family="'Segoe UI', 'PingFang SC', 'Microsoft YaHei', sans-serif" font-size="13" fill="#1f2937" text-anchor="middle" dominant-baseline="middle">客户端</text></g><g class="lgdl-anchors"><circle cx="220.0" cy="114.0" r="3" fill="#3b82f6"/><circle cx="209.8" cy="127.4" r="3" fill="#3b82f6"/><circle cx="194.2" cy="133.7" r="3" fill="#3b82f6"/><circle cx="182.3" cy="136.3" r="3" fill="#3b82f6"/><circle cx="173.5" cy="137.4" r="3" fill="#3b82f6"/><circle cx="166.4" cy="137.9" r="3" fill="#3b82f6"/><circle cx="160.0" cy="138.0" r="3" fill="#3b82f6"/><circle cx="153.6" cy="137.9" r="3" fill="#3b82f6"/><circle cx="146.5" cy="137.4" r="3" fill="#3b82f6"/><circle cx="137.7" cy="136.3" r="3" fill="#3b82f6"/><circle cx="125.8" cy="133.7" r="3" fill="#3b82f6"/><circle cx="110.2" cy="127.4" r="3" fill="#3b82f6"/><circle cx="100.0" cy="114.0" r="3" fill="#3b82f6"/><circle cx="110.2" cy="100.6" r="3" fill="#3b82f6"/><circle cx="125.8" cy="94.3" r="3" fill="#3b82f6"/><circle cx="137.7" cy="91.7" r="3" fill="#3b82f6"/><circle cx="146.5" cy="90.6" r="3" fill="#3b82f6"/><circle cx="153.6" cy="90.1" r="3" fill="#3b82f6"/><circle cx="160.0" cy="90.0" r="3" fill="#3b82f6"/><circle cx="166.4" cy="90.1" r="3" fill="#3b82f6"/><circle cx="173.5" cy="90.6" r="3" fill="#3b82f6"/><circle cx="182.3" cy="91.7" r="3" fill="#3b82f6"/><circle cx="194.2" cy="94.3" r="3" fill="#3b82f6"/><circle cx="209.8" cy="100.6" r="3" fill="#3b82f6"/></g><g class="lgdl-node" data-lgdl-loc="nodes[1]"><rect x="80" y="334" width="160" height="56" rx="6" ry="6" fill="#ffffff" stroke="#6b7280" stroke-width="1.5"/><text x="160" y="362" font-family="'Segoe UI', 'PingFang SC', 'Microsoft YaHei', sans-serif" font-size="13" fill="#1f2937" text-anchor="middle" dominant-baseline="middle">认证服务</text></g><g class="lgdl-anchors"><circle cx="240.0" cy="362.0" r="3" fill="#6b7280"/><circle cx="240.0" cy="383.4" r="3" fill="#6b7280"/><circle cx="208.5" cy="390.0" r="3" fill="#6b7280"/><circle cx="188.0" cy="390.0" r="3" fill="#6b7280"/><circle cx="176.2" cy="390.0" r="3" fill="#6b7280"/><circle cx="167.5" cy="390.0" r="3" fill="#6b7280"/><circle cx="160.0" cy="390.0" r="3" fill="#6b7280"/><circle cx="152.5" cy="390.0" r="3" fill="#6b7280"/><circle cx="143.8" cy="390.0" r="3" fill="#6b7280"/><circle cx="132.0" cy="390.0" r="3" fill="#6b7280"/><circle cx="111.5" cy="390.0" r="3" fill="#6b7280"/><circle cx="80.0" cy="383.4" r="3" fill="#6b7280"/><circle cx="80.0" cy="362.0" r="3" fill="#6b7280"/><circle cx="80.0" cy="340.6" r="3" fill="#6b7280"/><circle cx="111.5" cy="334.0" r="3" fill="#6b7280"/><circle cx="132.0" cy="334.0" r="3" fill="#6b7280"/><circle cx="143.8" cy="334.0" r="3" fill="#6b7280"/><circle cx="152.5" cy="334.0" r="3" fill="#6b7280"/><circle cx="160.0" cy="334.0" r="3" fill="#6b7280"/><circle cx="167.5" cy="334.0" r="3" fill="#6b7280"/><circle cx="176.2" cy="334.0" r="3" fill="#6b7280"/><circle cx="188.0" cy="334.0" r="3" fill="#6b7280"/><circle cx="208.5" cy="334.0" r="3" fill="#6b7280"/><circle cx="240.0" cy="340.6" r="3" fill="#6b7280"/></g><g class="lgdl-node" data-lgdl-loc="nodes[2]"><rect x="80" y="486" width="160" height="56" rx="6" ry="6" fill="#ffffff" stroke="#6b7280" stroke-width="1.5"/><text x="160" y="514" font-family="'Segoe UI', 'PingFang SC', 'Microsoft YaHei', sans-serif" font-size="13" fill="#1f2937" text-anchor="middle" dominant-baseline="middle">订单服务</text></g><g class="lgdl-anchors"><circle cx="240.0" cy="514.0" r="3" fill="#6b7280"/><circle cx="240.0" cy="535.4" r="3" fill="#6b7280"/><circle cx="208.5" cy="542.0" r="3" fill="#6b7280"/><circle cx="188.0" cy="542.0" r="3" fill="#6b7280"/><circle cx="176.2" cy="542.0" r="3" fill="#6b7280"/><circle cx="167.5" cy="542.0" r="3" fill="#6b7280"/><circle cx="160.0" cy="542.0" r="3" fill="#6b7280"/><circle cx="152.5" cy="542.0" r="3" fill="#6b7280"/><circle cx="143.8" cy="542.0" r="3" fill="#6b7280"/><circle cx="132.0" cy="542.0" r="3" fill="#6b7280"/><circle cx="111.5" cy="542.0" r="3" fill="#6b7280"/><circle cx="80.0" cy="535.4" r="3" fill="#6b7280"/><circle cx="80.0" cy="514.0" r="3" fill="#6b7280"/><circle cx="80.0" cy="492.6" r="3" fill="#6b7280"/><circle cx="111.5" cy="486.0" r="3" fill="#6b7280"/><circle cx="132.0" cy="486.0" r="3" fill="#6b7280"/><circle cx="143.8" cy="486.0" r="3" fill="#6b7280"/><circle cx="152.5" cy="486.0" r="3" fill="#6b7280"/><circle cx="160.0" cy="486.0" r="3" fill="#6b7280"/><circle cx="167.5" cy="486.0" r="3" fill="#6b7280"/><circle cx="176.2" cy="486.0" r="3" fill="#6b7280"/><circle cx="188.0" cy="486.0" r="3" fill="#6b7280"/><circle cx="208.5" cy="486.0" r="3" fill="#6b7280"/><circle cx="240.0" cy="492.6" r="3" fill="#6b7280"/></g><g class="lgdl-node" data-lgdl-loc="nodes[3]"><path d="M 90,748 L 90,788 A 70,10 0 0 0 230,788 L 230,748 A 70,10 0 0 0 90,748 Z" fill="#fce7f3" stroke="#ec4899" stroke-width="1.5"/><text x="160" y="768" font-family="'Segoe UI', 'PingFang SC', 'Microsoft YaHei', sans-serif" font-size="13" fill="#1f2937" text-anchor="middle" dominant-baseline="middle">MySQL</text></g><g class="lgdl-anchors"><circle cx="230.0" cy="768.0" r="3" fill="#ec4899"/><circle cx="230.0" cy="786.8" r="3" fill="#ec4899"/><circle cx="207.4" cy="795.4" r="3" fill="#ec4899"/><circle cx="189.1" cy="797.1" r="3" fill="#ec4899"/><circle cx="177.1" cy="797.7" r="3" fill="#ec4899"/><circle cx="168.0" cy="797.9" r="3" fill="#ec4899"/><circle cx="160.0" cy="798.0" r="3" fill="#ec4899"/><circle cx="152.0" cy="797.9" r="3" fill="#ec4899"/><circle cx="142.9" cy="797.7" r="3" fill="#ec4899"/><circle cx="130.9" cy="797.1" r="3" fill="#ec4899"/><circle cx="112.6" cy="795.4" r="3" fill="#ec4899"/><circle cx="90.0" cy="786.8" r="3" fill="#ec4899"/><circle cx="90.0" cy="768.0" r="3" fill="#ec4899"/><circle cx="90.0" cy="749.2" r="3" fill="#ec4899"/><circle cx="112.6" cy="740.6" r="3" fill="#ec4899"/><circle cx="130.9" cy="738.9" r="3" fill="#ec4899"/><circle cx="142.9" cy="738.3" r="3" fill="#ec4899"/><circle cx="152.0" cy="738.1" r="3" fill="#ec4899"/><circle cx="160.0" cy="738.0" r="3" fill="#ec4899"/><circle cx="168.0" cy="738.1" r="3" fill="#ec4899"/><circle cx="177.1" cy="738.3" r="3" fill="#ec4899"/><circle cx="189.1" cy="738.9" r="3" fill="#ec4899"/><circle cx="207.4" cy="740.6" r="3" fill="#ec4899"/><circle cx="230.0" cy="749.2" r="3" fill="#ec4899"/></g><g class="lgdl-edge" data-lgdl-loc="edges[0]"><path d="M 160,138 L 160,334" fill="none" stroke="#6b7280" stroke-width="1.5" marker-end="url(#arrowhead)"/><text x="160" y="232" font-family="'Segoe UI', 'PingFang SC', 'Microsoft YaHei', sans-serif" font-size="12" fill="#6b7280" text-anchor="middle" dominant-baseline="middle">鉴权</text></g><g class="lgdl-edge-anchors"><circle cx="160.0" cy="138.0" r="3.5" fill="#6b7280"/><circle cx="160.0" cy="334.0" r="3.5" fill="#6b7280"/></g><g class="lgdl-edge" data-lgdl-loc="edges[1]"><path d="M 160,390 L 160,486" fill="none" stroke="#6b7280" stroke-width="1.5" marker-end="url(#arrowhead)"/></g><g class="lgdl-edge-anchors"><circle cx="160.0" cy="390.0" r="3.5" fill="#6b7280"/><circle cx="160.0" cy="486.0" r="3.5" fill="#6b7280"/></g><g class="lgdl-edge" data-lgdl-loc="edges[2]"><path d="M 160,542 L 160,738" fill="none" stroke="#6b7280" stroke-width="1.5" marker-end="url(#arrowhead)"/><text x="160" y="636" font-family="'Segoe UI', 'PingFang SC', 'Microsoft YaHei', sans-serif" font-size="12" fill="#6b7280" text-anchor="middle" dominant-baseline="middle">落库</text></g><g class="lgdl-edge-anchors"><circle cx="160.0" cy="542.0" r="3.5" fill="#6b7280"/><circle cx="160.0" cy="738.0" r="3.5" fill="#6b7280"/></g></svg>