<svg xmlns="http://www.w3.org/2000/svg" width="445" height="600" viewBox="0 0 445 600"><defs><marker id="arrowhead" markerWidth="10" markerHeight="7" refX="10" refY="3.5" orient="auto"><polygon points="0 0, 10 3.5, 0 7" fill="#6b7280"/></marker><marker id="arrowhead-purple" markerWidth="10" markerHeight="7" refX="10" refY="3.5" orient="auto"><polygon points="0 0, 10 3.5, 0 7" fill="#7c3aed"/></marker></defs><style>.lgdl-anchors{opacity:0;pointer-events:none;transition:opacity .12s ease}.lgdl-node:hover + .lgdl-anchors,.lgdl-class:hover + .lgdl-anchors{opacity:1}</style><rect x="0" y="0" width="445" height="600" fill="#ffffff"/><g class="lgdl-group"><rect x="107" y="26" width="216" height="242" rx="8" fill="#eff6ff" stroke="#d1d5db" stroke-dasharray="6 4"/><text x="119" y="44" font-family="'Segoe UI', 'PingFang SC', 'Microsoft YaHei', sans-serif" font-size="12" fill="#6b7280" text-anchor="start" dominant-baseline="middle">前端层</text></g><g class="lgdl-group"><rect x="61" y="322" width="308" height="228" rx="8" fill="#ecfdf5" stroke="#d1d5db" stroke-dasharray="6 4"/><text x="73" y="340" font-family="'Segoe UI', 'PingFang SC', 'Microsoft YaHei', sans-serif" font-size="12" fill="#6b7280" text-anchor="start" dominant-baseline="middle">后端层</text></g><g class="lgdl-group"><rect x="121" y="146" width="188" height="108" rx="8" fill="#fffbeb" stroke="#d1d5db" stroke-dasharray="6 4"/><text x="133" y="164" font-family="'Segoe UI', 'PingFang SC', 'Microsoft YaHei', sans-serif" font-size="12" fill="#6b7280" text-anchor="start" dominant-baseline="middle">认证模块</text></g><g class="lgdl-aggregate-edge"><line x1="224.15254237288136" y1="254" x2="234.32203389830508" y2="322" stroke="#7c3aed" stroke-width="2" stroke-dasharray="5 3" marker-end="url(#arrowhead-purple)"/><rect x="203.2" y="275.5" width="52" height="17" rx="3" fill="#ffffff" opacity="0.9"/><text x="229.23728813559322" y="284" font-family="'Segoe UI', 'PingFang SC', 'Microsoft YaHei', sans-serif" font-size="11" fill="#7c3aed" text-anchor="middle" dominant-baseline="middle">整体调用</text></g><g class="lgdl-edge"><path d="M 215,112 L 215,136 L 215,160 L 215,184" fill="none" stroke="#6b7280" stroke-width="1.5" marker-end="url(#arrowhead)"/><text x="215" y="120" font-family="'Segoe UI', 'PingFang SC', 'Microsoft YaHei', sans-serif" font-size="12" fill="#6b7280" text-anchor="middle" dominant-baseline="middle">打开页面</text></g><g class="lgdl-edge"><path d="M 215,240 L 215,264 L 215,288 L 215,312 L 215,336 L 215,360" fill="none" stroke="#6b7280" stroke-width="1.5" marker-end="url(#arrowhead)"/><text x="215" y="248" font-family="'Segoe UI', 'PingFang SC', 'Microsoft YaHei', sans-serif" font-size="12" fill="#6b7280" text-anchor="middle" dominant-baseline="middle">提交</text></g><g class="lgdl-edge"><path d="M 189.54545454545456,425.45454545454544 L 135,464 L 135,488" fill="none" stroke="#6b7280" stroke-width="1.5" marker-end="url(#arrowhead)"/><text x="162.27272727272728" y="440.72727272727275" font-family="'Segoe UI', 'PingFang SC', 'Microsoft YaHei', sans-serif" font-size="12" fill="#6b7280" text-anchor="middle" dominant-baseline="middle">通过</text></g><g class="lgdl-edge"><path d="M 240.45454545454547,425.45454545454544 L 295,464 L 295,488" fill="none" stroke="#6b7280" stroke-width="1.5" marker-end="url(#arrowhead)"/><text x="267.72727272727275" y="440.72727272727275" font-family="'Segoe UI', 'PingFang SC', 'Microsoft YaHei', sans-serif" font-size="12" fill="#6b7280" text-anchor="middle" dominant-baseline="middle">失败</text></g><g class="lgdl-node" fill="#dbeafe" stroke="#3b82f6" stroke-width="1.5"><rect x="155" y="64" width="120" height="48" rx="60" ry="60"/><text x="215" y="88" font-family="'Segoe UI', 'PingFang SC', 'Microsoft YaHei', sans-serif" font-size="13" fill="#1f2937" text-anchor="middle" dominant-baseline="middle">用户访问</text></g><g class="lgdl-anchors"><circle cx="275.0" cy="88.0" r="3" fill="#3b82f6"/><circle cx="239.0" cy="112.0" r="3" fill="#3b82f6"/><circle cx="215.0" cy="112.0" r="3" fill="#3b82f6"/><circle cx="191.0" cy="112.0" r="3" fill="#3b82f6"/><circle cx="155.0" cy="88.0" r="3" fill="#3b82f6"/><circle cx="191.0" cy="64.0" r="3" fill="#3b82f6"/><circle cx="215.0" cy="64.0" r="3" fill="#3b82f6"/><circle cx="239.0" cy="64.0" r="3" fill="#3b82f6"/></g><g class="lgdl-node" fill="#ffffff" stroke="#6b7280" stroke-width="1.5"><rect x="135" y="184" width="160" height="56" rx="6" ry="6"/><text x="215" y="212" font-family="'Segoe UI', 'PingFang SC', 'Microsoft YaHei', sans-serif" font-size="13" fill="#1f2937" text-anchor="middle" dominant-baseline="middle">输入账号密码</text></g><g class="lgdl-anchors"><circle cx="295.0" cy="212.0" r="3" fill="#6b7280"/><circle cx="243.0" cy="240.0" r="3" fill="#6b7280"/><circle cx="215.0" cy="240.0" r="3" fill="#6b7280"/><circle cx="187.0" cy="240.0" r="3" fill="#6b7280"/><circle cx="135.0" cy="212.0" r="3" fill="#6b7280"/><circle cx="187.0" cy="184.0" r="3" fill="#6b7280"/><circle cx="215.0" cy="184.0" r="3" fill="#6b7280"/><circle cx="243.0" cy="184.0" r="3" fill="#6b7280"/></g><g class="lgdl-node" fill="#fef3c7" stroke="#f59e0b" stroke-width="1.5"><polygon points="215,360 285,400 215,440 145,400"/><text x="215" y="400" font-family="'Segoe UI', 'PingFang SC', 'Microsoft YaHei', sans-serif" font-size="13" fill="#1f2937" text-anchor="middle" dominant-baseline="middle">验证凭据</text></g><g class="lgdl-anchors"><circle cx="285.0" cy="400.0" r="3" fill="#f59e0b"/><circle cx="240.5" cy="425.5" r="3" fill="#f59e0b"/><circle cx="215.0" cy="440.0" r="3" fill="#f59e0b"/><circle cx="189.5" cy="425.5" r="3" fill="#f59e0b"/><circle cx="145.0" cy="400.0" r="3" fill="#f59e0b"/><circle cx="189.5" cy="374.5" r="3" fill="#f59e0b"/><circle cx="215.0" cy="360.0" r="3" fill="#f59e0b"/><circle cx="240.5" cy="374.5" r="3" fill="#f59e0b"/></g><g class="lgdl-node" fill="#dcfce7" stroke="#16a34a" stroke-width="1.5"><rect x="75" y="488" width="120" height="48" rx="60" ry="60"/><text x="135" y="512" font-family="'Segoe UI', 'PingFang SC', 'Microsoft YaHei', sans-serif" font-size="13" fill="#1f2937" text-anchor="middle" dominant-baseline="middle">登录成功</text></g><g class="lgdl-anchors"><circle cx="195.0" cy="512.0" r="3" fill="#16a34a"/><circle cx="159.0" cy="536.0" r="3" fill="#16a34a"/><circle cx="135.0" cy="536.0" r="3" fill="#16a34a"/><circle cx="111.0" cy="536.0" r="3" fill="#16a34a"/><circle cx="75.0" cy="512.0" r="3" fill="#16a34a"/><circle cx="111.0" cy="488.0" r="3" fill="#16a34a"/><circle cx="135.0" cy="488.0" r="3" fill="#16a34a"/><circle cx="159.0" cy="488.0" r="3" fill="#16a34a"/></g><g class="lgdl-node" fill="#dcfce7" stroke="#16a34a" stroke-width="1.5"><rect x="235" y="488" width="120" height="48" rx="60" ry="60"/><text x="295" y="512" font-family="'Segoe UI', 'PingFang SC', 'Microsoft YaHei', sans-serif" font-size="13" fill="#1f2937" text-anchor="middle" dominant-baseline="middle">登录失败</text></g><g class="lgdl-anchors"><circle cx="355.0" cy="512.0" r="3" fill="#16a34a"/><circle cx="319.0" cy="536.0" r="3" fill="#16a34a"/><circle cx="295.0" cy="536.0" r="3" fill="#16a34a"/><circle cx="271.0" cy="536.0" r="3" fill="#16a34a"/><circle cx="235.0" cy="512.0" r="3" fill="#16a34a"/><circle cx="271.0" cy="488.0" r="3" fill="#16a34a"/><circle cx="295.0" cy="488.0" r="3" fill="#16a34a"/><circle cx="319.0" cy="488.0" r="3" fill="#16a34a"/></g></svg>