<svg xmlns="http://www.w3.org/2000/svg" width="1785" height="1288" viewBox="0 0 1785 1288"><defs><marker id="arrowhead" markerWidth="10" markerHeight="7" refX="10" refY="3.5" orient="auto"><polygon points="0 0, 10 3.5, 0 7" fill="#6b7280"/></marker><marker id="arrowhead-purple" markerWidth="10" markerHeight="7" refX="10" refY="3.5" orient="auto"><polygon points="0 0, 10 3.5, 0 7" fill="#7c3aed"/></marker></defs><style>.lgdl-anchors,.lgdl-edge-anchors{opacity:0;pointer-events:none;transition:opacity .12s ease}.lgdl-node:hover + .lgdl-anchors,.lgdl-class:hover + .lgdl-anchors,.lgdl-group:hover + .lgdl-anchors,.lgdl-lane:hover + .lgdl-anchors{opacity:1}.lgdl-edge:hover + .lgdl-edge-anchors,.lgdl-aggregate-edge:hover + .lgdl-edge-anchors{opacity:1}.lgdl-node.lgdl-hovered + .lgdl-anchors,.lgdl-class.lgdl-hovered + .lgdl-anchors,.lgdl-group.lgdl-hovered + .lgdl-anchors,.lgdl-lane.lgdl-hovered + .lgdl-anchors{opacity:1}.lgdl-edge.lgdl-hovered + .lgdl-edge-anchors,.lgdl-aggregate-edge.lgdl-hovered + .lgdl-edge-anchors{opacity:1}.lgdl-hovered{filter:drop-shadow(0 0 3px rgba(79,70,229,.65))}</style><rect x="0" y="0" width="1785" height="1288" fill="#ffffff"/><g class="lgdl-group" data-lgdl-loc="groups[0]"><rect x="610" y="290" width="200" height="126" rx="8" fill="#eff6ff" stroke="#d1d5db" stroke-dasharray="6 4"/><text x="622" y="308" font-family="'Segoe UI', 'PingFang SC', 'Microsoft YaHei', sans-serif" font-size="12" fill="#6b7280" text-anchor="start" dominant-baseline="middle">接入层</text></g><g class="lgdl-anchors"><circle cx="810.0" cy="353.0" r="3" fill="#64748b"/><circle cx="810.0" cy="379.8" r="3" fill="#64748b"/><circle cx="809.6" cy="410.5" r="3" fill="#64748b"/><circle cx="773.0" cy="416.0" r="3" fill="#64748b"/><circle cx="746.4" cy="416.0" r="3" fill="#64748b"/><circle cx="726.9" cy="416.0" r="3" fill="#64748b"/><circle cx="710.0" cy="416.0" r="3" fill="#64748b"/><circle cx="693.1" cy="416.0" r="3" fill="#64748b"/><circle cx="673.6" cy="416.0" r="3" fill="#64748b"/><circle cx="647.0" cy="416.0" r="3" fill="#64748b"/><circle cx="610.4" cy="410.5" r="3" fill="#64748b"/><circle cx="610.0" cy="379.8" r="3" fill="#64748b"/><circle cx="610.0" cy="353.0" r="3" fill="#64748b"/><circle cx="610.0" cy="326.2" r="3" fill="#64748b"/><circle cx="610.4" cy="295.5" r="3" fill="#64748b"/><circle cx="647.0" cy="290.0" r="3" fill="#64748b"/><circle cx="673.6" cy="290.0" r="3" fill="#64748b"/><circle cx="693.1" cy="290.0" r="3" fill="#64748b"/><circle cx="710.0" cy="290.0" r="3" fill="#64748b"/><circle cx="726.9" cy="290.0" r="3" fill="#64748b"/><circle cx="746.4" cy="290.0" r="3" fill="#64748b"/><circle cx="773.0" cy="290.0" r="3" fill="#64748b"/><circle cx="809.6" cy="295.5" r="3" fill="#64748b"/><circle cx="810.0" cy="326.2" r="3" fill="#64748b"/></g><g class="lgdl-group" data-lgdl-loc="groups[1]"><rect x="110" y="538" width="1395" height="430" rx="8" fill="#ecfdf5" stroke="#d1d5db" stroke-dasharray="6 4"/><text x="122" y="556" font-family="'Segoe UI', 'PingFang SC', 'Microsoft YaHei', sans-serif" font-size="12" fill="#6b7280" text-anchor="start" dominant-baseline="middle">业务层</text></g><g class="lgdl-anchors"><circle cx="1505.0" cy="753.0" r="3" fill="#64748b"/><circle cx="1505.0" cy="939.9" r="3" fill="#64748b"/><circle cx="1179.9" cy="968.0" r="3" fill="#64748b"/><circle cx="1022.5" cy="968.0" r="3" fill="#64748b"/><circle cx="931.6" cy="968.0" r="3" fill="#64748b"/><circle cx="865.1" cy="968.0" r="3" fill="#64748b"/><circle cx="807.5" cy="968.0" r="3" fill="#64748b"/><circle cx="749.9" cy="968.0" r="3" fill="#64748b"/><circle cx="683.4" cy="968.0" r="3" fill="#64748b"/><circle cx="592.5" cy="968.0" r="3" fill="#64748b"/><circle cx="435.1" cy="968.0" r="3" fill="#64748b"/><circle cx="110.0" cy="939.9" r="3" fill="#64748b"/><circle cx="110.0" cy="753.0" r="3" fill="#64748b"/><circle cx="110.0" cy="566.1" r="3" fill="#64748b"/><circle cx="435.1" cy="538.0" r="3" fill="#64748b"/><circle cx="592.5" cy="538.0" r="3" fill="#64748b"/><circle cx="683.4" cy="538.0" r="3" fill="#64748b"/><circle cx="749.9" cy="538.0" r="3" fill="#64748b"/><circle cx="807.5" cy="538.0" r="3" fill="#64748b"/><circle cx="865.1" cy="538.0" r="3" fill="#64748b"/><circle cx="931.6" cy="538.0" r="3" fill="#64748b"/><circle cx="1022.5" cy="538.0" r="3" fill="#64748b"/><circle cx="1179.9" cy="538.0" r="3" fill="#64748b"/><circle cx="1505.0" cy="566.1" r="3" fill="#64748b"/></g><g class="lgdl-group" data-lgdl-loc="groups[2]"><rect x="70" y="1090" width="1645" height="130" rx="8" fill="#fffbeb" stroke="#d1d5db" stroke-dasharray="6 4"/><text x="82" y="1108" font-family="'Segoe UI', 'PingFang SC', 'Microsoft YaHei', sans-serif" font-size="12" fill="#6b7280" text-anchor="start" dominant-baseline="middle">基础设施</text></g><g class="lgdl-anchors"><circle cx="1715.0" cy="1155.0" r="3" fill="#64748b"/><circle cx="1135.1" cy="1220.0" r="3" fill="#64748b"/><circle cx="1005.1" cy="1220.0" r="3" fill="#64748b"/><circle cx="957.5" cy="1220.0" r="3" fill="#64748b"/><circle cx="930.0" cy="1220.0" r="3" fill="#64748b"/><circle cx="909.9" cy="1220.0" r="3" fill="#64748b"/><circle cx="892.5" cy="1220.0" r="3" fill="#64748b"/><circle cx="875.1" cy="1220.0" r="3" fill="#64748b"/><circle cx="855.0" cy="1220.0" r="3" fill="#64748b"/><circle cx="827.5" cy="1220.0" r="3" fill="#64748b"/><circle cx="779.9" cy="1220.0" r="3" fill="#64748b"/><circle cx="649.9" cy="1220.0" r="3" fill="#64748b"/><circle cx="70.0" cy="1155.0" r="3" fill="#64748b"/><circle cx="649.9" cy="1090.0" r="3" fill="#64748b"/><circle cx="779.9" cy="1090.0" r="3" fill="#64748b"/><circle cx="827.5" cy="1090.0" r="3" fill="#64748b"/><circle cx="855.0" cy="1090.0" r="3" fill="#64748b"/><circle cx="875.1" cy="1090.0" r="3" fill="#64748b"/><circle cx="892.5" cy="1090.0" r="3" fill="#64748b"/><circle cx="909.9" cy="1090.0" r="3" fill="#64748b"/><circle cx="930.0" cy="1090.0" r="3" fill="#64748b"/><circle cx="957.5" cy="1090.0" r="3" fill="#64748b"/><circle cx="1005.1" cy="1090.0" r="3" fill="#64748b"/><circle cx="1135.1" cy="1090.0" r="3" fill="#64748b"/></g><g class="lgdl-group" data-lgdl-loc="groups[3]"><rect x="245" y="38" width="180" height="130" rx="8" fill="#faf5ff" stroke="#d1d5db" stroke-dasharray="6 4"/><text x="257" y="56" font-family="'Segoe UI', 'PingFang SC', 'Microsoft YaHei', sans-serif" font-size="12" fill="#6b7280" text-anchor="start" dominant-baseline="middle">可观测</text></g><g class="lgdl-anchors"><circle cx="425.0" cy="103.0" r="3" fill="#64748b"/><circle cx="425.0" cy="127.1" r="3" fill="#64748b"/><circle cx="425.0" cy="155.0" r="3" fill="#64748b"/><circle cx="400.0" cy="168.0" r="3" fill="#64748b"/><circle cx="372.5" cy="168.0" r="3" fill="#64748b"/><circle cx="352.4" cy="168.0" r="3" fill="#64748b"/><circle cx="335.0" cy="168.0" r="3" fill="#64748b"/><circle cx="317.6" cy="168.0" r="3" fill="#64748b"/><circle cx="297.5" cy="168.0" r="3" fill="#64748b"/><circle cx="270.0" cy="168.0" r="3" fill="#64748b"/><circle cx="245.0" cy="155.0" r="3" fill="#64748b"/><circle cx="245.0" cy="127.1" r="3" fill="#64748b"/><circle cx="245.0" cy="103.0" r="3" fill="#64748b"/><circle cx="245.0" cy="78.9" r="3" fill="#64748b"/><circle cx="245.0" cy="51.0" r="3" fill="#64748b"/><circle cx="270.0" cy="38.0" r="3" fill="#64748b"/><circle cx="297.5" cy="38.0" r="3" fill="#64748b"/><circle cx="317.6" cy="38.0" r="3" fill="#64748b"/><circle cx="335.0" cy="38.0" r="3" fill="#64748b"/><circle cx="352.4" cy="38.0" r="3" fill="#64748b"/><circle cx="372.5" cy="38.0" r="3" fill="#64748b"/><circle cx="400.0" cy="38.0" r="3" fill="#64748b"/><circle cx="425.0" cy="51.0" r="3" fill="#64748b"/><circle cx="425.0" cy="78.9" r="3" fill="#64748b"/></g><g class="lgdl-node" data-lgdl-loc="nodes[0]"><rect x="1130" y="94" width="120" height="48" rx="60" ry="60" fill="#dbeafe" stroke="#3b82f6" stroke-width="1.5"/><text x="1190" y="118" font-family="'Segoe UI', 'PingFang SC', 'Microsoft YaHei', sans-serif" font-size="13" fill="#1f2937" text-anchor="middle" dominant-baseline="middle">客户端 App</text></g><g class="lgdl-anchors"><circle cx="1250.0" cy="118.0" r="3" fill="#3b82f6"/><circle cx="1239.8" cy="131.4" r="3" fill="#3b82f6"/><circle cx="1224.2" cy="137.7" r="3" fill="#3b82f6"/><circle cx="1212.3" cy="140.3" r="3" fill="#3b82f6"/><circle cx="1203.5" cy="141.4" r="3" fill="#3b82f6"/><circle cx="1196.4" cy="141.9" r="3" fill="#3b82f6"/><circle cx="1190.0" cy="142.0" r="3" fill="#3b82f6"/><circle cx="1183.6" cy="141.9" r="3" fill="#3b82f6"/><circle cx="1176.5" cy="141.4" r="3" fill="#3b82f6"/><circle cx="1167.7" cy="140.3" r="3" fill="#3b82f6"/><circle cx="1155.8" cy="137.7" r="3" fill="#3b82f6"/><circle cx="1140.2" cy="131.4" r="3" fill="#3b82f6"/><circle cx="1130.0" cy="118.0" r="3" fill="#3b82f6"/><circle cx="1140.2" cy="104.6" r="3" fill="#3b82f6"/><circle cx="1155.8" cy="98.3" r="3" fill="#3b82f6"/><circle cx="1167.7" cy="95.7" r="3" fill="#3b82f6"/><circle cx="1176.5" cy="94.6" r="3" fill="#3b82f6"/><circle cx="1183.6" cy="94.1" r="3" fill="#3b82f6"/><circle cx="1190.0" cy="94.0" r="3" fill="#3b82f6"/><circle cx="1196.4" cy="94.1" r="3" fill="#3b82f6"/><circle cx="1203.5" cy="94.6" r="3" fill="#3b82f6"/><circle cx="1212.3" cy="95.7" r="3" fill="#3b82f6"/><circle cx="1224.2" cy="98.3" r="3" fill="#3b82f6"/><circle cx="1239.8" cy="104.6" r="3" fill="#3b82f6"/></g><g class="lgdl-node" data-lgdl-loc="nodes[1]"><rect x="630" y="340" width="160" height="56" rx="6" ry="6" fill="#ffffff" stroke="#6b7280" stroke-width="1.5"/><text x="710" y="368" font-family="'Segoe UI', 'PingFang SC', 'Microsoft YaHei', sans-serif" font-size="13" fill="#1f2937" text-anchor="middle" dominant-baseline="middle">API 网关</text></g><g class="lgdl-anchors"><circle cx="790.0" cy="368.0" r="3" fill="#6b7280"/><circle cx="790.0" cy="389.4" r="3" fill="#6b7280"/><circle cx="758.5" cy="396.0" r="3" fill="#6b7280"/><circle cx="738.0" cy="396.0" r="3" fill="#6b7280"/><circle cx="726.2" cy="396.0" r="3" fill="#6b7280"/><circle cx="717.5" cy="396.0" r="3" fill="#6b7280"/><circle cx="710.0" cy="396.0" r="3" fill="#6b7280"/><circle cx="702.5" cy="396.0" r="3" fill="#6b7280"/><circle cx="693.8" cy="396.0" r="3" fill="#6b7280"/><circle cx="682.0" cy="396.0" r="3" fill="#6b7280"/><circle cx="661.5" cy="396.0" r="3" fill="#6b7280"/><circle cx="630.0" cy="389.4" r="3" fill="#6b7280"/><circle cx="630.0" cy="368.0" r="3" fill="#6b7280"/><circle cx="630.0" cy="346.6" r="3" fill="#6b7280"/><circle cx="661.5" cy="340.0" r="3" fill="#6b7280"/><circle cx="682.0" cy="340.0" r="3" fill="#6b7280"/><circle cx="693.8" cy="340.0" r="3" fill="#6b7280"/><circle cx="702.5" cy="340.0" r="3" fill="#6b7280"/><circle cx="710.0" cy="340.0" r="3" fill="#6b7280"/><circle cx="717.5" cy="340.0" r="3" fill="#6b7280"/><circle cx="726.2" cy="340.0" r="3" fill="#6b7280"/><circle cx="738.0" cy="340.0" r="3" fill="#6b7280"/><circle cx="758.5" cy="340.0" r="3" fill="#6b7280"/><circle cx="790.0" cy="346.6" r="3" fill="#6b7280"/></g><g class="lgdl-node" data-lgdl-loc="nodes[2]"><rect x="130" y="588" width="160" height="56" rx="6" ry="6" fill="#ffffff" stroke="#6b7280" stroke-width="1.5"/><text x="210" y="616" font-family="'Segoe UI', 'PingFang SC', 'Microsoft YaHei', sans-serif" font-size="13" fill="#1f2937" text-anchor="middle" dominant-baseline="middle">认证服务</text></g><g class="lgdl-anchors"><circle cx="290.0" cy="616.0" r="3" fill="#6b7280"/><circle cx="290.0" cy="637.4" r="3" fill="#6b7280"/><circle cx="258.5" cy="644.0" r="3" fill="#6b7280"/><circle cx="238.0" cy="644.0" r="3" fill="#6b7280"/><circle cx="226.2" cy="644.0" r="3" fill="#6b7280"/><circle cx="217.5" cy="644.0" r="3" fill="#6b7280"/><circle cx="210.0" cy="644.0" r="3" fill="#6b7280"/><circle cx="202.5" cy="644.0" r="3" fill="#6b7280"/><circle cx="193.8" cy="644.0" r="3" fill="#6b7280"/><circle cx="182.0" cy="644.0" r="3" fill="#6b7280"/><circle cx="161.5" cy="644.0" r="3" fill="#6b7280"/><circle cx="130.0" cy="637.4" r="3" fill="#6b7280"/><circle cx="130.0" cy="616.0" r="3" fill="#6b7280"/><circle cx="130.0" cy="594.6" r="3" fill="#6b7280"/><circle cx="161.5" cy="588.0" r="3" fill="#6b7280"/><circle cx="182.0" cy="588.0" r="3" fill="#6b7280"/><circle cx="193.8" cy="588.0" r="3" fill="#6b7280"/><circle cx="202.5" cy="588.0" r="3" fill="#6b7280"/><circle cx="210.0" cy="588.0" r="3" fill="#6b7280"/><circle cx="217.5" cy="588.0" r="3" fill="#6b7280"/><circle cx="226.2" cy="588.0" r="3" fill="#6b7280"/><circle cx="238.0" cy="588.0" r="3" fill="#6b7280"/><circle cx="258.5" cy="588.0" r="3" fill="#6b7280"/><circle cx="290.0" cy="594.6" r="3" fill="#6b7280"/></g><g class="lgdl-node" data-lgdl-loc="nodes[3]"><rect x="760" y="892" width="160" height="56" rx="6" ry="6" fill="#ffffff" stroke="#6b7280" stroke-width="1.5"/><text x="840" y="920" font-family="'Segoe UI', 'PingFang SC', 'Microsoft YaHei', sans-serif" font-size="13" fill="#1f2937" text-anchor="middle" dominant-baseline="middle">用户服务</text></g><g class="lgdl-anchors"><circle cx="920.0" cy="920.0" r="3" fill="#6b7280"/><circle cx="920.0" cy="941.4" r="3" fill="#6b7280"/><circle cx="888.5" cy="948.0" r="3" fill="#6b7280"/><circle cx="868.0" cy="948.0" r="3" fill="#6b7280"/><circle cx="856.2" cy="948.0" r="3" fill="#6b7280"/><circle cx="847.5" cy="948.0" r="3" fill="#6b7280"/><circle cx="840.0" cy="948.0" r="3" fill="#6b7280"/><circle cx="832.5" cy="948.0" r="3" fill="#6b7280"/><circle cx="823.8" cy="948.0" r="3" fill="#6b7280"/><circle cx="812.0" cy="948.0" r="3" fill="#6b7280"/><circle cx="791.5" cy="948.0" r="3" fill="#6b7280"/><circle cx="760.0" cy="941.4" r="3" fill="#6b7280"/><circle cx="760.0" cy="920.0" r="3" fill="#6b7280"/><circle cx="760.0" cy="898.6" r="3" fill="#6b7280"/><circle cx="791.5" cy="892.0" r="3" fill="#6b7280"/><circle cx="812.0" cy="892.0" r="3" fill="#6b7280"/><circle cx="823.8" cy="892.0" r="3" fill="#6b7280"/><circle cx="832.5" cy="892.0" r="3" fill="#6b7280"/><circle cx="840.0" cy="892.0" r="3" fill="#6b7280"/><circle cx="847.5" cy="892.0" r="3" fill="#6b7280"/><circle cx="856.2" cy="892.0" r="3" fill="#6b7280"/><circle cx="868.0" cy="892.0" r="3" fill="#6b7280"/><circle cx="888.5" cy="892.0" r="3" fill="#6b7280"/><circle cx="920.0" cy="898.6" r="3" fill="#6b7280"/></g><g class="lgdl-node" data-lgdl-loc="nodes[4]"><rect x="1325" y="892" width="160" height="56" rx="6" ry="6" fill="#ffffff" stroke="#6b7280" stroke-width="1.5"/><text x="1405" y="920" font-family="'Segoe UI', 'PingFang SC', 'Microsoft YaHei', sans-serif" font-size="13" fill="#1f2937" text-anchor="middle" dominant-baseline="middle">商品服务</text></g><g class="lgdl-anchors"><circle cx="1485.0" cy="920.0" r="3" fill="#6b7280"/><circle cx="1485.0" cy="941.4" r="3" fill="#6b7280"/><circle cx="1453.5" cy="948.0" r="3" fill="#6b7280"/><circle cx="1433.0" cy="948.0" r="3" fill="#6b7280"/><circle cx="1421.2" cy="948.0" r="3" fill="#6b7280"/><circle cx="1412.5" cy="948.0" r="3" fill="#6b7280"/><circle cx="1405.0" cy="948.0" r="3" fill="#6b7280"/><circle cx="1397.5" cy="948.0" r="3" fill="#6b7280"/><circle cx="1388.8" cy="948.0" r="3" fill="#6b7280"/><circle cx="1377.0" cy="948.0" r="3" fill="#6b7280"/><circle cx="1356.5" cy="948.0" r="3" fill="#6b7280"/><circle cx="1325.0" cy="941.4" r="3" fill="#6b7280"/><circle cx="1325.0" cy="920.0" r="3" fill="#6b7280"/><circle cx="1325.0" cy="898.6" r="3" fill="#6b7280"/><circle cx="1356.5" cy="892.0" r="3" fill="#6b7280"/><circle cx="1377.0" cy="892.0" r="3" fill="#6b7280"/><circle cx="1388.8" cy="892.0" r="3" fill="#6b7280"/><circle cx="1397.5" cy="892.0" r="3" fill="#6b7280"/><circle cx="1405.0" cy="892.0" r="3" fill="#6b7280"/><circle cx="1412.5" cy="892.0" r="3" fill="#6b7280"/><circle cx="1421.2" cy="892.0" r="3" fill="#6b7280"/><circle cx="1433.0" cy="892.0" r="3" fill="#6b7280"/><circle cx="1453.5" cy="892.0" r="3" fill="#6b7280"/><circle cx="1485.0" cy="898.6" r="3" fill="#6b7280"/></g><g class="lgdl-node" data-lgdl-loc="nodes[5]"><rect x="630" y="588" width="160" height="56" rx="6" ry="6" fill="#ffffff" stroke="#6b7280" stroke-width="1.5"/><text x="710" y="616" font-family="'Segoe UI', 'PingFang SC', 'Microsoft YaHei', sans-serif" font-size="13" fill="#1f2937" text-anchor="middle" dominant-baseline="middle">订单服务</text></g><g class="lgdl-anchors"><circle cx="790.0" cy="616.0" r="3" fill="#6b7280"/><circle cx="790.0" cy="637.4" r="3" fill="#6b7280"/><circle cx="758.5" cy="644.0" r="3" fill="#6b7280"/><circle cx="738.0" cy="644.0" r="3" fill="#6b7280"/><circle cx="726.2" cy="644.0" r="3" fill="#6b7280"/><circle cx="717.5" cy="644.0" r="3" fill="#6b7280"/><circle cx="710.0" cy="644.0" r="3" fill="#6b7280"/><circle cx="702.5" cy="644.0" r="3" fill="#6b7280"/><circle cx="693.8" cy="644.0" r="3" fill="#6b7280"/><circle cx="682.0" cy="644.0" r="3" fill="#6b7280"/><circle cx="661.5" cy="644.0" r="3" fill="#6b7280"/><circle cx="630.0" cy="637.4" r="3" fill="#6b7280"/><circle cx="630.0" cy="616.0" r="3" fill="#6b7280"/><circle cx="630.0" cy="594.6" r="3" fill="#6b7280"/><circle cx="661.5" cy="588.0" r="3" fill="#6b7280"/><circle cx="682.0" cy="588.0" r="3" fill="#6b7280"/><circle cx="693.8" cy="588.0" r="3" fill="#6b7280"/><circle cx="702.5" cy="588.0" r="3" fill="#6b7280"/><circle cx="710.0" cy="588.0" r="3" fill="#6b7280"/><circle cx="717.5" cy="588.0" r="3" fill="#6b7280"/><circle cx="726.2" cy="588.0" r="3" fill="#6b7280"/><circle cx="738.0" cy="588.0" r="3" fill="#6b7280"/><circle cx="758.5" cy="588.0" r="3" fill="#6b7280"/><circle cx="790.0" cy="594.6" r="3" fill="#6b7280"/></g><g class="lgdl-node" data-lgdl-loc="nodes[6]"><rect x="250" y="740" width="160" height="56" rx="6" ry="6" fill="#ffffff" stroke="#6b7280" stroke-width="1.5"/><text x="330" y="768" font-family="'Segoe UI', 'PingFang SC', 'Microsoft YaHei', sans-serif" font-size="13" fill="#1f2937" text-anchor="middle" dominant-baseline="middle">库存服务</text></g><g class="lgdl-anchors"><circle cx="410.0" cy="768.0" r="3" fill="#6b7280"/><circle cx="410.0" cy="789.4" r="3" fill="#6b7280"/><circle cx="378.5" cy="796.0" r="3" fill="#6b7280"/><circle cx="358.0" cy="796.0" r="3" fill="#6b7280"/><circle cx="346.2" cy="796.0" r="3" fill="#6b7280"/><circle cx="337.5" cy="796.0" r="3" fill="#6b7280"/><circle cx="330.0" cy="796.0" r="3" fill="#6b7280"/><circle cx="322.5" cy="796.0" r="3" fill="#6b7280"/><circle cx="313.8" cy="796.0" r="3" fill="#6b7280"/><circle cx="302.0" cy="796.0" r="3" fill="#6b7280"/><circle cx="281.5" cy="796.0" r="3" fill="#6b7280"/><circle cx="250.0" cy="789.4" r="3" fill="#6b7280"/><circle cx="250.0" cy="768.0" r="3" fill="#6b7280"/><circle cx="250.0" cy="746.6" r="3" fill="#6b7280"/><circle cx="281.5" cy="740.0" r="3" fill="#6b7280"/><circle cx="302.0" cy="740.0" r="3" fill="#6b7280"/><circle cx="313.8" cy="740.0" r="3" fill="#6b7280"/><circle cx="322.5" cy="740.0" r="3" fill="#6b7280"/><circle cx="330.0" cy="740.0" r="3" fill="#6b7280"/><circle cx="337.5" cy="740.0" r="3" fill="#6b7280"/><circle cx="346.2" cy="740.0" r="3" fill="#6b7280"/><circle cx="358.0" cy="740.0" r="3" fill="#6b7280"/><circle cx="378.5" cy="740.0" r="3" fill="#6b7280"/><circle cx="410.0" cy="746.6" r="3" fill="#6b7280"/></g><g class="lgdl-node" data-lgdl-loc="nodes[7]"><rect x="1100" y="740" width="160" height="56" rx="6" ry="6" fill="#ffffff" stroke="#6b7280" stroke-width="1.5"/><text x="1180" y="768" font-family="'Segoe UI', 'PingFang SC', 'Microsoft YaHei', sans-serif" font-size="13" fill="#1f2937" text-anchor="middle" dominant-baseline="middle">支付服务</text></g><g class="lgdl-anchors"><circle cx="1260.0" cy="768.0" r="3" fill="#6b7280"/><circle cx="1260.0" cy="789.4" r="3" fill="#6b7280"/><circle cx="1228.5" cy="796.0" r="3" fill="#6b7280"/><circle cx="1208.0" cy="796.0" r="3" fill="#6b7280"/><circle cx="1196.2" cy="796.0" r="3" fill="#6b7280"/><circle cx="1187.5" cy="796.0" r="3" fill="#6b7280"/><circle cx="1180.0" cy="796.0" r="3" fill="#6b7280"/><circle cx="1172.5" cy="796.0" r="3" fill="#6b7280"/><circle cx="1163.8" cy="796.0" r="3" fill="#6b7280"/><circle cx="1152.0" cy="796.0" r="3" fill="#6b7280"/><circle cx="1131.5" cy="796.0" r="3" fill="#6b7280"/><circle cx="1100.0" cy="789.4" r="3" fill="#6b7280"/><circle cx="1100.0" cy="768.0" r="3" fill="#6b7280"/><circle cx="1100.0" cy="746.6" r="3" fill="#6b7280"/><circle cx="1131.5" cy="740.0" r="3" fill="#6b7280"/><circle cx="1152.0" cy="740.0" r="3" fill="#6b7280"/><circle cx="1163.8" cy="740.0" r="3" fill="#6b7280"/><circle cx="1172.5" cy="740.0" r="3" fill="#6b7280"/><circle cx="1180.0" cy="740.0" r="3" fill="#6b7280"/><circle cx="1187.5" cy="740.0" r="3" fill="#6b7280"/><circle cx="1196.2" cy="740.0" r="3" fill="#6b7280"/><circle cx="1208.0" cy="740.0" r="3" fill="#6b7280"/><circle cx="1228.5" cy="740.0" r="3" fill="#6b7280"/><circle cx="1260.0" cy="746.6" r="3" fill="#6b7280"/></g><g class="lgdl-node" data-lgdl-loc="nodes[8]"><rect x="1020" y="892" width="160" height="56" rx="6" ry="6" fill="#ffffff" stroke="#6b7280" stroke-width="1.5"/><text x="1100" y="920" font-family="'Segoe UI', 'PingFang SC', 'Microsoft YaHei', sans-serif" font-size="13" fill="#1f2937" text-anchor="middle" dominant-baseline="middle">通知服务</text></g><g class="lgdl-anchors"><circle cx="1180.0" cy="920.0" r="3" fill="#6b7280"/><circle cx="1180.0" cy="941.4" r="3" fill="#6b7280"/><circle cx="1148.5" cy="948.0" r="3" fill="#6b7280"/><circle cx="1128.0" cy="948.0" r="3" fill="#6b7280"/><circle cx="1116.2" cy="948.0" r="3" fill="#6b7280"/><circle cx="1107.5" cy="948.0" r="3" fill="#6b7280"/><circle cx="1100.0" cy="948.0" r="3" fill="#6b7280"/><circle cx="1092.5" cy="948.0" r="3" fill="#6b7280"/><circle cx="1083.8" cy="948.0" r="3" fill="#6b7280"/><circle cx="1072.0" cy="948.0" r="3" fill="#6b7280"/><circle cx="1051.5" cy="948.0" r="3" fill="#6b7280"/><circle cx="1020.0" cy="941.4" r="3" fill="#6b7280"/><circle cx="1020.0" cy="920.0" r="3" fill="#6b7280"/><circle cx="1020.0" cy="898.6" r="3" fill="#6b7280"/><circle cx="1051.5" cy="892.0" r="3" fill="#6b7280"/><circle cx="1072.0" cy="892.0" r="3" fill="#6b7280"/><circle cx="1083.8" cy="892.0" r="3" fill="#6b7280"/><circle cx="1092.5" cy="892.0" r="3" fill="#6b7280"/><circle cx="1100.0" cy="892.0" r="3" fill="#6b7280"/><circle cx="1107.5" cy="892.0" r="3" fill="#6b7280"/><circle cx="1116.2" cy="892.0" r="3" fill="#6b7280"/><circle cx="1128.0" cy="892.0" r="3" fill="#6b7280"/><circle cx="1148.5" cy="892.0" r="3" fill="#6b7280"/><circle cx="1180.0" cy="898.6" r="3" fill="#6b7280"/></g><g class="lgdl-node" data-lgdl-loc="nodes[9]"><rect x="390" y="588" width="160" height="56" rx="6" ry="6" fill="#ffffff" stroke="#6b7280" stroke-width="1.5"/><text x="470" y="616" font-family="'Segoe UI', 'PingFang SC', 'Microsoft YaHei', sans-serif" font-size="13" fill="#1f2937" text-anchor="middle" dominant-baseline="middle">搜索服务</text></g><g class="lgdl-anchors"><circle cx="550.0" cy="616.0" r="3" fill="#6b7280"/><circle cx="550.0" cy="637.4" r="3" fill="#6b7280"/><circle cx="518.5" cy="644.0" r="3" fill="#6b7280"/><circle cx="498.0" cy="644.0" r="3" fill="#6b7280"/><circle cx="486.2" cy="644.0" r="3" fill="#6b7280"/><circle cx="477.5" cy="644.0" r="3" fill="#6b7280"/><circle cx="470.0" cy="644.0" r="3" fill="#6b7280"/><circle cx="462.5" cy="644.0" r="3" fill="#6b7280"/><circle cx="453.8" cy="644.0" r="3" fill="#6b7280"/><circle cx="442.0" cy="644.0" r="3" fill="#6b7280"/><circle cx="421.5" cy="644.0" r="3" fill="#6b7280"/><circle cx="390.0" cy="637.4" r="3" fill="#6b7280"/><circle cx="390.0" cy="616.0" r="3" fill="#6b7280"/><circle cx="390.0" cy="594.6" r="3" fill="#6b7280"/><circle cx="421.5" cy="588.0" r="3" fill="#6b7280"/><circle cx="442.0" cy="588.0" r="3" fill="#6b7280"/><circle cx="453.8" cy="588.0" r="3" fill="#6b7280"/><circle cx="462.5" cy="588.0" r="3" fill="#6b7280"/><circle cx="470.0" cy="588.0" r="3" fill="#6b7280"/><circle cx="477.5" cy="588.0" r="3" fill="#6b7280"/><circle cx="486.2" cy="588.0" r="3" fill="#6b7280"/><circle cx="498.0" cy="588.0" r="3" fill="#6b7280"/><circle cx="518.5" cy="588.0" r="3" fill="#6b7280"/><circle cx="550.0" cy="594.6" r="3" fill="#6b7280"/></g><g class="lgdl-node" data-lgdl-loc="nodes[10]"><path d="M 90,1150 L 90,1190 A 70,10 0 0 0 230,1190 L 230,1150 A 70,10 0 0 0 90,1150 Z" fill="#fce7f3" stroke="#ec4899" stroke-width="1.5"/><text x="160" y="1170" font-family="'Segoe UI', 'PingFang SC', 'Microsoft YaHei', sans-serif" font-size="13" fill="#1f2937" text-anchor="middle" dominant-baseline="middle">Redis 缓存</text></g><g class="lgdl-anchors"><circle cx="230.0" cy="1170.0" r="3" fill="#ec4899"/><circle cx="230.0" cy="1188.8" r="3" fill="#ec4899"/><circle cx="207.4" cy="1197.4" r="3" fill="#ec4899"/><circle cx="189.1" cy="1199.1" r="3" fill="#ec4899"/><circle cx="177.1" cy="1199.7" r="3" fill="#ec4899"/><circle cx="168.0" cy="1199.9" r="3" fill="#ec4899"/><circle cx="160.0" cy="1200.0" r="3" fill="#ec4899"/><circle cx="152.0" cy="1199.9" r="3" fill="#ec4899"/><circle cx="142.9" cy="1199.7" r="3" fill="#ec4899"/><circle cx="130.9" cy="1199.1" r="3" fill="#ec4899"/><circle cx="112.6" cy="1197.4" r="3" fill="#ec4899"/><circle cx="90.0" cy="1188.8" r="3" fill="#ec4899"/><circle cx="90.0" cy="1170.0" r="3" fill="#ec4899"/><circle cx="90.0" cy="1151.2" r="3" fill="#ec4899"/><circle cx="112.6" cy="1142.6" r="3" fill="#ec4899"/><circle cx="130.9" cy="1140.9" r="3" fill="#ec4899"/><circle cx="142.9" cy="1140.3" r="3" fill="#ec4899"/><circle cx="152.0" cy="1140.1" r="3" fill="#ec4899"/><circle cx="160.0" cy="1140.0" r="3" fill="#ec4899"/><circle cx="168.0" cy="1140.1" r="3" fill="#ec4899"/><circle cx="177.1" cy="1140.3" r="3" fill="#ec4899"/><circle cx="189.1" cy="1140.9" r="3" fill="#ec4899"/><circle cx="207.4" cy="1142.6" r="3" fill="#ec4899"/><circle cx="230.0" cy="1151.2" r="3" fill="#ec4899"/></g><g class="lgdl-node" data-lgdl-loc="nodes[11]"><path d="M 785,1150 L 785,1190 A 70,10 0 0 0 925,1190 L 925,1150 A 70,10 0 0 0 785,1150 Z" fill="#fce7f3" stroke="#ec4899" stroke-width="1.5"/><text x="855" y="1170" font-family="'Segoe UI', 'PingFang SC', 'Microsoft YaHei', sans-serif" font-size="13" fill="#1f2937" text-anchor="middle" dominant-baseline="middle">MySQL 集群</text></g><g class="lgdl-anchors"><circle cx="925.0" cy="1170.0" r="3" fill="#ec4899"/><circle cx="925.0" cy="1188.8" r="3" fill="#ec4899"/><circle cx="902.4" cy="1197.4" r="3" fill="#ec4899"/><circle cx="884.1" cy="1199.1" r="3" fill="#ec4899"/><circle cx="872.1" cy="1199.7" r="3" fill="#ec4899"/><circle cx="863.0" cy="1199.9" r="3" fill="#ec4899"/><circle cx="855.0" cy="1200.0" r="3" fill="#ec4899"/><circle cx="847.0" cy="1199.9" r="3" fill="#ec4899"/><circle cx="837.9" cy="1199.7" r="3" fill="#ec4899"/><circle cx="825.9" cy="1199.1" r="3" fill="#ec4899"/><circle cx="807.6" cy="1197.4" r="3" fill="#ec4899"/><circle cx="785.0" cy="1188.8" r="3" fill="#ec4899"/><circle cx="785.0" cy="1170.0" r="3" fill="#ec4899"/><circle cx="785.0" cy="1151.2" r="3" fill="#ec4899"/><circle cx="807.6" cy="1142.6" r="3" fill="#ec4899"/><circle cx="825.9" cy="1140.9" r="3" fill="#ec4899"/><circle cx="837.9" cy="1140.3" r="3" fill="#ec4899"/><circle cx="847.0" cy="1140.1" r="3" fill="#ec4899"/><circle cx="855.0" cy="1140.0" r="3" fill="#ec4899"/><circle cx="863.0" cy="1140.1" r="3" fill="#ec4899"/><circle cx="872.1" cy="1140.3" r="3" fill="#ec4899"/><circle cx="884.1" cy="1140.9" r="3" fill="#ec4899"/><circle cx="902.4" cy="1142.6" r="3" fill="#ec4899"/><circle cx="925.0" cy="1151.2" r="3" fill="#ec4899"/></g><g class="lgdl-node" data-lgdl-loc="nodes[12]"><path d="M 1110,1150 L 1110,1190 A 70,10 0 0 0 1250,1190 L 1250,1150 A 70,10 0 0 0 1110,1150 Z" fill="#fce7f3" stroke="#ec4899" stroke-width="1.5"/><text x="1180" y="1170" font-family="'Segoe UI', 'PingFang SC', 'Microsoft YaHei', sans-serif" font-size="13" fill="#1f2937" text-anchor="middle" dominant-baseline="middle">消息队列</text></g><g class="lgdl-anchors"><circle cx="1250.0" cy="1170.0" r="3" fill="#ec4899"/><circle cx="1250.0" cy="1188.8" r="3" fill="#ec4899"/><circle cx="1227.4" cy="1197.4" r="3" fill="#ec4899"/><circle cx="1209.1" cy="1199.1" r="3" fill="#ec4899"/><circle cx="1197.1" cy="1199.7" r="3" fill="#ec4899"/><circle cx="1188.0" cy="1199.9" r="3" fill="#ec4899"/><circle cx="1180.0" cy="1200.0" r="3" fill="#ec4899"/><circle cx="1172.0" cy="1199.9" r="3" fill="#ec4899"/><circle cx="1162.9" cy="1199.7" r="3" fill="#ec4899"/><circle cx="1150.9" cy="1199.1" r="3" fill="#ec4899"/><circle cx="1132.6" cy="1197.4" r="3" fill="#ec4899"/><circle cx="1110.0" cy="1188.8" r="3" fill="#ec4899"/><circle cx="1110.0" cy="1170.0" r="3" fill="#ec4899"/><circle cx="1110.0" cy="1151.2" r="3" fill="#ec4899"/><circle cx="1132.6" cy="1142.6" r="3" fill="#ec4899"/><circle cx="1150.9" cy="1140.9" r="3" fill="#ec4899"/><circle cx="1162.9" cy="1140.3" r="3" fill="#ec4899"/><circle cx="1172.0" cy="1140.1" r="3" fill="#ec4899"/><circle cx="1180.0" cy="1140.0" r="3" fill="#ec4899"/><circle cx="1188.0" cy="1140.1" r="3" fill="#ec4899"/><circle cx="1197.1" cy="1140.3" r="3" fill="#ec4899"/><circle cx="1209.1" cy="1140.9" r="3" fill="#ec4899"/><circle cx="1227.4" cy="1142.6" r="3" fill="#ec4899"/><circle cx="1250.0" cy="1151.2" r="3" fill="#ec4899"/></g><g class="lgdl-node" data-lgdl-loc="nodes[13]"><path d="M 1335,1150 L 1335,1190 A 70,10 0 0 0 1475,1190 L 1475,1150 A 70,10 0 0 0 1335,1150 Z" fill="#fce7f3" stroke="#ec4899" stroke-width="1.5"/><text x="1405" y="1170" font-family="'Segoe UI', 'PingFang SC', 'Microsoft YaHei', sans-serif" font-size="13" fill="#1f2937" text-anchor="middle" dominant-baseline="middle">Elasticsearch</text></g><g class="lgdl-anchors"><circle cx="1475.0" cy="1170.0" r="3" fill="#ec4899"/><circle cx="1475.0" cy="1188.8" r="3" fill="#ec4899"/><circle cx="1452.4" cy="1197.4" r="3" fill="#ec4899"/><circle cx="1434.1" cy="1199.1" r="3" fill="#ec4899"/><circle cx="1422.1" cy="1199.7" r="3" fill="#ec4899"/><circle cx="1413.0" cy="1199.9" r="3" fill="#ec4899"/><circle cx="1405.0" cy="1200.0" r="3" fill="#ec4899"/><circle cx="1397.0" cy="1199.9" r="3" fill="#ec4899"/><circle cx="1387.9" cy="1199.7" r="3" fill="#ec4899"/><circle cx="1375.9" cy="1199.1" r="3" fill="#ec4899"/><circle cx="1357.6" cy="1197.4" r="3" fill="#ec4899"/><circle cx="1335.0" cy="1188.8" r="3" fill="#ec4899"/><circle cx="1335.0" cy="1170.0" r="3" fill="#ec4899"/><circle cx="1335.0" cy="1151.2" r="3" fill="#ec4899"/><circle cx="1357.6" cy="1142.6" r="3" fill="#ec4899"/><circle cx="1375.9" cy="1140.9" r="3" fill="#ec4899"/><circle cx="1387.9" cy="1140.3" r="3" fill="#ec4899"/><circle cx="1397.0" cy="1140.1" r="3" fill="#ec4899"/><circle cx="1405.0" cy="1140.0" r="3" fill="#ec4899"/><circle cx="1413.0" cy="1140.1" r="3" fill="#ec4899"/><circle cx="1422.1" cy="1140.3" r="3" fill="#ec4899"/><circle cx="1434.1" cy="1140.9" r="3" fill="#ec4899"/><circle cx="1452.4" cy="1142.6" r="3" fill="#ec4899"/><circle cx="1475.0" cy="1151.2" r="3" fill="#ec4899"/></g><g class="lgdl-node" data-lgdl-loc="nodes[14]"><path d="M 1555,1150 L 1555,1190 A 70,10 0 0 0 1695,1190 L 1695,1150 A 70,10 0 0 0 1555,1150 Z" fill="#fce7f3" stroke="#ec4899" stroke-width="1.5"/><text x="1625" y="1170" font-family="'Segoe UI', 'PingFang SC', 'Microsoft YaHei', sans-serif" font-size="13" fill="#1f2937" text-anchor="middle" dominant-baseline="middle">对象存储</text></g><g class="lgdl-anchors"><circle cx="1695.0" cy="1170.0" r="3" fill="#ec4899"/><circle cx="1695.0" cy="1188.8" r="3" fill="#ec4899"/><circle cx="1672.4" cy="1197.4" r="3" fill="#ec4899"/><circle cx="1654.1" cy="1199.1" r="3" fill="#ec4899"/><circle cx="1642.1" cy="1199.7" r="3" fill="#ec4899"/><circle cx="1633.0" cy="1199.9" r="3" fill="#ec4899"/><circle cx="1625.0" cy="1200.0" r="3" fill="#ec4899"/><circle cx="1617.0" cy="1199.9" r="3" fill="#ec4899"/><circle cx="1607.9" cy="1199.7" r="3" fill="#ec4899"/><circle cx="1595.9" cy="1199.1" r="3" fill="#ec4899"/><circle cx="1577.6" cy="1197.4" r="3" fill="#ec4899"/><circle cx="1555.0" cy="1188.8" r="3" fill="#ec4899"/><circle cx="1555.0" cy="1170.0" r="3" fill="#ec4899"/><circle cx="1555.0" cy="1151.2" r="3" fill="#ec4899"/><circle cx="1577.6" cy="1142.6" r="3" fill="#ec4899"/><circle cx="1595.9" cy="1140.9" r="3" fill="#ec4899"/><circle cx="1607.9" cy="1140.3" r="3" fill="#ec4899"/><circle cx="1617.0" cy="1140.1" r="3" fill="#ec4899"/><circle cx="1625.0" cy="1140.0" r="3" fill="#ec4899"/><circle cx="1633.0" cy="1140.1" r="3" fill="#ec4899"/><circle cx="1642.1" cy="1140.3" r="3" fill="#ec4899"/><circle cx="1654.1" cy="1140.9" r="3" fill="#ec4899"/><circle cx="1672.4" cy="1142.6" r="3" fill="#ec4899"/><circle cx="1695.0" cy="1151.2" r="3" fill="#ec4899"/></g><g class="lgdl-node" data-lgdl-loc="nodes[15]"><path d="M 265,88 L 393,88 L 405,100 L 405,148 L 265,148 Z" fill="#f3f4f6" stroke="#9ca3af" stroke-width="1.5"/><text x="335" y="118" font-family="'Segoe UI', 'PingFang SC', 'Microsoft YaHei', sans-serif" font-size="13" fill="#1f2937" text-anchor="middle" dominant-baseline="middle">监控告警</text></g><g class="lgdl-anchors"><circle cx="405.0" cy="118.0" r="3" fill="#9ca3af"/><circle cx="405.0" cy="136.8" r="3" fill="#9ca3af"/><circle cx="387.0" cy="148.0" r="3" fill="#9ca3af"/><circle cx="365.0" cy="148.0" r="3" fill="#9ca3af"/><circle cx="352.3" cy="148.0" r="3" fill="#9ca3af"/><circle cx="343.0" cy="148.0" r="3" fill="#9ca3af"/><circle cx="335.0" cy="148.0" r="3" fill="#9ca3af"/><circle cx="327.0" cy="148.0" r="3" fill="#9ca3af"/><circle cx="317.7" cy="148.0" r="3" fill="#9ca3af"/><circle cx="305.0" cy="148.0" r="3" fill="#9ca3af"/><circle cx="283.0" cy="148.0" r="3" fill="#9ca3af"/><circle cx="265.0" cy="136.8" r="3" fill="#9ca3af"/><circle cx="265.0" cy="118.0" r="3" fill="#9ca3af"/><circle cx="265.0" cy="99.2" r="3" fill="#9ca3af"/><circle cx="283.0" cy="88.0" r="3" fill="#9ca3af"/><circle cx="305.0" cy="88.0" r="3" fill="#9ca3af"/><circle cx="317.7" cy="88.0" r="3" fill="#9ca3af"/><circle cx="327.0" cy="88.0" r="3" fill="#9ca3af"/><circle cx="335.0" cy="88.0" r="3" fill="#9ca3af"/><circle cx="343.0" cy="88.0" r="3" fill="#9ca3af"/><circle cx="352.3" cy="88.0" r="3" fill="#9ca3af"/><circle cx="365.0" cy="88.0" r="3" fill="#9ca3af"/><circle cx="387.0" cy="88.0" r="3" fill="#9ca3af"/><circle cx="404.4" cy="99.4" r="3" fill="#9ca3af"/></g><g class="lgdl-aggregate-edge" data-lgdl-loc="edges[19]"><line x1="726.8807991231607" y1="416" x2="749.8909236273087" y2="538" stroke="#7c3aed" stroke-width="2" stroke-dasharray="5 3" marker-end="url(#arrowhead-purple)"/><rect x="712.4" y="464.5" width="52" height="17" rx="3" fill="#ffffff" opacity="0.9"/><text x="738.3858613752348" y="473" font-family="'Segoe UI', 'PingFang SC', 'Microsoft YaHei', sans-serif" font-size="11" fill="#7c3aed" text-anchor="middle" dominant-baseline="middle">路由转发</text></g><g class="lgdl-edge-anchors"><circle cx="726.9" cy="416.0" r="3.5" fill="#7c3aed"/><circle cx="749.9" cy="538.0" r="3.5" fill="#7c3aed"/></g><g class="lgdl-aggregate-edge" data-lgdl-loc="edges[20]"><line x1="865.1090763726914" y1="968" x2="875.0833024919771" y2="1090" stroke="#7c3aed" stroke-width="2" stroke-dasharray="5 3" marker-end="url(#arrowhead-purple)"/><rect x="844.1" y="1016.5" width="52" height="17" rx="3" fill="#ffffff" opacity="0.9"/><text x="870.0961894323343" y="1025" font-family="'Segoe UI', 'PingFang SC', 'Microsoft YaHei', sans-serif" font-size="11" fill="#7c3aed" text-anchor="middle" dominant-baseline="middle">数据访问</text></g><g class="lgdl-edge-anchors"><circle cx="865.1" cy="968.0" r="3.5" fill="#7c3aed"/><circle cx="875.1" cy="1090.0" r="3.5" fill="#7c3aed"/></g><g class="lgdl-edge" data-lgdl-loc="edges[0]"><path d="M 1140,131 L 1140,196 L 710,196 L 710,244 L 710,292 L 710,340" fill="none" stroke="#6b7280" stroke-width="1.5" marker-end="url(#arrowhead)"/><text x="925.0754367860031" y="192" font-family="'Segoe UI', 'PingFang SC', 'Microsoft YaHei', sans-serif" font-size="12" fill="#6b7280" text-anchor="middle" dominant-baseline="middle">HTTPS</text></g><g class="lgdl-edge-anchors"><circle cx="1140.2" cy="131.4" r="3.5" fill="#6b7280"/><circle cx="710.0" cy="340.0" r="3.5" fill="#6b7280"/></g><g class="lgdl-edge" data-lgdl-loc="edges[1]"><path d="M 630,389 L 630,444 L 210,444 L 210,492 L 210,540 L 210,588" fill="none" stroke="#6b7280" stroke-width="1.5" marker-end="url(#arrowhead)"/><text x="420" y="440" font-family="'Segoe UI', 'PingFang SC', 'Microsoft YaHei', sans-serif" font-size="12" fill="#6b7280" text-anchor="middle" dominant-baseline="middle">鉴权</text></g><g class="lgdl-edge-anchors"><circle cx="630.0" cy="389.4" r="3.5" fill="#6b7280"/><circle cx="210.0" cy="588.0" r="3.5" fill="#6b7280"/></g><g class="lgdl-edge" data-lgdl-loc="edges[2]"><path d="M 758,396 L 758,444 L 840,444 L 840,492 L 840,540 L 840,616 L 840,692 L 840,768 L 840,844 L 840,892" fill="none" stroke="#6b7280" stroke-width="1.5" marker-end="url(#arrowhead)"/></g><g class="lgdl-edge-anchors"><circle cx="758.5" cy="396.0" r="3.5" fill="#6b7280"/><circle cx="840.0" cy="892.0" r="3.5" fill="#6b7280"/></g><g class="lgdl-edge" data-lgdl-loc="edges[3]"><path d="M 790,368 L 790,444 L 1405,444 L 1405,492 L 1405,540 L 1405,616 L 1405,692 L 1405,768 L 1405,844 L 1405,892" fill="none" stroke="#6b7280" stroke-width="1.5" marker-end="url(#arrowhead)"/></g><g class="lgdl-edge-anchors"><circle cx="790.0" cy="368.0" r="3.5" fill="#6b7280"/><circle cx="1405.0" cy="892.0" r="3.5" fill="#6b7280"/></g><g class="lgdl-edge" data-lgdl-loc="edges[4]"><path d="M 710,396 L 710,444 L 710,492 L 710,540 L 710,588" fill="none" stroke="#6b7280" stroke-width="1.5" marker-end="url(#arrowhead)"/></g><g class="lgdl-edge-anchors"><circle cx="710.0" cy="396.0" r="3.5" fill="#6b7280"/><circle cx="710.0" cy="588.0" r="3.5" fill="#6b7280"/></g><g class="lgdl-edge" data-lgdl-loc="edges[5]"><path d="M 630,389 L 630,444 L 340,444 L 340,492 L 340,540 L 340,616 L 340,692 L 340,740 L 330,740" fill="none" stroke="#6b7280" stroke-width="1.5" marker-end="url(#arrowhead)"/></g><g class="lgdl-edge-anchors"><circle cx="630.0" cy="389.4" r="3.5" fill="#6b7280"/><circle cx="330.0" cy="740.0" r="3.5" fill="#6b7280"/></g><g class="lgdl-edge" data-lgdl-loc="edges[6]"><path d="M 790,389 L 790,444 L 1285,444 L 1285,492 L 1285,540 L 1285,616 L 1285,692 L 1285,740 L 1228,740" fill="none" stroke="#6b7280" stroke-width="1.5" marker-end="url(#arrowhead)"/></g><g class="lgdl-edge-anchors"><circle cx="790.0" cy="389.4" r="3.5" fill="#6b7280"/><circle cx="1228.5" cy="740.0" r="3.5" fill="#6b7280"/></g><g class="lgdl-edge" data-lgdl-loc="edges[7]"><path d="M 630,389 L 630,444 L 470,444 L 470,492 L 470,540 L 470,588" fill="none" stroke="#6b7280" stroke-width="1.5" marker-end="url(#arrowhead)"/></g><g class="lgdl-edge-anchors"><circle cx="630.0" cy="389.4" r="3.5" fill="#6b7280"/><circle cx="470.0" cy="588.0" r="3.5" fill="#6b7280"/></g><g class="lgdl-edge" data-lgdl-loc="edges[8]"><path d="M 630,637 L 630,692 L 275,692 L 275,740 L 314,740" fill="none" stroke="#6b7280" stroke-width="1.5" marker-end="url(#arrowhead)"/><text x="452.5" y="688" font-family="'Segoe UI', 'PingFang SC', 'Microsoft YaHei', sans-serif" font-size="12" fill="#6b7280" text-anchor="middle" dominant-baseline="middle">锁库存</text></g><g class="lgdl-edge-anchors"><circle cx="630.0" cy="637.4" r="3.5" fill="#6b7280"/><circle cx="313.8" cy="740.0" r="3.5" fill="#6b7280"/></g><g class="lgdl-edge" data-lgdl-loc="edges[9]"><path d="M 790,637 L 790,692 L 1045,692 L 1045,740 L 1132,740" fill="none" stroke="#6b7280" stroke-width="1.5" marker-end="url(#arrowhead)"/><text x="917.5" y="688" font-family="'Segoe UI', 'PingFang SC', 'Microsoft YaHei', sans-serif" font-size="12" fill="#6b7280" text-anchor="middle" dominant-baseline="middle">发起支付</text></g><g class="lgdl-edge-anchors"><circle cx="790.0" cy="637.4" r="3.5" fill="#6b7280"/><circle cx="1131.5" cy="740.0" r="3.5" fill="#6b7280"/></g><g class="lgdl-edge" data-lgdl-loc="edges[10]"><path d="M 1152,796 L 1152,844 L 1100,844 L 1100,892" fill="none" stroke="#6b7280" stroke-width="1.5" marker-end="url(#arrowhead)"/><text x="1126" y="840" font-family="'Segoe UI', 'PingFang SC', 'Microsoft YaHei', sans-serif" font-size="12" fill="#6b7280" text-anchor="middle" dominant-baseline="middle">支付回调</text></g><g class="lgdl-edge-anchors"><circle cx="1152.0" cy="796.0" r="3.5" fill="#6b7280"/><circle cx="1100.0" cy="892.0" r="3.5" fill="#6b7280"/></g><g class="lgdl-edge" data-lgdl-loc="edges[11]"><path d="M 630,637 L 630,692 L 160,692 L 160,768 L 160,844 L 160,920 L 160,996 L 160,1044 L 160,1092 L 160,1140" fill="none" stroke="#6b7280" stroke-width="1.5" marker-end="url(#arrowhead)"/><text x="160" y="982" font-family="'Segoe UI', 'PingFang SC', 'Microsoft YaHei', sans-serif" font-size="12" fill="#6b7280" text-anchor="middle" dominant-baseline="middle">读写缓存</text></g><g class="lgdl-edge-anchors"><circle cx="630.0" cy="637.4" r="3.5" fill="#6b7280"/><circle cx="160.0" cy="1140.0" r="3.5" fill="#6b7280"/></g><g class="lgdl-edge" data-lgdl-loc="edges[12]"><path d="M 790,637 L 790,692 L 970,692 L 970,768 L 970,844 L 970,920 L 970,996 L 970,1044 L 970,1092 L 970,1143 L 902,1143" fill="none" stroke="#6b7280" stroke-width="1.5" marker-end="url(#arrowhead)"/><text x="970" y="982" font-family="'Segoe UI', 'PingFang SC', 'Microsoft YaHei', sans-serif" font-size="12" fill="#6b7280" text-anchor="middle" dominant-baseline="middle">订单落库</text></g><g class="lgdl-edge-anchors"><circle cx="790.0" cy="637.4" r="3.5" fill="#6b7280"/><circle cx="902.4" cy="1142.6" r="3.5" fill="#6b7280"/></g><g class="lgdl-edge" data-lgdl-loc="edges[13]"><path d="M 840,948 L 840,996 L 840,1044 L 840,1092 L 840,1140 L 847,1140" fill="none" stroke="#6b7280" stroke-width="1.5" marker-end="url(#arrowhead)"/></g><g class="lgdl-edge-anchors"><circle cx="840.0" cy="948.0" r="3.5" fill="#6b7280"/><circle cx="847.0" cy="1140.1" r="3.5" fill="#6b7280"/></g><g class="lgdl-edge" data-lgdl-loc="edges[14]"><path d="M 330,796 L 330,844 L 330,920 L 330,996 L 330,1044 L 330,1092 L 330,1151 L 785,1151" fill="none" stroke="#6b7280" stroke-width="1.5" marker-end="url(#arrowhead)"/></g><g class="lgdl-edge-anchors"><circle cx="330.0" cy="796.0" r="3.5" fill="#6b7280"/><circle cx="785.0" cy="1151.2" r="3.5" fill="#6b7280"/></g><g class="lgdl-edge" data-lgdl-loc="edges[15]"><path d="M 1196,796 L 1196,844 L 1230,844 L 1230,920 L 1230,996 L 1230,1044 L 1230,1092 L 1230,1140 L 1197,1140" fill="none" stroke="#6b7280" stroke-width="1.5" marker-end="url(#arrowhead)"/><text x="1230" y="982" font-family="'Segoe UI', 'PingFang SC', 'Microsoft YaHei', sans-serif" font-size="12" fill="#6b7280" text-anchor="middle" dominant-baseline="middle">发消息</text></g><g class="lgdl-edge-anchors"><circle cx="1196.2" cy="796.0" r="3.5" fill="#6b7280"/><circle cx="1197.1" cy="1140.3" r="3.5" fill="#6b7280"/></g><g class="lgdl-edge" data-lgdl-loc="edges[16]"><path d="M 1100,948 L 1100,996 L 1100,1044 L 1100,1092 L 1100,1141 L 1151,1141" fill="none" stroke="#6b7280" stroke-width="1.5" marker-end="url(#arrowhead)"/></g><g class="lgdl-edge-anchors"><circle cx="1100.0" cy="948.0" r="3.5" fill="#6b7280"/><circle cx="1150.9" cy="1140.9" r="3.5" fill="#6b7280"/></g><g class="lgdl-edge" data-lgdl-loc="edges[17]"><path d="M 1405,948 L 1405,996 L 1405,1044 L 1405,1092 L 1405,1140" fill="none" stroke="#6b7280" stroke-width="1.5" marker-end="url(#arrowhead)"/><text x="1405" y="982" font-family="'Segoe UI', 'PingFang SC', 'Microsoft YaHei', sans-serif" font-size="12" fill="#6b7280" text-anchor="middle" dominant-baseline="middle">同步索引</text></g><g class="lgdl-edge-anchors"><circle cx="1405.0" cy="948.0" r="3.5" fill="#6b7280"/><circle cx="1405.0" cy="1140.0" r="3.5" fill="#6b7280"/></g><g class="lgdl-edge" data-lgdl-loc="edges[18]"><path d="M 1240,131 L 1240,196 L 1625,196 L 1625,244 L 1625,292 L 1625,368 L 1625,444 L 1625,492 L 1625,540 L 1625,616 L 1625,692 L 1625,768 L 1625,844 L 1625,920 L 1625,996 L 1625,1044 L 1625,1092 L 1625,1140" fill="none" stroke="#6b7280" stroke-width="1.5" marker-end="url(#arrowhead)"/><text x="1432.4245632139969" y="192" font-family="'Segoe UI', 'PingFang SC', 'Microsoft YaHei', sans-serif" font-size="12" fill="#6b7280" text-anchor="middle" dominant-baseline="middle">上传头像</text></g><g class="lgdl-edge-anchors"><circle cx="1239.8" cy="131.4" r="3.5" fill="#6b7280"/><circle cx="1625.0" cy="1140.0" r="3.5" fill="#6b7280"/></g></svg>