<svg xmlns="http://www.w3.org/2000/svg" width="960" height="760" viewBox="0 0 960 760"><defs><marker id="arrowhead" markerWidth="10" markerHeight="7" refX="10" refY="3.5" orient="auto"><polygon points="0 0, 10 3.5, 0 7" fill="#6b7280"/></marker><marker id="arrowhead-purple" markerWidth="10" markerHeight="7" refX="10" refY="3.5" orient="auto"><polygon points="0 0, 10 3.5, 0 7" fill="#7c3aed"/></marker></defs><style>.lgdl-anchors,.lgdl-edge-anchors{opacity:0;pointer-events:none;transition:opacity .12s ease}.lgdl-node:hover + .lgdl-anchors,.lgdl-class:hover + .lgdl-anchors,.lgdl-group:hover + .lgdl-anchors,.lgdl-lane:hover + .lgdl-anchors{opacity:1}.lgdl-edge:hover + .lgdl-edge-anchors,.lgdl-aggregate-edge:hover + .lgdl-edge-anchors{opacity:1}.lgdl-node.lgdl-hovered + .lgdl-anchors,.lgdl-class.lgdl-hovered + .lgdl-anchors,.lgdl-group.lgdl-hovered + .lgdl-anchors,.lgdl-lane.lgdl-hovered + .lgdl-anchors{opacity:1}.lgdl-edge.lgdl-hovered + .lgdl-edge-anchors,.lgdl-aggregate-edge.lgdl-hovered + .lgdl-edge-anchors{opacity:1}.lgdl-hovered{filter:drop-shadow(0 0 3px rgba(79,70,229,.65))}</style><rect x="0" y="0" width="960" height="760" fill="#ffffff"/><g class="lgdl-node" data-lgdl-loc="nodes[0]"><rect x="400" y="352" width="160" height="56" rx="6" ry="6" fill="#eff6ff" stroke="#3b82f6" stroke-width="1.5"/><text x="480" y="380" font-family="'Segoe UI', 'PingFang SC', 'Microsoft YaHei', sans-serif" font-size="20" fill="#1f2937" text-anchor="middle" dominant-baseline="middle">AI 项目</text></g><g class="lgdl-anchors"><circle cx="560.0" cy="380.0" r="3" fill="#3b82f6"/><circle cx="560.0" cy="401.4" r="3" fill="#3b82f6"/><circle cx="528.5" cy="408.0" r="3" fill="#3b82f6"/><circle cx="508.0" cy="408.0" r="3" fill="#3b82f6"/><circle cx="496.2" cy="408.0" r="3" fill="#3b82f6"/><circle cx="487.5" cy="408.0" r="3" fill="#3b82f6"/><circle cx="480.0" cy="408.0" r="3" fill="#3b82f6"/><circle cx="472.5" cy="408.0" r="3" fill="#3b82f6"/><circle cx="463.8" cy="408.0" r="3" fill="#3b82f6"/><circle cx="452.0" cy="408.0" r="3" fill="#3b82f6"/><circle cx="431.5" cy="408.0" r="3" fill="#3b82f6"/><circle cx="400.0" cy="401.4" r="3" fill="#3b82f6"/><circle cx="400.0" cy="380.0" r="3" fill="#3b82f6"/><circle cx="400.0" cy="358.6" r="3" fill="#3b82f6"/><circle cx="431.5" cy="352.0" r="3" fill="#3b82f6"/><circle cx="452.0" cy="352.0" r="3" fill="#3b82f6"/><circle cx="463.8" cy="352.0" r="3" fill="#3b82f6"/><circle cx="472.5" cy="352.0" r="3" fill="#3b82f6"/><circle cx="480.0" cy="352.0" r="3" fill="#3b82f6"/><circle cx="487.5" cy="352.0" r="3" fill="#3b82f6"/><circle cx="496.2" cy="352.0" r="3" fill="#3b82f6"/><circle cx="508.0" cy="352.0" r="3" fill="#3b82f6"/><circle cx="528.5" cy="352.0" r="3" fill="#3b82f6"/><circle cx="560.0" cy="358.6" r="3" fill="#3b82f6"/></g><g class="lgdl-node" data-lgdl-loc="nodes[1]"><rect x="556" y="262" width="160" height="56" rx="6" ry="6" fill="#eff6ff" stroke="#3b82f6" stroke-width="1.5"/><text x="636" y="290" font-family="'Segoe UI', 'PingFang SC', 'Microsoft YaHei', sans-serif" font-size="15" fill="#1f2937" text-anchor="middle" dominant-baseline="middle">模型选择</text></g><g class="lgdl-anchors"><circle cx="716.0" cy="290.0" r="3" fill="#3b82f6"/><circle cx="716.0" cy="311.4" r="3" fill="#3b82f6"/><circle cx="684.5" cy="318.0" r="3" fill="#3b82f6"/><circle cx="664.0" cy="318.0" r="3" fill="#3b82f6"/><circle cx="652.2" cy="318.0" r="3" fill="#3b82f6"/><circle cx="643.5" cy="318.0" r="3" fill="#3b82f6"/><circle cx="636.0" cy="318.0" r="3" fill="#3b82f6"/><circle cx="628.5" cy="318.0" r="3" fill="#3b82f6"/><circle cx="619.8" cy="318.0" r="3" fill="#3b82f6"/><circle cx="608.0" cy="318.0" r="3" fill="#3b82f6"/><circle cx="587.5" cy="318.0" r="3" fill="#3b82f6"/><circle cx="556.0" cy="311.4" r="3" fill="#3b82f6"/><circle cx="556.0" cy="290.0" r="3" fill="#3b82f6"/><circle cx="556.0" cy="268.6" r="3" fill="#3b82f6"/><circle cx="587.5" cy="262.0" r="3" fill="#3b82f6"/><circle cx="608.0" cy="262.0" r="3" fill="#3b82f6"/><circle cx="619.8" cy="262.0" r="3" fill="#3b82f6"/><circle cx="628.5" cy="262.0" r="3" fill="#3b82f6"/><circle cx="636.0" cy="262.0" r="3" fill="#3b82f6"/><circle cx="643.5" cy="262.0" r="3" fill="#3b82f6"/><circle cx="652.2" cy="262.0" r="3" fill="#3b82f6"/><circle cx="664.0" cy="262.0" r="3" fill="#3b82f6"/><circle cx="684.5" cy="262.0" r="3" fill="#3b82f6"/><circle cx="716.0" cy="268.6" r="3" fill="#3b82f6"/></g><g class="lgdl-node" data-lgdl-loc="nodes[2]"><rect x="400" y="532" width="160" height="56" rx="6" ry="6" fill="#ecfdf5" stroke="#16a34a" stroke-width="1.5"/><text x="480" y="560" font-family="'Segoe UI', 'PingFang SC', 'Microsoft YaHei', sans-serif" font-size="15" fill="#1f2937" text-anchor="middle" dominant-baseline="middle">开发框架</text></g><g class="lgdl-anchors"><circle cx="560.0" cy="560.0" r="3" fill="#16a34a"/><circle cx="560.0" cy="581.4" r="3" fill="#16a34a"/><circle cx="528.5" cy="588.0" r="3" fill="#16a34a"/><circle cx="508.0" cy="588.0" r="3" fill="#16a34a"/><circle cx="496.2" cy="588.0" r="3" fill="#16a34a"/><circle cx="487.5" cy="588.0" r="3" fill="#16a34a"/><circle cx="480.0" cy="588.0" r="3" fill="#16a34a"/><circle cx="472.5" cy="588.0" r="3" fill="#16a34a"/><circle cx="463.8" cy="588.0" r="3" fill="#16a34a"/><circle cx="452.0" cy="588.0" r="3" fill="#16a34a"/><circle cx="431.5" cy="588.0" r="3" fill="#16a34a"/><circle cx="400.0" cy="581.4" r="3" fill="#16a34a"/><circle cx="400.0" cy="560.0" r="3" fill="#16a34a"/><circle cx="400.0" cy="538.6" r="3" fill="#16a34a"/><circle cx="431.5" cy="532.0" r="3" fill="#16a34a"/><circle cx="452.0" cy="532.0" r="3" fill="#16a34a"/><circle cx="463.8" cy="532.0" r="3" fill="#16a34a"/><circle cx="472.5" cy="532.0" r="3" fill="#16a34a"/><circle cx="480.0" cy="532.0" r="3" fill="#16a34a"/><circle cx="487.5" cy="532.0" r="3" fill="#16a34a"/><circle cx="496.2" cy="532.0" r="3" fill="#16a34a"/><circle cx="508.0" cy="532.0" r="3" fill="#16a34a"/><circle cx="528.5" cy="532.0" r="3" fill="#16a34a"/><circle cx="560.0" cy="538.6" r="3" fill="#16a34a"/></g><g class="lgdl-node" data-lgdl-loc="nodes[3]"><rect x="244" y="262" width="160" height="56" rx="6" ry="6" fill="#fffbeb" stroke="#f59e0b" stroke-width="1.5"/><text x="324" y="290" font-family="'Segoe UI', 'PingFang SC', 'Microsoft YaHei', sans-serif" font-size="15" fill="#1f2937" text-anchor="middle" dominant-baseline="middle">部署方案</text></g><g class="lgdl-anchors"><circle cx="404.0" cy="290.0" r="3" fill="#f59e0b"/><circle cx="404.0" cy="311.4" r="3" fill="#f59e0b"/><circle cx="372.5" cy="318.0" r="3" fill="#f59e0b"/><circle cx="352.0" cy="318.0" r="3" fill="#f59e0b"/><circle cx="340.2" cy="318.0" r="3" fill="#f59e0b"/><circle cx="331.5" cy="318.0" r="3" fill="#f59e0b"/><circle cx="324.0" cy="318.0" r="3" fill="#f59e0b"/><circle cx="316.5" cy="318.0" r="3" fill="#f59e0b"/><circle cx="307.8" cy="318.0" r="3" fill="#f59e0b"/><circle cx="296.0" cy="318.0" r="3" fill="#f59e0b"/><circle cx="275.5" cy="318.0" r="3" fill="#f59e0b"/><circle cx="244.0" cy="311.4" r="3" fill="#f59e0b"/><circle cx="244.0" cy="290.0" r="3" fill="#f59e0b"/><circle cx="244.0" cy="268.6" r="3" fill="#f59e0b"/><circle cx="275.5" cy="262.0" r="3" fill="#f59e0b"/><circle cx="296.0" cy="262.0" r="3" fill="#f59e0b"/><circle cx="307.8" cy="262.0" r="3" fill="#f59e0b"/><circle cx="316.5" cy="262.0" r="3" fill="#f59e0b"/><circle cx="324.0" cy="262.0" r="3" fill="#f59e0b"/><circle cx="331.5" cy="262.0" r="3" fill="#f59e0b"/><circle cx="340.2" cy="262.0" r="3" fill="#f59e0b"/><circle cx="352.0" cy="262.0" r="3" fill="#f59e0b"/><circle cx="372.5" cy="262.0" r="3" fill="#f59e0b"/><circle cx="404.0" cy="268.6" r="3" fill="#f59e0b"/></g><g class="lgdl-node" data-lgdl-loc="nodes[4]"><rect x="580" y="40" width="160" height="56" rx="6" ry="6" fill="#eff6ff" stroke="#3b82f6" stroke-width="1.5"/><text x="660" y="68" font-family="'Segoe UI', 'PingFang SC', 'Microsoft YaHei', sans-serif" font-size="12" fill="#1f2937" text-anchor="middle" dominant-baseline="middle">大语言模型</text></g><g class="lgdl-anchors"><circle cx="740.0" cy="68.0" r="3" fill="#3b82f6"/><circle cx="740.0" cy="89.4" r="3" fill="#3b82f6"/><circle cx="708.5" cy="96.0" r="3" fill="#3b82f6"/><circle cx="688.0" cy="96.0" r="3" fill="#3b82f6"/><circle cx="676.2" cy="96.0" r="3" fill="#3b82f6"/><circle cx="667.5" cy="96.0" r="3" fill="#3b82f6"/><circle cx="660.0" cy="96.0" r="3" fill="#3b82f6"/><circle cx="652.5" cy="96.0" r="3" fill="#3b82f6"/><circle cx="643.8" cy="96.0" r="3" fill="#3b82f6"/><circle cx="632.0" cy="96.0" r="3" fill="#3b82f6"/><circle cx="611.5" cy="96.0" r="3" fill="#3b82f6"/><circle cx="580.0" cy="89.4" r="3" fill="#3b82f6"/><circle cx="580.0" cy="68.0" r="3" fill="#3b82f6"/><circle cx="580.0" cy="46.6" r="3" fill="#3b82f6"/><circle cx="611.5" cy="40.0" r="3" fill="#3b82f6"/><circle cx="632.0" cy="40.0" r="3" fill="#3b82f6"/><circle cx="643.8" cy="40.0" r="3" fill="#3b82f6"/><circle cx="652.5" cy="40.0" r="3" fill="#3b82f6"/><circle cx="660.0" cy="40.0" r="3" fill="#3b82f6"/><circle cx="667.5" cy="40.0" r="3" fill="#3b82f6"/><circle cx="676.2" cy="40.0" r="3" fill="#3b82f6"/><circle cx="688.0" cy="40.0" r="3" fill="#3b82f6"/><circle cx="708.5" cy="40.0" r="3" fill="#3b82f6"/><circle cx="740.0" cy="46.6" r="3" fill="#3b82f6"/></g><g class="lgdl-node" data-lgdl-loc="nodes[5]"><rect x="760" y="352" width="160" height="56" rx="6" ry="6" fill="#eff6ff" stroke="#3b82f6" stroke-width="1.5"/><text x="840" y="380" font-family="'Segoe UI', 'PingFang SC', 'Microsoft YaHei', sans-serif" font-size="12" fill="#1f2937" text-anchor="middle" dominant-baseline="middle">视觉模型</text></g><g class="lgdl-anchors"><circle cx="920.0" cy="380.0" r="3" fill="#3b82f6"/><circle cx="920.0" cy="401.4" r="3" fill="#3b82f6"/><circle cx="888.5" cy="408.0" r="3" fill="#3b82f6"/><circle cx="868.0" cy="408.0" r="3" fill="#3b82f6"/><circle cx="856.2" cy="408.0" r="3" fill="#3b82f6"/><circle cx="847.5" cy="408.0" r="3" fill="#3b82f6"/><circle cx="840.0" cy="408.0" r="3" fill="#3b82f6"/><circle cx="832.5" cy="408.0" r="3" fill="#3b82f6"/><circle cx="823.8" cy="408.0" r="3" fill="#3b82f6"/><circle cx="812.0" cy="408.0" r="3" fill="#3b82f6"/><circle cx="791.5" cy="408.0" r="3" fill="#3b82f6"/><circle cx="760.0" cy="401.4" r="3" fill="#3b82f6"/><circle cx="760.0" cy="380.0" r="3" fill="#3b82f6"/><circle cx="760.0" cy="358.6" r="3" fill="#3b82f6"/><circle cx="791.5" cy="352.0" r="3" fill="#3b82f6"/><circle cx="812.0" cy="352.0" r="3" fill="#3b82f6"/><circle cx="823.8" cy="352.0" r="3" fill="#3b82f6"/><circle cx="832.5" cy="352.0" r="3" fill="#3b82f6"/><circle cx="840.0" cy="352.0" r="3" fill="#3b82f6"/><circle cx="847.5" cy="352.0" r="3" fill="#3b82f6"/><circle cx="856.2" cy="352.0" r="3" fill="#3b82f6"/><circle cx="868.0" cy="352.0" r="3" fill="#3b82f6"/><circle cx="888.5" cy="352.0" r="3" fill="#3b82f6"/><circle cx="920.0" cy="358.6" r="3" fill="#3b82f6"/></g><g class="lgdl-node" data-lgdl-loc="nodes[6]"><rect x="580" y="664" width="160" height="56" rx="6" ry="6" fill="#ecfdf5" stroke="#16a34a" stroke-width="1.5"/><text x="660" y="692" font-family="'Segoe UI', 'PingFang SC', 'Microsoft YaHei', sans-serif" font-size="12" fill="#1f2937" text-anchor="middle" dominant-baseline="middle">RAG</text></g><g class="lgdl-anchors"><circle cx="740.0" cy="692.0" r="3" fill="#16a34a"/><circle cx="740.0" cy="713.4" r="3" fill="#16a34a"/><circle cx="708.5" cy="720.0" r="3" fill="#16a34a"/><circle cx="688.0" cy="720.0" r="3" fill="#16a34a"/><circle cx="676.2" cy="720.0" r="3" fill="#16a34a"/><circle cx="667.5" cy="720.0" r="3" fill="#16a34a"/><circle cx="660.0" cy="720.0" r="3" fill="#16a34a"/><circle cx="652.5" cy="720.0" r="3" fill="#16a34a"/><circle cx="643.8" cy="720.0" r="3" fill="#16a34a"/><circle cx="632.0" cy="720.0" r="3" fill="#16a34a"/><circle cx="611.5" cy="720.0" r="3" fill="#16a34a"/><circle cx="580.0" cy="713.4" r="3" fill="#16a34a"/><circle cx="580.0" cy="692.0" r="3" fill="#16a34a"/><circle cx="580.0" cy="670.6" r="3" fill="#16a34a"/><circle cx="611.5" cy="664.0" r="3" fill="#16a34a"/><circle cx="632.0" cy="664.0" r="3" fill="#16a34a"/><circle cx="643.8" cy="664.0" r="3" fill="#16a34a"/><circle cx="652.5" cy="664.0" r="3" fill="#16a34a"/><circle cx="660.0" cy="664.0" r="3" fill="#16a34a"/><circle cx="667.5" cy="664.0" r="3" fill="#16a34a"/><circle cx="676.2" cy="664.0" r="3" fill="#16a34a"/><circle cx="688.0" cy="664.0" r="3" fill="#16a34a"/><circle cx="708.5" cy="664.0" r="3" fill="#16a34a"/><circle cx="740.0" cy="670.6" r="3" fill="#16a34a"/></g><g class="lgdl-node" data-lgdl-loc="nodes[7]"><rect x="220" y="664" width="160" height="56" rx="6" ry="6" fill="#ecfdf5" stroke="#16a34a" stroke-width="1.5"/><text x="300" y="692" font-family="'Segoe UI', 'PingFang SC', 'Microsoft YaHei', sans-serif" font-size="12" fill="#1f2937" text-anchor="middle" dominant-baseline="middle">Agent</text></g><g class="lgdl-anchors"><circle cx="380.0" cy="692.0" r="3" fill="#16a34a"/><circle cx="380.0" cy="713.4" r="3" fill="#16a34a"/><circle cx="348.5" cy="720.0" r="3" fill="#16a34a"/><circle cx="328.0" cy="720.0" r="3" fill="#16a34a"/><circle cx="316.2" cy="720.0" r="3" fill="#16a34a"/><circle cx="307.5" cy="720.0" r="3" fill="#16a34a"/><circle cx="300.0" cy="720.0" r="3" fill="#16a34a"/><circle cx="292.5" cy="720.0" r="3" fill="#16a34a"/><circle cx="283.8" cy="720.0" r="3" fill="#16a34a"/><circle cx="272.0" cy="720.0" r="3" fill="#16a34a"/><circle cx="251.5" cy="720.0" r="3" fill="#16a34a"/><circle cx="220.0" cy="713.4" r="3" fill="#16a34a"/><circle cx="220.0" cy="692.0" r="3" fill="#16a34a"/><circle cx="220.0" cy="670.6" r="3" fill="#16a34a"/><circle cx="251.5" cy="664.0" r="3" fill="#16a34a"/><circle cx="272.0" cy="664.0" r="3" fill="#16a34a"/><circle cx="283.8" cy="664.0" r="3" fill="#16a34a"/><circle cx="292.5" cy="664.0" r="3" fill="#16a34a"/><circle cx="300.0" cy="664.0" r="3" fill="#16a34a"/><circle cx="307.5" cy="664.0" r="3" fill="#16a34a"/><circle cx="316.2" cy="664.0" r="3" fill="#16a34a"/><circle cx="328.0" cy="664.0" r="3" fill="#16a34a"/><circle cx="348.5" cy="664.0" r="3" fill="#16a34a"/><circle cx="380.0" cy="670.6" r="3" fill="#16a34a"/></g><g class="lgdl-node" data-lgdl-loc="nodes[8]"><rect x="40" y="352" width="160" height="56" rx="6" ry="6" fill="#fffbeb" stroke="#f59e0b" stroke-width="1.5"/><text x="120" y="380" font-family="'Segoe UI', 'PingFang SC', 'Microsoft YaHei', sans-serif" font-size="12" fill="#1f2937" text-anchor="middle" dominant-baseline="middle">云部署</text></g><g class="lgdl-anchors"><circle cx="200.0" cy="380.0" r="3" fill="#f59e0b"/><circle cx="200.0" cy="401.4" r="3" fill="#f59e0b"/><circle cx="168.5" cy="408.0" r="3" fill="#f59e0b"/><circle cx="148.0" cy="408.0" r="3" fill="#f59e0b"/><circle cx="136.2" cy="408.0" r="3" fill="#f59e0b"/><circle cx="127.5" cy="408.0" r="3" fill="#f59e0b"/><circle cx="120.0" cy="408.0" r="3" fill="#f59e0b"/><circle cx="112.5" cy="408.0" r="3" fill="#f59e0b"/><circle cx="103.8" cy="408.0" r="3" fill="#f59e0b"/><circle cx="92.0" cy="408.0" r="3" fill="#f59e0b"/><circle cx="71.5" cy="408.0" r="3" fill="#f59e0b"/><circle cx="40.0" cy="401.4" r="3" fill="#f59e0b"/><circle cx="40.0" cy="380.0" r="3" fill="#f59e0b"/><circle cx="40.0" cy="358.6" r="3" fill="#f59e0b"/><circle cx="71.5" cy="352.0" r="3" fill="#f59e0b"/><circle cx="92.0" cy="352.0" r="3" fill="#f59e0b"/><circle cx="103.8" cy="352.0" r="3" fill="#f59e0b"/><circle cx="112.5" cy="352.0" r="3" fill="#f59e0b"/><circle cx="120.0" cy="352.0" r="3" fill="#f59e0b"/><circle cx="127.5" cy="352.0" r="3" fill="#f59e0b"/><circle cx="136.2" cy="352.0" r="3" fill="#f59e0b"/><circle cx="148.0" cy="352.0" r="3" fill="#f59e0b"/><circle cx="168.5" cy="352.0" r="3" fill="#f59e0b"/><circle cx="200.0" cy="358.6" r="3" fill="#f59e0b"/></g><g class="lgdl-node" data-lgdl-loc="nodes[9]"><rect x="220" y="40" width="160" height="56" rx="6" ry="6" fill="#fffbeb" stroke="#f59e0b" stroke-width="1.5"/><text x="300" y="68" font-family="'Segoe UI', 'PingFang SC', 'Microsoft YaHei', sans-serif" font-size="12" fill="#1f2937" text-anchor="middle" dominant-baseline="middle">边缘部署</text></g><g class="lgdl-anchors"><circle cx="380.0" cy="68.0" r="3" fill="#f59e0b"/><circle cx="380.0" cy="89.4" r="3" fill="#f59e0b"/><circle cx="348.5" cy="96.0" r="3" fill="#f59e0b"/><circle cx="328.0" cy="96.0" r="3" fill="#f59e0b"/><circle cx="316.2" cy="96.0" r="3" fill="#f59e0b"/><circle cx="307.5" cy="96.0" r="3" fill="#f59e0b"/><circle cx="300.0" cy="96.0" r="3" fill="#f59e0b"/><circle cx="292.5" cy="96.0" r="3" fill="#f59e0b"/><circle cx="283.8" cy="96.0" r="3" fill="#f59e0b"/><circle cx="272.0" cy="96.0" r="3" fill="#f59e0b"/><circle cx="251.5" cy="96.0" r="3" fill="#f59e0b"/><circle cx="220.0" cy="89.4" r="3" fill="#f59e0b"/><circle cx="220.0" cy="68.0" r="3" fill="#f59e0b"/><circle cx="220.0" cy="46.6" r="3" fill="#f59e0b"/><circle cx="251.5" cy="40.0" r="3" fill="#f59e0b"/><circle cx="272.0" cy="40.0" r="3" fill="#f59e0b"/><circle cx="283.8" cy="40.0" r="3" fill="#f59e0b"/><circle cx="292.5" cy="40.0" r="3" fill="#f59e0b"/><circle cx="300.0" cy="40.0" r="3" fill="#f59e0b"/><circle cx="307.5" cy="40.0" r="3" fill="#f59e0b"/><circle cx="316.2" cy="40.0" r="3" fill="#f59e0b"/><circle cx="328.0" cy="40.0" r="3" fill="#f59e0b"/><circle cx="348.5" cy="40.0" r="3" fill="#f59e0b"/><circle cx="380.0" cy="46.6" r="3" fill="#f59e0b"/></g><g class="lgdl-edge" data-lgdl-loc="edges[0]"><path d="M 528,352 L 528,290 L 556,290" fill="none" stroke="#6b7280" stroke-width="1.5" marker-end="url(#arrowhead)"/></g><g class="lgdl-edge-anchors"><circle cx="528.5" cy="352.0" r="3.5" fill="#6b7280"/><circle cx="556.0" cy="290.0" r="3.5" fill="#6b7280"/></g><g class="lgdl-edge" data-lgdl-loc="edges[1]"><path d="M 480,408 L 480,532" fill="none" stroke="#6b7280" stroke-width="1.5" marker-end="url(#arrowhead)"/></g><g class="lgdl-edge-anchors"><circle cx="480.0" cy="408.0" r="3.5" fill="#6b7280"/><circle cx="480.0" cy="532.0" r="3.5" fill="#6b7280"/></g><g class="lgdl-edge" data-lgdl-loc="edges[2]"><path d="M 432,352 L 432,290 L 404,290" fill="none" stroke="#6b7280" stroke-width="1.5" marker-end="url(#arrowhead)"/></g><g class="lgdl-edge-anchors"><circle cx="431.5" cy="352.0" r="3.5" fill="#6b7280"/><circle cx="404.0" cy="290.0" r="3.5" fill="#6b7280"/></g><g class="lgdl-edge" data-lgdl-loc="edges[3]"><path d="M 636,262 L 636,112 L 553,112 L 553,68 L 580,68" fill="none" stroke="#6b7280" stroke-width="1.5" marker-end="url(#arrowhead)"/></g><g class="lgdl-edge-anchors"><circle cx="636.0" cy="262.0" r="3.5" fill="#6b7280"/><circle cx="580.0" cy="68.0" r="3.5" fill="#6b7280"/></g><g class="lgdl-edge" data-lgdl-loc="edges[4]"><path d="M 716,290 L 792,290 L 792,352" fill="none" stroke="#6b7280" stroke-width="1.5" marker-end="url(#arrowhead)"/></g><g class="lgdl-edge-anchors"><circle cx="716.0" cy="290.0" r="3.5" fill="#6b7280"/><circle cx="791.5" cy="352.0" r="3.5" fill="#6b7280"/></g><g class="lgdl-edge" data-lgdl-loc="edges[5]"><path d="M 528,588 L 528,692 L 580,692" fill="none" stroke="#6b7280" stroke-width="1.5" marker-end="url(#arrowhead)"/></g><g class="lgdl-edge-anchors"><circle cx="528.5" cy="588.0" r="3.5" fill="#6b7280"/><circle cx="580.0" cy="692.0" r="3.5" fill="#6b7280"/></g><g class="lgdl-edge" data-lgdl-loc="edges[6]"><path d="M 432,588 L 432,692 L 380,692" fill="none" stroke="#6b7280" stroke-width="1.5" marker-end="url(#arrowhead)"/></g><g class="lgdl-edge-anchors"><circle cx="431.5" cy="588.0" r="3.5" fill="#6b7280"/><circle cx="380.0" cy="692.0" r="3.5" fill="#6b7280"/></g><g class="lgdl-edge" data-lgdl-loc="edges[7]"><path d="M 276,318 L 276,380 L 200,380" fill="none" stroke="#6b7280" stroke-width="1.5" marker-end="url(#arrowhead)"/></g><g class="lgdl-edge-anchors"><circle cx="275.5" cy="318.0" r="3.5" fill="#6b7280"/><circle cx="200.0" cy="380.0" r="3.5" fill="#6b7280"/></g><g class="lgdl-edge" data-lgdl-loc="edges[8]"><path d="M 324,262 L 324,112 L 196,112 L 196,68 L 220,68" fill="none" stroke="#6b7280" stroke-width="1.5" marker-end="url(#arrowhead)"/></g><g class="lgdl-edge-anchors"><circle cx="324.0" cy="262.0" r="3.5" fill="#6b7280"/><circle cx="220.0" cy="68.0" r="3.5" fill="#6b7280"/></g></svg>