<svg xmlns="http://www.w3.org/2000/svg" width="794" height="844" viewBox="0 0 794 844"><defs><marker id="arrowhead" markerWidth="10" markerHeight="7" refX="10" refY="3.5" orient="auto"><polygon points="0 0, 10 3.5, 0 7" fill="#6b7280"/></marker><marker id="arrowhead-purple" markerWidth="10" markerHeight="7" refX="10" refY="3.5" orient="auto"><polygon points="0 0, 10 3.5, 0 7" fill="#7c3aed"/></marker></defs><style>.lgdl-anchors,.lgdl-edge-anchors{opacity:0;pointer-events:none;transition:opacity .12s ease}.lgdl-node:hover + .lgdl-anchors,.lgdl-class:hover + .lgdl-anchors,.lgdl-group:hover + .lgdl-anchors,.lgdl-lane:hover + .lgdl-anchors{opacity:1}.lgdl-edge:hover + .lgdl-edge-anchors,.lgdl-aggregate-edge:hover + .lgdl-edge-anchors{opacity:1}.lgdl-node.lgdl-hovered + .lgdl-anchors,.lgdl-class.lgdl-hovered + .lgdl-anchors,.lgdl-group.lgdl-hovered + .lgdl-anchors,.lgdl-lane.lgdl-hovered + .lgdl-anchors{opacity:1}.lgdl-edge.lgdl-hovered + .lgdl-edge-anchors,.lgdl-aggregate-edge.lgdl-hovered + .lgdl-edge-anchors{opacity:1}.lgdl-hovered{filter:drop-shadow(0 0 3px rgba(79,70,229,.65))}</style><rect x="0" y="0" width="794" height="844" fill="#ffffff"/><g class="lgdl-class" data-lgdl-loc="nodes[0]"><rect x="292" y="305" width="234" height="32" fill="#eef2ff" stroke="#4f46e5" stroke-width="1.5"/><text x="409" y="321" font-family="'Segoe UI', 'PingFang SC', 'Microsoft YaHei', sans-serif" font-size="13" font-weight="bold" fill="#312e81" text-anchor="middle" dominant-baseline="middle">订单</text><line x1="292" y1="337" x2="526" y2="337" stroke="#4f46e5" stroke-width="1.5"/><rect x="292" y="337" width="234" height="98" fill="#ffffff" stroke="#4f46e5" stroke-width="1.5"/><text data-lgdl-loc="nodes[0].members[0]" x="302" y="353" font-family="'Segoe UI', 'PingFang SC', 'Microsoft YaHei', sans-serif" font-size="11" fill="#374151" text-anchor="start" dominant-baseline="middle">- id: Long</text><text data-lgdl-loc="nodes[0].members[1]" x="302" y="371" font-family="'Segoe UI', 'PingFang SC', 'Microsoft YaHei', sans-serif" font-size="11" fill="#374151" text-anchor="start" dominant-baseline="middle">- userId: Long</text><text data-lgdl-loc="nodes[0].members[2]" x="302" y="389" font-family="'Segoe UI', 'PingFang SC', 'Microsoft YaHei', sans-serif" font-size="11" fill="#374151" text-anchor="start" dominant-baseline="middle">- status: String</text><text data-lgdl-loc="nodes[0].members[3]" x="302" y="407" font-family="'Segoe UI', 'PingFang SC', 'Microsoft YaHei', sans-serif" font-size="11" fill="#374151" text-anchor="start" dominant-baseline="middle">- totalAmount: BigDecimal</text><text data-lgdl-loc="nodes[0].members[4]" x="302" y="425" font-family="'Segoe UI', 'PingFang SC', 'Microsoft YaHei', sans-serif" font-size="11" fill="#374151" text-anchor="start" dominant-baseline="middle">- createdAt: LocalDateTime</text><line x1="292" y1="435" x2="526" y2="435" stroke="#4f46e5" stroke-width="1.5"/><rect x="292" y="435" width="234" height="62" fill="#ffffff" stroke="#4f46e5" stroke-width="1.5"/><text data-lgdl-loc="nodes[0].members[5]" x="302" y="451" font-family="'Segoe UI', 'PingFang SC', 'Microsoft YaHei', sans-serif" font-size="11" fill="#374151" text-anchor="start" dominant-baseline="middle">+ calculateTotal(): BigDecimal</text><text data-lgdl-loc="nodes[0].members[6]" x="302" y="469" font-family="'Segoe UI', 'PingFang SC', 'Microsoft YaHei', sans-serif" font-size="11" fill="#374151" text-anchor="start" dominant-baseline="middle">+ pay(): void</text><text data-lgdl-loc="nodes[0].members[7]" x="302" y="487" font-family="'Segoe UI', 'PingFang SC', 'Microsoft YaHei', sans-serif" font-size="11" fill="#374151" text-anchor="start" dominant-baseline="middle">+ cancel(): boolean</text></g><g class="lgdl-anchors"><circle cx="526.0" cy="401.0" r="3" fill="#4f46e5"/><circle cx="526.0" cy="432.4" r="3" fill="#4f46e5"/><circle cx="526.0" cy="468.5" r="3" fill="#4f46e5"/><circle cx="505.0" cy="497.0" r="3" fill="#4f46e5"/><circle cx="464.4" cy="497.0" r="3" fill="#4f46e5"/><circle cx="434.7" cy="497.0" r="3" fill="#4f46e5"/><circle cx="409.0" cy="497.0" r="3" fill="#4f46e5"/><circle cx="383.3" cy="497.0" r="3" fill="#4f46e5"/><circle cx="353.6" cy="497.0" r="3" fill="#4f46e5"/><circle cx="313.0" cy="497.0" r="3" fill="#4f46e5"/><circle cx="292.0" cy="468.5" r="3" fill="#4f46e5"/><circle cx="292.0" cy="432.4" r="3" fill="#4f46e5"/><circle cx="292.0" cy="401.0" r="3" fill="#4f46e5"/><circle cx="292.0" cy="369.6" r="3" fill="#4f46e5"/><circle cx="292.0" cy="333.5" r="3" fill="#4f46e5"/><circle cx="313.0" cy="305.0" r="3" fill="#4f46e5"/><circle cx="353.6" cy="305.0" r="3" fill="#4f46e5"/><circle cx="383.3" cy="305.0" r="3" fill="#4f46e5"/><circle cx="409.0" cy="305.0" r="3" fill="#4f46e5"/><circle cx="434.7" cy="305.0" r="3" fill="#4f46e5"/><circle cx="464.4" cy="305.0" r="3" fill="#4f46e5"/><circle cx="505.0" cy="305.0" r="3" fill="#4f46e5"/><circle cx="526.0" cy="333.5" r="3" fill="#4f46e5"/><circle cx="526.0" cy="369.6" r="3" fill="#4f46e5"/></g><g class="lgdl-class" data-lgdl-loc="nodes[1]"><rect x="580" y="40" width="213" height="32" fill="#eef2ff" stroke="#4f46e5" stroke-width="1.5"/><text x="686.5" y="56" font-family="'Segoe UI', 'PingFang SC', 'Microsoft YaHei', sans-serif" font-size="13" font-weight="bold" fill="#312e81" text-anchor="middle" dominant-baseline="middle">订单项</text><line x1="580" y1="72" x2="793" y2="72" stroke="#4f46e5" stroke-width="1.5"/><rect x="580" y="72" width="213" height="98" fill="#ffffff" stroke="#4f46e5" stroke-width="1.5"/><text data-lgdl-loc="nodes[1].members[0]" x="590" y="88" font-family="'Segoe UI', 'PingFang SC', 'Microsoft YaHei', sans-serif" font-size="11" fill="#374151" text-anchor="start" dominant-baseline="middle">- id: Long</text><text data-lgdl-loc="nodes[1].members[1]" x="590" y="106" font-family="'Segoe UI', 'PingFang SC', 'Microsoft YaHei', sans-serif" font-size="11" fill="#374151" text-anchor="start" dominant-baseline="middle">- productId: Long</text><text data-lgdl-loc="nodes[1].members[2]" x="590" y="124" font-family="'Segoe UI', 'PingFang SC', 'Microsoft YaHei', sans-serif" font-size="11" fill="#374151" text-anchor="start" dominant-baseline="middle">- productName: String</text><text data-lgdl-loc="nodes[1].members[3]" x="590" y="142" font-family="'Segoe UI', 'PingFang SC', 'Microsoft YaHei', sans-serif" font-size="11" fill="#374151" text-anchor="start" dominant-baseline="middle">- quantity: Integer</text><text data-lgdl-loc="nodes[1].members[4]" x="590" y="160" font-family="'Segoe UI', 'PingFang SC', 'Microsoft YaHei', sans-serif" font-size="11" fill="#374151" text-anchor="start" dominant-baseline="middle">- price: BigDecimal</text><line x1="580" y1="170" x2="793" y2="170" stroke="#4f46e5" stroke-width="1.5"/><rect x="580" y="170" width="213" height="26" fill="#ffffff" stroke="#4f46e5" stroke-width="1.5"/><text data-lgdl-loc="nodes[1].members[5]" x="590" y="186" font-family="'Segoe UI', 'PingFang SC', 'Microsoft YaHei', sans-serif" font-size="11" fill="#374151" text-anchor="start" dominant-baseline="middle">+ getSubtotal(): BigDecimal</text></g><g class="lgdl-anchors"><circle cx="793.0" cy="118.0" r="3" fill="#4f46e5"/><circle cx="793.0" cy="146.5" r="3" fill="#4f46e5"/><circle cx="793.0" cy="179.5" r="3" fill="#4f46e5"/><circle cx="764.5" cy="196.0" r="3" fill="#4f46e5"/><circle cx="731.5" cy="196.0" r="3" fill="#4f46e5"/><circle cx="707.4" cy="196.0" r="3" fill="#4f46e5"/><circle cx="686.5" cy="196.0" r="3" fill="#4f46e5"/><circle cx="665.6" cy="196.0" r="3" fill="#4f46e5"/><circle cx="641.5" cy="196.0" r="3" fill="#4f46e5"/><circle cx="608.5" cy="196.0" r="3" fill="#4f46e5"/><circle cx="580.0" cy="179.5" r="3" fill="#4f46e5"/><circle cx="580.0" cy="146.5" r="3" fill="#4f46e5"/><circle cx="580.0" cy="118.0" r="3" fill="#4f46e5"/><circle cx="580.0" cy="89.5" r="3" fill="#4f46e5"/><circle cx="580.0" cy="56.5" r="3" fill="#4f46e5"/><circle cx="608.5" cy="40.0" r="3" fill="#4f46e5"/><circle cx="641.5" cy="40.0" r="3" fill="#4f46e5"/><circle cx="665.6" cy="40.0" r="3" fill="#4f46e5"/><circle cx="686.5" cy="40.0" r="3" fill="#4f46e5"/><circle cx="707.4" cy="40.0" r="3" fill="#4f46e5"/><circle cx="731.5" cy="40.0" r="3" fill="#4f46e5"/><circle cx="764.5" cy="40.0" r="3" fill="#4f46e5"/><circle cx="793.0" cy="56.5" r="3" fill="#4f46e5"/><circle cx="793.0" cy="89.5" r="3" fill="#4f46e5"/></g><g class="lgdl-class" data-lgdl-loc="nodes[2]"><rect x="40" y="319" width="206" height="32" fill="#eef2ff" stroke="#4f46e5" stroke-width="1.5"/><text x="143" y="335" font-family="'Segoe UI', 'PingFang SC', 'Microsoft YaHei', sans-serif" font-size="13" font-weight="bold" fill="#312e81" text-anchor="middle" dominant-baseline="middle">用户</text><line x1="40" y1="351" x2="246" y2="351" stroke="#4f46e5" stroke-width="1.5"/><rect x="40" y="351" width="206" height="80" fill="#ffffff" stroke="#4f46e5" stroke-width="1.5"/><text data-lgdl-loc="nodes[2].members[0]" x="50" y="367" font-family="'Segoe UI', 'PingFang SC', 'Microsoft YaHei', sans-serif" font-size="11" fill="#374151" text-anchor="start" dominant-baseline="middle">- id: Long</text><text data-lgdl-loc="nodes[2].members[1]" x="50" y="385" font-family="'Segoe UI', 'PingFang SC', 'Microsoft YaHei', sans-serif" font-size="11" fill="#374151" text-anchor="start" dominant-baseline="middle">- name: String</text><text data-lgdl-loc="nodes[2].members[2]" x="50" y="403" font-family="'Segoe UI', 'PingFang SC', 'Microsoft YaHei', sans-serif" font-size="11" fill="#374151" text-anchor="start" dominant-baseline="middle">- email: String</text><text data-lgdl-loc="nodes[2].members[3]" x="50" y="421" font-family="'Segoe UI', 'PingFang SC', 'Microsoft YaHei', sans-serif" font-size="11" fill="#374151" text-anchor="start" dominant-baseline="middle">- phone: String</text><line x1="40" y1="431" x2="246" y2="431" stroke="#4f46e5" stroke-width="1.5"/><rect x="40" y="431" width="206" height="44" fill="#ffffff" stroke="#4f46e5" stroke-width="1.5"/><text data-lgdl-loc="nodes[2].members[4]" x="50" y="447" font-family="'Segoe UI', 'PingFang SC', 'Microsoft YaHei', sans-serif" font-size="11" fill="#374151" text-anchor="start" dominant-baseline="middle">+ getOrders(): List&lt;Order&gt;</text><text data-lgdl-loc="nodes[2].members[5]" x="50" y="465" font-family="'Segoe UI', 'PingFang SC', 'Microsoft YaHei', sans-serif" font-size="11" fill="#374151" text-anchor="start" dominant-baseline="middle">+ createOrder(): Order</text></g><g class="lgdl-anchors"><circle cx="246.0" cy="397.0" r="3" fill="#4f46e5"/><circle cx="246.0" cy="424.6" r="3" fill="#4f46e5"/><circle cx="246.0" cy="456.5" r="3" fill="#4f46e5"/><circle cx="221.0" cy="475.0" r="3" fill="#4f46e5"/><circle cx="188.0" cy="475.0" r="3" fill="#4f46e5"/><circle cx="163.9" cy="475.0" r="3" fill="#4f46e5"/><circle cx="143.0" cy="475.0" r="3" fill="#4f46e5"/><circle cx="122.1" cy="475.0" r="3" fill="#4f46e5"/><circle cx="98.0" cy="475.0" r="3" fill="#4f46e5"/><circle cx="65.0" cy="475.0" r="3" fill="#4f46e5"/><circle cx="40.0" cy="456.5" r="3" fill="#4f46e5"/><circle cx="40.0" cy="424.6" r="3" fill="#4f46e5"/><circle cx="40.0" cy="397.0" r="3" fill="#4f46e5"/><circle cx="40.0" cy="369.4" r="3" fill="#4f46e5"/><circle cx="40.0" cy="337.5" r="3" fill="#4f46e5"/><circle cx="65.0" cy="319.0" r="3" fill="#4f46e5"/><circle cx="98.0" cy="319.0" r="3" fill="#4f46e5"/><circle cx="122.1" cy="319.0" r="3" fill="#4f46e5"/><circle cx="143.0" cy="319.0" r="3" fill="#4f46e5"/><circle cx="163.9" cy="319.0" r="3" fill="#4f46e5"/><circle cx="188.0" cy="319.0" r="3" fill="#4f46e5"/><circle cx="221.0" cy="319.0" r="3" fill="#4f46e5"/><circle cx="246.0" cy="337.5" r="3" fill="#4f46e5"/><circle cx="246.0" cy="369.4" r="3" fill="#4f46e5"/></g><g class="lgdl-class" data-lgdl-loc="nodes[3]"><rect x="580" y="333" width="185" height="32" fill="#eef2ff" stroke="#4f46e5" stroke-width="1.5"/><text x="672.5" y="349" font-family="'Segoe UI', 'PingFang SC', 'Microsoft YaHei', sans-serif" font-size="13" font-weight="bold" fill="#312e81" text-anchor="middle" dominant-baseline="middle">支付记录</text><line x1="580" y1="365" x2="765" y2="365" stroke="#4f46e5" stroke-width="1.5"/><rect x="580" y="365" width="185" height="116" fill="#ffffff" stroke="#4f46e5" stroke-width="1.5"/><text data-lgdl-loc="nodes[3].members[0]" x="590" y="381" font-family="'Segoe UI', 'PingFang SC', 'Microsoft YaHei', sans-serif" font-size="11" fill="#374151" text-anchor="start" dominant-baseline="middle">- id: Long</text><text data-lgdl-loc="nodes[3].members[1]" x="590" y="399" font-family="'Segoe UI', 'PingFang SC', 'Microsoft YaHei', sans-serif" font-size="11" fill="#374151" text-anchor="start" dominant-baseline="middle">- orderId: Long</text><text data-lgdl-loc="nodes[3].members[2]" x="590" y="417" font-family="'Segoe UI', 'PingFang SC', 'Microsoft YaHei', sans-serif" font-size="11" fill="#374151" text-anchor="start" dominant-baseline="middle">- amount: BigDecimal</text><text data-lgdl-loc="nodes[3].members[3]" x="590" y="435" font-family="'Segoe UI', 'PingFang SC', 'Microsoft YaHei', sans-serif" font-size="11" fill="#374151" text-anchor="start" dominant-baseline="middle">- payMethod: String</text><text data-lgdl-loc="nodes[3].members[4]" x="590" y="453" font-family="'Segoe UI', 'PingFang SC', 'Microsoft YaHei', sans-serif" font-size="11" fill="#374151" text-anchor="start" dominant-baseline="middle">- status: String</text><text data-lgdl-loc="nodes[3].members[5]" x="590" y="471" font-family="'Segoe UI', 'PingFang SC', 'Microsoft YaHei', sans-serif" font-size="11" fill="#374151" text-anchor="start" dominant-baseline="middle">- paidAt: LocalDateTime</text><line x1="580" y1="481" x2="765" y2="481" stroke="#4f46e5" stroke-width="1.5"/><rect x="580" y="481" width="185" height="26" fill="#ffffff" stroke="#4f46e5" stroke-width="1.5"/><text data-lgdl-loc="nodes[3].members[6]" x="590" y="497" font-family="'Segoe UI', 'PingFang SC', 'Microsoft YaHei', sans-serif" font-size="11" fill="#374151" text-anchor="start" dominant-baseline="middle">+ refund(): boolean</text></g><g class="lgdl-anchors"><circle cx="765.0" cy="420.0" r="3" fill="#4f46e5"/><circle cx="765.0" cy="444.8" r="3" fill="#4f46e5"/><circle cx="765.0" cy="473.4" r="3" fill="#4f46e5"/><circle cx="759.5" cy="507.0" r="3" fill="#4f46e5"/><circle cx="722.7" cy="507.0" r="3" fill="#4f46e5"/><circle cx="695.8" cy="507.0" r="3" fill="#4f46e5"/><circle cx="672.5" cy="507.0" r="3" fill="#4f46e5"/><circle cx="649.2" cy="507.0" r="3" fill="#4f46e5"/><circle cx="622.3" cy="507.0" r="3" fill="#4f46e5"/><circle cx="585.5" cy="507.0" r="3" fill="#4f46e5"/><circle cx="580.0" cy="473.4" r="3" fill="#4f46e5"/><circle cx="580.0" cy="444.8" r="3" fill="#4f46e5"/><circle cx="580.0" cy="420.0" r="3" fill="#4f46e5"/><circle cx="580.0" cy="395.2" r="3" fill="#4f46e5"/><circle cx="580.0" cy="366.6" r="3" fill="#4f46e5"/><circle cx="585.5" cy="333.0" r="3" fill="#4f46e5"/><circle cx="622.3" cy="333.0" r="3" fill="#4f46e5"/><circle cx="649.2" cy="333.0" r="3" fill="#4f46e5"/><circle cx="672.5" cy="333.0" r="3" fill="#4f46e5"/><circle cx="695.8" cy="333.0" r="3" fill="#4f46e5"/><circle cx="722.7" cy="333.0" r="3" fill="#4f46e5"/><circle cx="759.5" cy="333.0" r="3" fill="#4f46e5"/><circle cx="765.0" cy="366.6" r="3" fill="#4f46e5"/><circle cx="765.0" cy="395.2" r="3" fill="#4f46e5"/></g><g class="lgdl-class" data-lgdl-loc="nodes[4]"><rect x="580" y="598" width="206" height="32" fill="#eef2ff" stroke="#4f46e5" stroke-width="1.5"/><text x="683" y="614" font-family="'Segoe UI', 'PingFang SC', 'Microsoft YaHei', sans-serif" font-size="13" font-weight="bold" fill="#312e81" text-anchor="middle" dominant-baseline="middle">收货地址</text><line x1="580" y1="630" x2="786" y2="630" stroke="#4f46e5" stroke-width="1.5"/><rect x="580" y="630" width="206" height="98" fill="#ffffff" stroke="#4f46e5" stroke-width="1.5"/><text data-lgdl-loc="nodes[4].members[0]" x="590" y="646" font-family="'Segoe UI', 'PingFang SC', 'Microsoft YaHei', sans-serif" font-size="11" fill="#374151" text-anchor="start" dominant-baseline="middle">- id: Long</text><text data-lgdl-loc="nodes[4].members[1]" x="590" y="664" font-family="'Segoe UI', 'PingFang SC', 'Microsoft YaHei', sans-serif" font-size="11" fill="#374151" text-anchor="start" dominant-baseline="middle">- userId: Long</text><text data-lgdl-loc="nodes[4].members[2]" x="590" y="682" font-family="'Segoe UI', 'PingFang SC', 'Microsoft YaHei', sans-serif" font-size="11" fill="#374151" text-anchor="start" dominant-baseline="middle">- receiver: String</text><text data-lgdl-loc="nodes[4].members[3]" x="590" y="700" font-family="'Segoe UI', 'PingFang SC', 'Microsoft YaHei', sans-serif" font-size="11" fill="#374151" text-anchor="start" dominant-baseline="middle">- phone: String</text><text data-lgdl-loc="nodes[4].members[4]" x="590" y="718" font-family="'Segoe UI', 'PingFang SC', 'Microsoft YaHei', sans-serif" font-size="11" fill="#374151" text-anchor="start" dominant-baseline="middle">- detail: String</text><line x1="580" y1="728" x2="786" y2="728" stroke="#4f46e5" stroke-width="1.5"/><rect x="580" y="728" width="206" height="26" fill="#ffffff" stroke="#4f46e5" stroke-width="1.5"/><text data-lgdl-loc="nodes[4].members[5]" x="590" y="744" font-family="'Segoe UI', 'PingFang SC', 'Microsoft YaHei', sans-serif" font-size="11" fill="#374151" text-anchor="start" dominant-baseline="middle">+ getFullAddress(): String</text></g><g class="lgdl-anchors"><circle cx="786.0" cy="676.0" r="3" fill="#4f46e5"/><circle cx="786.0" cy="703.6" r="3" fill="#4f46e5"/><circle cx="786.0" cy="735.5" r="3" fill="#4f46e5"/><circle cx="761.0" cy="754.0" r="3" fill="#4f46e5"/><circle cx="728.0" cy="754.0" r="3" fill="#4f46e5"/><circle cx="703.9" cy="754.0" r="3" fill="#4f46e5"/><circle cx="683.0" cy="754.0" r="3" fill="#4f46e5"/><circle cx="662.1" cy="754.0" r="3" fill="#4f46e5"/><circle cx="638.0" cy="754.0" r="3" fill="#4f46e5"/><circle cx="605.0" cy="754.0" r="3" fill="#4f46e5"/><circle cx="580.0" cy="735.5" r="3" fill="#4f46e5"/><circle cx="580.0" cy="703.6" r="3" fill="#4f46e5"/><circle cx="580.0" cy="676.0" r="3" fill="#4f46e5"/><circle cx="580.0" cy="648.4" r="3" fill="#4f46e5"/><circle cx="580.0" cy="616.5" r="3" fill="#4f46e5"/><circle cx="605.0" cy="598.0" r="3" fill="#4f46e5"/><circle cx="638.0" cy="598.0" r="3" fill="#4f46e5"/><circle cx="662.1" cy="598.0" r="3" fill="#4f46e5"/><circle cx="683.0" cy="598.0" r="3" fill="#4f46e5"/><circle cx="703.9" cy="598.0" r="3" fill="#4f46e5"/><circle cx="728.0" cy="598.0" r="3" fill="#4f46e5"/><circle cx="761.0" cy="598.0" r="3" fill="#4f46e5"/><circle cx="786.0" cy="616.5" r="3" fill="#4f46e5"/><circle cx="786.0" cy="648.4" r="3" fill="#4f46e5"/></g><g class="lgdl-edge" data-lgdl-loc="edges[0]"><path d="M 409,305 L 409,196 L 687,196" fill="none" stroke="#6b7280" stroke-width="1.5" marker-end="url(#arrowhead)"/><text x="547.75" y="206" font-family="'Segoe UI', 'PingFang SC', 'Microsoft YaHei', sans-serif" font-size="12" fill="#6b7280" text-anchor="middle" dominant-baseline="middle">组合（订单项）</text><text x="429.4769812769956" y="290.95678933624316" font-family="'Segoe UI', 'PingFang SC', 'Microsoft YaHei', sans-serif" font-size="12" fill="#b45309" text-anchor="middle" dominant-baseline="middle">1</text><text x="666.0230187230044" y="198.04321066375684" font-family="'Segoe UI', 'PingFang SC', 'Microsoft YaHei', sans-serif" font-size="12" fill="#b45309" text-anchor="middle" dominant-baseline="middle">1..*</text></g><g class="lgdl-edge-anchors"><circle cx="409.0" cy="305.0" r="3.5" fill="#6b7280"/><circle cx="686.5" cy="196.0" r="3.5" fill="#6b7280"/></g><g class="lgdl-edge" data-lgdl-loc="edges[1]"><path d="M 246,397 L 246,401 L 292,401" fill="none" stroke="#6b7280" stroke-width="1.5" marker-end="url(#arrowhead)"/><text x="269" y="397" font-family="'Segoe UI', 'PingFang SC', 'Microsoft YaHei', sans-serif" font-size="12" fill="#6b7280" text-anchor="middle" dominant-baseline="middle">关联（下单）</text><text x="267.917292940305" y="392.9058515600265" font-family="'Segoe UI', 'PingFang SC', 'Microsoft YaHei', sans-serif" font-size="12" fill="#b45309" text-anchor="middle" dominant-baseline="middle">1</text><text x="270.082707059695" y="393.0941484399735" font-family="'Segoe UI', 'PingFang SC', 'Microsoft YaHei', sans-serif" font-size="12" fill="#b45309" text-anchor="middle" dominant-baseline="middle">1..*</text></g><g class="lgdl-edge-anchors"><circle cx="246.0" cy="397.0" r="3.5" fill="#6b7280"/><circle cx="292.0" cy="401.0" r="3.5" fill="#6b7280"/></g><g class="lgdl-edge" data-lgdl-loc="edges[2]"><path d="M 526,401 L 526,420 L 580,420" fill="none" stroke="#6b7280" stroke-width="1.5" marker-end="url(#arrowhead)"/><text x="553" y="416" font-family="'Segoe UI', 'PingFang SC', 'Microsoft YaHei', sans-serif" font-size="12" fill="#6b7280" text-anchor="middle" dominant-baseline="middle">关联（支付）</text><text x="546.7528725984226" y="402.30193665500053" font-family="'Segoe UI', 'PingFang SC', 'Microsoft YaHei', sans-serif" font-size="12" fill="#b45309" text-anchor="middle" dominant-baseline="middle">1</text><text x="559.2471274015774" y="406.69806334499947" font-family="'Segoe UI', 'PingFang SC', 'Microsoft YaHei', sans-serif" font-size="12" fill="#b45309" text-anchor="middle" dominant-baseline="middle">1</text></g><g class="lgdl-edge-anchors"><circle cx="526.0" cy="401.0" r="3.5" fill="#6b7280"/><circle cx="580.0" cy="420.0" r="3.5" fill="#6b7280"/></g><g class="lgdl-edge" data-lgdl-loc="edges[3]"><path d="M 143,475 L 143,598 L 683,598" fill="none" stroke="#6b7280" stroke-width="1.5" marker-end="url(#arrowhead)"/><text x="413" y="594" font-family="'Segoe UI', 'PingFang SC', 'Microsoft YaHei', sans-serif" font-size="12" fill="#6b7280" text-anchor="middle" dominant-baseline="middle">聚合（拥有地址）</text><text x="164.45057909897142" y="473.8859652392102" font-family="'Segoe UI', 'PingFang SC', 'Microsoft YaHei', sans-serif" font-size="12" fill="#b45309" text-anchor="middle" dominant-baseline="middle">1</text><text x="661.5494209010286" y="587.1140347607899" font-family="'Segoe UI', 'PingFang SC', 'Microsoft YaHei', sans-serif" font-size="12" fill="#b45309" text-anchor="middle" dominant-baseline="middle">1..*</text></g><g class="lgdl-edge-anchors"><circle cx="143.0" cy="475.0" r="3.5" fill="#6b7280"/><circle cx="683.0" cy="598.0" r="3.5" fill="#6b7280"/></g><g class="lgdl-edge" data-lgdl-loc="edges[4]"><path d="M 409,497 L 409,598 L 683,598" fill="none" stroke="#6b7280" stroke-width="1.5" marker-end="url(#arrowhead)"/><text x="546" y="580" font-family="'Segoe UI', 'PingFang SC', 'Microsoft YaHei', sans-serif" font-size="12" fill="#6b7280" text-anchor="middle" dominant-baseline="middle">关联（配送至）</text><text x="429.64226203803116" y="498.60900899942027" font-family="'Segoe UI', 'PingFang SC', 'Microsoft YaHei', sans-serif" font-size="12" fill="#b45309" text-anchor="middle" dominant-baseline="middle">1..*</text><text x="662.3577379619688" y="584.3909910005798" font-family="'Segoe UI', 'PingFang SC', 'Microsoft YaHei', sans-serif" font-size="12" fill="#b45309" text-anchor="middle" dominant-baseline="middle">1</text></g><g class="lgdl-edge-anchors"><circle cx="409.0" cy="497.0" r="3.5" fill="#6b7280"/><circle cx="683.0" cy="598.0" r="3.5" fill="#6b7280"/></g></svg>